<?xml version="1.0" standalone="no"?>
<!DOCTYPE svg PUBLIC "-//W3C//DTD SVG 1.1//EN" "http://www.w3.org/Graphics/SVG/1.1/DTD/svg11.dtd" >
<svg xmlns="http://www.w3.org/2000/svg">
<metadata></metadata>
<defs>
<font id="garamondbookcitalic" horiz-adv-x="1331" >
<font-face units-per-em="2048" ascent="1430" descent="-618" />
<missing-glyph horiz-adv-x="477" />
<glyph horiz-adv-x="2048" />
<glyph horiz-adv-x="2048" />
<glyph unicode="&#xd;" horiz-adv-x="2048" />
<glyph unicode=" "  horiz-adv-x="477" />
<glyph unicode="&#x09;" horiz-adv-x="477" />
<glyph unicode="&#xa0;" horiz-adv-x="477" />
<glyph unicode="!" horiz-adv-x="659" d="M16 84q0 59 41.5 108.5t106.5 49.5q53 0 84 -37.5t31 -87.5q0 -59 -41.5 -108.5t-106.5 -49.5q-53 0 -84 37.5t-31 87.5zM209 418q0 6 12 67q24 127 64 337t67 349q8 38 13.5 61.5t16.5 59t22 58t29 48.5t39.5 40.5t51.5 24.5t66 10q16 0 33 -3.5t37.5 -11t35.5 -23.5 t25.5 -38t9 -57t-15.5 -78q-27 -81 -93 -212.5t-160.5 -309.5t-150.5 -294q-1 -2 -4.5 -10t-5 -10.5t-5 -9.5t-5 -9.5t-5.5 -8t-6.5 -7.5t-7 -5.5t-8.5 -5t-9 -2.5t-11 -1q-35 0 -35 41z" />
<glyph unicode="&#x22;" horiz-adv-x="884" d="M205 1278v59q3 88 41 123t92 35t81 -38t27 -89q0 -44 -20 -106l-113 -365q-15 -51 -57 -51q-47 0 -47 51zM643 1278v59q4 87 43.5 122.5t89.5 35.5q54 0 81.5 -38.5t27.5 -88.5q0 -41 -21 -106l-112 -365q-17 -51 -58 -51q-47 0 -47 51z" />
<glyph unicode="#" horiz-adv-x="1265" d="M113 653l51 127h270l84 209h-270l51 127h270l121 305h111l-121 -305h246l121 305h110l-121 -305h271l-50 -127h-272l-84 -209h270l-49 -127h-272l-117 -295h-110l116 295h-245l-117 -295h-111l117 295h-270zM545 780h246l83 209h-245z" />
<glyph unicode="$" horiz-adv-x="1032" d="M111 233q0 77 5 109l5 33l4 53q0 1 1 8.5t1.5 10t2.5 8.5t5 8.5t9 5t14 2.5q7 0 12.5 -2.5t8.5 -5.5t5.5 -9t3 -9l1.5 -9l1 -6l5 -37q8 -70 34 -114t80 -66l164 526q-77 77 -113 142t-36 139q0 53 20.5 103.5t59.5 94.5t104 75.5t147 43.5l43 140h66l-41 -134h14 q30 0 88 -8l43 142h66l-47 -152q74 -17 119 -43q18 -11 18 -35q0 -10 -2.5 -21.5t-7 -27t-6.5 -24.5l-19 -74q-1 -4 -3 -16t-3.5 -17t-5 -12t-8.5 -10t-13 -3q-33 0 -36 68q-4 90 -56 137l-139 -454q154 -144 154 -289q0 -122 -91 -226.5t-262 -136.5l-57 -184h-66l54 176 q-5 0 -14.5 -1t-14.5 -1q-51 0 -76 4l-55 -178h-66l58 188q-62 12 -120 36.5t-58 51.5zM369 193q45 -5 55 -5q11 0 51 5l129 419q-24 24 -82 78zM504 1094q0 -65 41 -117l90 293q-64 -22 -97.5 -71.5t-33.5 -104.5zM547 213q70 26 106.5 85.5t36.5 129.5q0 68 -39 125z M592 920q14 -15 82 -78l133 434q-42 10 -74 10q-18 0 -28 -2z" />
<glyph unicode="%" horiz-adv-x="1591" d="M8 -6l1469 1440h147l-1466 -1440h-150zM72 1010q0 120 70 224t177 162t220 58q141 0 221 -83.5t80 -196.5q0 -114 -64 -214.5t-171 -159.5t-228 -59q-149 0 -227 78t-78 191zM258 944q0 -42 11.5 -72t30.5 -44t36.5 -19.5t36.5 -5.5q66 0 131.5 62.5t108 167.5t42.5 218 q0 74 -34 103.5t-80 29.5q-71 0 -137.5 -65.5t-106 -168t-39.5 -206.5zM784 246q0 120 70 224t177 162t220 58q141 0 221 -83.5t80 -196.5q0 -86 -38 -166t-100.5 -138.5t-147.5 -93.5t-176 -35q-149 0 -227.5 78t-78.5 191zM971 180q0 -42 11.5 -72t30 -44t36 -19.5 t36.5 -5.5q66 0 131.5 62.5t108.5 167.5t43 218q0 74 -34.5 104t-80.5 30q-71 0 -137 -66t-105.5 -168.5t-39.5 -206.5z" />
<glyph unicode="&#x26;" horiz-adv-x="1777" d="M94 596q0 161 71.5 321.5t186 282.5t268.5 198.5t310 76.5q128 0 196 -54t68 -137q0 -70 -35.5 -137t-99 -124t-118.5 -95t-128 -80q136 46 256.5 113.5t203.5 155t83 169.5q0 27 -10 62q-15 38 -15 53q0 27 22 50.5t68 23.5q54 0 84.5 -31t30.5 -86q0 -122 -124 -246.5 t-314 -218.5q-361 -180 -770 -209q-6 -125 30 -238.5t103 -198t167.5 -134.5t217.5 -50q99 0 186.5 35.5t144.5 90.5t90 118.5t33 122.5q0 57 -34.5 104.5t-85 74t-99.5 41t-86 14.5q-66 0 -125 -37t-59 -78q0 -14 14 -14q7 0 15 4q15 6 28 6q28 0 54 -25.5t26 -66.5 q0 -47 -33.5 -79t-87.5 -32q-53 0 -89 34t-36 97q0 112 110 201.5t273 89.5q90 0 150.5 -21.5t132.5 -64.5q110 -67 151 -82q39 -14 72 -14q36 0 63 10t46 31.5t28 37t23 44.5l10 22q1 4 5 16t6.5 14.5t10.5 6.5t21 4q39 0 39 -37q0 -20 -10.5 -52.5t-34.5 -73t-58.5 -75 t-88.5 -58t-117 -23.5q-57 0 -129 26q2 -16 2 -49q0 -64 -29.5 -130.5t-86.5 -126.5t-133.5 -107t-178.5 -75t-213 -28q-145 0 -269.5 46t-213.5 128.5t-139 202t-50 260.5zM332 764q110 2 211.5 33t177 81.5t132.5 112.5t86.5 128t29.5 126q0 146 -123 146 q-75 0 -159.5 -48t-159 -129t-128.5 -200.5t-67 -249.5z" />
<glyph unicode="'" horiz-adv-x="466" d="M225 1278v59q4 87 43.5 122.5t89.5 35.5q55 0 82 -37.5t27 -87.5q0 -52 -18 -108l-113 -365q-16 -51 -60 -51q-47 0 -47 51z" />
<glyph unicode="(" horiz-adv-x="1050" d="M129 256q0 202 61 385q83 247 262 452.5t416 325.5q206 103 363 103q14 0 21.5 -1t15.5 -8t8 -20q0 -30 -51 -37q-37 -5 -69.5 -13t-79 -24.5t-91.5 -44.5t-94.5 -66.5t-100.5 -98.5t-98 -134q-121 -191 -214 -499t-93 -510q0 -373 295 -480q3 -1 8.5 -3t8 -3.5t7 -3.5 t6.5 -4l4.5 -4.5t3.5 -6t1 -7.5q0 -29 -47 -29q-95 0 -192.5 57t-175 152.5t-126.5 233.5t-49 288z" />
<glyph unicode=")" horiz-adv-x="907" d="M-369 -446q0 29 52 36q45 7 84.5 17t99 36.5t113 65t116.5 106.5t119 156q121 191 214 499t93 511q0 372 -295 479q-2 1 -6.5 2.5t-6.5 2.5t-6 2.5t-5.5 3t-4.5 3t-4.5 3.5t-3 4.5t-2 5.5t-0.5 6q0 29 48 29q95 0 192.5 -57t174.5 -152.5t126 -233.5t49 -288 q0 -202 -61 -385q-83 -247 -262.5 -453t-415.5 -326q-204 -102 -363 -102q-14 0 -21.5 1t-15.5 8t-8 20z" />
<glyph unicode="*" horiz-adv-x="817" d="M174 1071q0 37 21.5 62.5t56.5 25.5t82 -8l55 -10q30 -6 57 14q-10 35 -45 47l-43 17q-2 1 -16.5 6.5t-20 7.5t-19 8.5t-20 11.5t-17 14t-15 17.5t-8.5 21t-4 25.5q0 30 21.5 49t47.5 19q25 0 43.5 -9.5t31.5 -30.5t18.5 -34t15.5 -41l18 -49q21 -49 47 -51q26 20 11 88 l-9 35q-19 81 6 116t62 35q32 0 56 -15.5t24 -53.5q0 -54 -58 -119l-26 -31q-2 -3 -6.5 -8t-6 -6.5t-4.5 -5t-3.5 -5t-2.5 -4.5t-2 -5.5t-1 -6t-1 -7.5v-8.5v-11.5q24 -1 33.5 1t22 14t14.5 14l45 37q4 3 15 13.5t16.5 14.5t16.5 10t23 8.5t27 2.5q39 0 58.5 -20.5 t19.5 -44.5q0 -38 -22.5 -66.5t-67.5 -28.5q-18 0 -50 5.5t-53 7.5l-38 4q-28 4 -50 -10q1 -6 2.5 -10.5t4 -8.5t4 -6t6 -4.5t6.5 -3.5t8 -3t8 -3l52 -21q3 -1 20.5 -8.5t21 -9.5t18 -8.5t18.5 -10t14.5 -10.5t14 -12.5t9 -14t7 -17.5t1.5 -19q0 -30 -18.5 -51t-54.5 -21 q-15 0 -27 3t-21.5 11t-16 14t-14 20.5t-10.5 20.5t-10.5 24.5t-9.5 23.5l-24 61q-13 29 -39 35q-15 -19 -11 -51l9 -47q32 -187 -78 -187q-28 0 -50 18t-22 54q0 50 66 133l28 37q2 2 6.5 8l6 8t4.5 7t3 8.5v9t-1 12.5q-16 3 -30 -1.5t-19.5 -9t-22.5 -18.5l-45 -41 q-48 -43 -86 -43q-84 0 -84 70z" />
<glyph unicode="+" horiz-adv-x="1329" d="M119 686v166h459v463h174v-463h458v-166h-458v-463h-174v463h-459z" />
<glyph unicode="," d="M-127 -295q0 13 10 22.5t47 28.5q88 44 149.5 106t61.5 113q0 6 -1 11t-3 8.5t-5 7t-5.5 5t-7 4t-7 3t-7.5 2t-7 2.5q-12 3 -24 9q-68 23 -68 96q0 68 50.5 107.5t107.5 39.5q59 0 105 -41.5t46 -113.5q0 -107 -91 -225.5t-244 -188.5q-64 -29 -76 -29t-21.5 8t-9.5 25z " />
<glyph unicode="-" horiz-adv-x="776" d="M98 420l52 149h528l-49 -149h-531z" />
<glyph unicode="." horiz-adv-x="641" d="M10 84q0 59 41.5 108.5t106.5 49.5q53 0 83.5 -37t30.5 -88q0 -59 -41 -108.5t-106 -49.5q-53 0 -84 37.5t-31 87.5z" />
<glyph unicode="/" horiz-adv-x="937" d="M-322 -463l1407 1938l93 -60l-1407 -1937z" />
<glyph unicode="0" d="M82 483q0 141 40 286t113.5 270t168 223.5t212.5 155.5t238 57q97 0 175 -46t125.5 -121.5t72 -166t24.5 -187.5q0 -139 -41.5 -284.5t-116 -271t-170 -225t-212.5 -157t-234 -57.5q-82 0 -149 30t-112 80t-75.5 118t-44.5 142t-14 154zM293 281q0 -77 16 -131t44 -81 t57 -38t63 -11q102 0 208 117t183 288.5t126.5 369t49.5 356.5q0 57 -7 99.5t-24.5 81t-54 59t-90.5 20.5q-97 0 -189 -83.5t-159.5 -213.5t-119 -283.5t-77.5 -298t-26 -251.5z" />
<glyph unicode="1" d="M182 29q0 14 3.5 23t14 13.5t18 6t27 3t29.5 3.5q6 1 17 3q57 9 80 27q42 33 78 148l280 911q21 73 21 84q0 33 -19 33q-25 0 -67 -12l-62 -21q-80 -28 -92 -28q-16 0 -24.5 8t-8.5 20q0 5 1 9.5t3.5 8t5 6.5t7 6t7.5 4.5t9.5 4t9 3.5t10 3.5t9.5 3.5l245 91 q72 26 129 53t80 38t39 11q31 0 31 -25q0 -12 -5.5 -28.5t-19 -52t-24.5 -70.5l-316 -1018q-32 -102 -32 -156q0 -58 110 -69q53 -5 67.5 -10.5t14.5 -24.5q0 -14 -4.5 -23t-14 -12t-14 -3.5t-14.5 -0.5q-42 0 -131.5 9t-153.5 9q-32 0 -127.5 -9t-177.5 -9h-5h-6t-6.5 0.5 t-6.5 1.5t-5.5 3t-5 5.5t-3 8t-1.5 10.5z" />
<glyph unicode="2" d="M-51 23q0 30 96 116t383 312q192 152 253 207q204 184 254 351q19 62 19 126q0 121 -71.5 184t-175.5 63q-34 0 -70.5 -9t-81.5 -30t-92 -64.5t-88 -104.5l-37 -56q-18 -24 -35 -24q-9 0 -16.5 8t-7.5 20q0 29 28 74q23 38 50 72.5t71 74t93.5 67.5t118.5 46.5t146 18.5 q186 0 301 -101.5t115 -261.5q0 -79 -27 -149t-75.5 -125.5t-98 -95.5t-112.5 -78l-221 -136q-246 -150 -443 -325q34 4 105 4h426q37 0 65 6.5t44 14t31 25t20 25.5t16 29q2 4 6.5 12.5t6 12t5.5 10t7 9t7 6t8.5 4.5t10.5 1q29 0 29 -28q0 -10 -4 -24t-11 -31.5 t-21.5 -58.5t-29.5 -87l-28 -86q-7 -21 -17.5 -32t-32.5 -15t-40 -4t-62 2t-76 2h-694q-2 0 -12 -0.5t-13.5 0t-10 2.5t-9 7.5t-2.5 13.5z" />
<glyph unicode="3" d="M-16 -76q0 45 28 69.5t68 24.5q10 0 19.5 -1.5t17 -3t15.5 -6.5t13 -7.5t13 -9.5t11 -9t10.5 -11t8.5 -11t9 -11.5t8 -10.5q39 -53 66 -71t71 -18q121 0 232.5 80t180 212t68.5 274q0 139 -69.5 221t-190.5 82q-66 0 -126.5 -19.5t-99 -39t-50.5 -19.5q-10 0 -19.5 7 t-9.5 24q0 14 8 25.5t30 23.5t42 20.5t62 25.5t73 30q73 32 123.5 58.5t106 65t89.5 78.5t56 94.5t22 116.5q0 48 -15 84t-33.5 52.5t-44 26.5t-38 11.5t-24.5 1.5q-142 0 -254 -129l-37 -43q-19 -24 -37 -24q-27 0 -27 26q0 31 27 58l43 49q54 62 148 108t213 46 q86 0 151.5 -23.5t100.5 -61.5t52 -78t17 -81q0 -36 -10 -69.5t-24.5 -61.5t-42 -56t-52.5 -50t-65.5 -46.5t-71.5 -41.5t-80.5 -40.5t-83 -38t-87.5 -37.5l-42 -18q70 10 125 10q184 0 290.5 -98t106.5 -248q0 -127 -72 -248.5t-186.5 -210t-262 -142.5t-294.5 -54 q-140 0 -208 43t-68 100z" />
<glyph unicode="4" d="M-63 356l30 113l1071 977h201l-289 -977h256l-32 -113h-256l-160 -538h-226l160 538h-755zM82 469h643l238 803z" />
<glyph unicode="5" d="M-131 -215q0 31 35 33l47 2q79 3 135.5 7.5t150.5 23t173 49.5q109 43 191.5 106t129.5 132.5t69.5 138.5t22.5 135q0 64 -17.5 115.5t-45 85.5t-67 59t-77 38t-82 21t-74 10t-61.5 2q-19 0 -57 -1t-61 -1h-9h-9.5t-8.5 0.5t-9 1.5t-7 3t-6 5t-3.5 7t-1.5 10q0 19 11 49 l192 539q13 38 28.5 50t55.5 17l707 70q24 3 28 -12.5t-4 -30.5l-47 -139q-10 -29 -23 -37.5t-42 -11.5l-644 -68q-21 -3 -29 -5t-17.5 -11.5t-16.5 -30.5l-68 -197q52 6 107 6q119 0 215.5 -21.5t160 -60t109 -85.5t70 -104t35 -108.5t10.5 -105.5q0 -105 -40 -205.5 t-128 -193.5t-215 -163.5t-314.5 -112.5t-412.5 -42h-43q-43 0 -43 31z" />
<glyph unicode="6" d="M57 508q0 407 324 721q176 170 385.5 264.5t447.5 144.5q32 7 51.5 10.5t52.5 9t53.5 6t42 -1.5t32 -10.5t10.5 -23.5q0 -39 -59 -45q-432 -61 -695 -328q-165 -165 -254.5 -382t-89.5 -433q0 -80 11.5 -145.5t31.5 -108t44 -73t53 -46.5t54 -23t50 -7q75 0 139 58 t103 143.5t60.5 175t21.5 161.5q0 51 -13.5 103.5t-39 99t-69.5 76t-99 29.5q-40 0 -64 -9q-15 -4 -29.5 -12t-21.5 -8q-10 0 -18.5 8t-8.5 19q0 31 69 63.5t161 32.5q104 0 188.5 -35t137 -93t80.5 -131t28 -153q0 -118 -50.5 -229t-135 -194t-201.5 -133t-244 -50 q-67 0 -134 14t-142 52t-131.5 97t-94 159t-37.5 227z" />
<glyph unicode="7" d="M223 1251l29 176l1.5 9t1 6.5t1 5t2 3.5t2 2t3 0.5t4 0.5h5.5h7q12 0 37 -10t59 -10h823q14 0 35.5 2t36 2.5t28.5 0t21.5 -6.5t7.5 -17q0 -15 -6 -25.5t-26 -35t-48.5 -61t-84.5 -123t-122 -201.5q-36 -61 -73 -128t-86 -158.5t-70 -129.5q-70 -128 -219 -389t-221 -393 h-92l774 1353q21 31 16 47t-18.5 20.5t-42.5 4.5l-732 -12q-35 0 -46.5 17t-6.5 50z" />
<glyph unicode="8" d="M35 352q0 67 26 123t68.5 96.5t107.5 75t130 58t149 45.5q-242 125 -242 311q0 75 36 148t102.5 133t173 96.5t235.5 36.5q221 0 348 -95.5t127 -230.5q0 -62 -26.5 -113t-66 -85t-104.5 -63t-122 -46.5t-137 -36.5q79 -43 130 -78t94.5 -80t64 -98t20.5 -119 q0 -126 -79 -234.5t-215 -172.5t-296 -64q-125 0 -227 34.5t-165.5 91.5t-97.5 126t-34 141zM238 322q0 -57 17.5 -108t53 -94.5t97.5 -69t143 -25.5q154 0 261.5 97t107.5 240q0 207 -343 347q-93 -27 -161 -71t-105 -96.5t-54 -107t-17 -112.5zM500 1130q0 -50 20 -92 t61 -77t84 -60.5t107 -56.5q65 15 117.5 40.5t85.5 52t57.5 59.5t36 59.5t18.5 55t8 42t1 25.5q0 105 -75.5 168t-193.5 63q-77 0 -140.5 -24.5t-103.5 -64.5t-61.5 -89t-21.5 -101z" />
<glyph unicode="9" d="M-127 -195q0 38 59 45q86 13 160 31.5t168.5 54t188.5 97.5t178 147q159 161 251.5 376t92.5 445q0 91 -16.5 163t-42 115t-59 71t-64.5 38.5t-62 10.5q-84 0 -160.5 -82.5t-120 -204.5t-43.5 -242q0 -50 11 -101.5t35 -102.5t69.5 -83t106.5 -32q47 0 90 20 q23 13 34 7.5t14 -11.5t3 -12q0 -33 -65 -65.5t-164 -32.5q-104 0 -188.5 36t-137 95t-81 131.5t-28.5 148.5q0 116 50.5 227t134.5 194.5t201.5 134.5t244.5 51q46 0 94 -7t101.5 -25t102 -45.5t93 -71t77 -98.5t52 -131.5t19.5 -166.5q0 -416 -324 -725 q-307 -293 -831 -410q-244 -53 -244 10z" />
<glyph unicode=":" horiz-adv-x="645" d="M16 84q0 59 41.5 108.5t106.5 49.5q53 0 84 -37.5t31 -87.5q0 -59 -41.5 -108.5t-106.5 -49.5q-53 0 -84 37.5t-31 87.5zM254 825q0 59 41 108.5t106 49.5q53 0 84 -37.5t31 -87.5q0 -59 -41 -108.5t-106 -49.5q-53 0 -84 37.5t-31 87.5z" />
<glyph unicode=";" horiz-adv-x="700" d="M-117 -295q0 13 10 22.5t48 28.5q87 44 149 106.5t62 112.5q0 30 -31 39q-6 2 -18.5 6.5t-18.5 6.5q-68 23 -68 96q0 68 50.5 107.5t107.5 39.5q59 0 105.5 -41.5t46.5 -113.5q0 -107 -91.5 -225t-244.5 -189q-64 -29 -76 -29t-21.5 8t-9.5 25zM254 825q0 59 41 108.5 t106 49.5q53 0 84 -37.5t31 -87.5q0 -59 -41 -108.5t-106 -49.5q-53 0 -84 37.5t-31 87.5z" />
<glyph unicode="&#x3c;" d="M68 709l1044 659l68 -108l-863 -551l863 -551l-68 -109z" />
<glyph unicode="=" d="M119 516v166h1093v-166h-1093zM119 860v166h1093v-166h-1093z" />
<glyph unicode="&#x3e;" d="M152 158l864 551l-864 551l67 108l1045 -659l-1045 -660z" />
<glyph unicode="?" horiz-adv-x="856" d="M16 84q0 59 41.5 108.5t106.5 49.5q53 0 84 -37.5t31 -87.5q0 -59 -41.5 -108.5t-106.5 -49.5q-53 0 -84 37.5t-31 87.5zM195 428l49 256q3 16 7 41t6 35.5t7 28t11 26t16 22t24.5 23t34.5 21.5t47 26q40 20 54.5 27.5t56.5 29.5t62 36.5t55 39t53.5 46t39 48.5 t29.5 56.5t9 60.5q0 69 -39 103.5t-84 34.5q-37 0 -76.5 -22t-57.5 -40t-44 -47q-45 -51 -83 -80t-79 -29q-66 0 -66 66q0 31 10 62t33.5 62.5t58 55t89 38.5t121.5 15q98 0 174 -31t119.5 -81.5t65.5 -109.5t22 -122q0 -258 -336 -440l-146 -78q-78 -41 -112.5 -87 t-49.5 -109q-3 -13 -5.5 -20.5t-8 -17t-15 -14t-22.5 -4.5q-48 0 -30 72z" />
<glyph unicode="@" horiz-adv-x="1632" d="M119 700q0 210 103 384t280.5 273t390.5 99q160 0 291 -55t212.5 -145t125 -200t43.5 -225t-37.5 -216t-99 -168.5t-139.5 -106.5t-159 -39q-88 0 -138 57.5t-50 137.5q0 43 16 105t35 104q-48 -70 -84.5 -118.5t-88.5 -107.5t-97.5 -94.5t-100.5 -60.5t-108 -25 q-75 0 -112 54t-37 134q0 113 60 227.5t149.5 198t195.5 136.5t197 53q53 0 118 -31q12 -4 17 -4q7 0 14 14q26 37 64 37h96q45 0 29 -41q-8 -23 -17 -47l-10 -24l-74 -220q-34 -102 -46.5 -142.5t-24 -86.5t-11.5 -72q0 -50 25 -69t53 -19q39 0 84.5 30t87 82t69 135 t27.5 177q0 106 -32 196.5t-87 153.5t-128 108t-154.5 66t-167.5 21q-90 0 -182 -24.5t-180.5 -78t-157 -128.5t-110.5 -185.5t-42 -240.5q0 -96 26 -188t80 -174t130.5 -143.5t184 -97.5t233.5 -36q83 0 184 25t190 81l41 -82q-185 -114 -436 -114q-145 0 -268 41.5 t-208.5 111.5t-146.5 162.5t-89.5 195t-28.5 209.5zM573 512q0 -82 66 -82q9 0 19 2t40 19t63.5 47t87 93.5t112.5 151.5q118 173 118 236q0 30 -22 53t-68 23q-71 0 -149 -61.5t-135 -148t-94.5 -179t-37.5 -154.5z" />
<glyph unicode="A" horiz-adv-x="1232" d="M-291 31q0 31 49 37q33 4 63.5 19.5t53 32t56 55.5t53 64.5t63.5 84.5l758 1024q42 57 60 81t33.5 38.5t20 15t19.5 0.5q29 0 35 -21q2 -7 3 -20t1.5 -27t1.5 -45.5t2 -60.5l47 -1080q4 -94 23 -121.5t73 -33.5l31 -4q18 -3 27 -10t9.5 -11.5t0.5 -13.5q0 -35 -45 -35 q-40 0 -117.5 6t-116.5 6q-46 0 -137.5 -6t-138.5 -6q-41 0 -41 35q0 29 35 35l45 6q53 7 69 16q43 25 43 133v23l-10 284h-473l-143 -202q-88 -124 -88 -174q0 -61 98 -76l53 -8q45 -7 45 -35q0 -37 -47 -37q-43 0 -121 5t-116 5q-37 0 -114.5 -5t-119.5 -5q-43 0 -43 31z M362 614h412l-20 549z" />
<glyph unicode="B" horiz-adv-x="1413" d="M-137 35q0 19 11 27t36 10l74 6q24 2 44 15t32 28t23.5 41t15.5 39t10 37l276 929q29 91 29 129q0 60 -88 66q-15 1 -22.5 2t-19 5t-17 12t-5.5 20q0 33 49 33q43 0 128 -5.5t128 -5.5q47 0 157 5.5t257 5.5q37 0 64.5 -1t70.5 -7t75 -16t68 -30.5t59 -48t38.5 -71 t15.5 -97.5q0 -155 -141 -260.5t-365 -122.5l-2 -6q214 -13 314 -104t100 -232q0 -43 -7.5 -83.5t-26.5 -85t-49.5 -83t-79.5 -73.5t-112 -59.5t-151.5 -39t-194.5 -14.5q-73 0 -218 6t-216 6q-51 0 -153 -6t-154 -6q-53 0 -53 35zM350 166q0 -48 40.5 -71t156.5 -23 q121 0 215.5 36t148.5 95t81.5 127.5t27.5 140.5q0 55 -15 99t-36.5 71.5t-58 47.5t-65.5 29.5t-75 14.5t-70 5.5t-65 0.5q-63 0 -127 -6l-129 -430q-29 -92 -29 -137zM530 811h123q80 0 147.5 12t115 31.5t85 47.5t60 58.5t37.5 65.5t20.5 66.5t5.5 64.5q0 41 -10.5 74 t-37 64.5t-81.5 49t-135 17.5q-81 0 -176 -29z" />
<glyph unicode="C" horiz-adv-x="1421" d="M68 506q0 126 48.5 250t133.5 230t205 197t258.5 155t299 100.5t322.5 36.5q52 0 108.5 -12.5t63.5 -43.5q2 -6 1.5 -11.5t-1.5 -10.5q-1 -7 -30 -121l-27 -100q-17 -64 -26.5 -79.5t-30.5 -15.5q-14 0 -21.5 4t-13.5 27t-6 68v69q0 72 -7 103.5t-23 41t-54 9.5 q-176 0 -349 -77t-302.5 -201t-210 -289.5t-80.5 -333.5q0 -200 119 -335.5t296 -135.5q79 0 148 26t113 59.5t85.5 86.5t60 85.5t41.5 76.5q1 3 2 5t2.5 4.5t2.5 4.5q4 8 5 10.5t6 10t9 10t10.5 5.5t14.5 3q31 0 31 -25q0 -28 -8 -55l-29 -100q-9 -32 -18.5 -69.5 t-13.5 -50.5t-9.5 -29.5t-12 -22t-14.5 -12t-24 -13.5q-80 -37 -209 -59.5t-236 -22.5q-129 0 -243.5 38t-200.5 107.5t-136 173.5t-50 228z" />
<glyph unicode="D" horiz-adv-x="1656" d="M-137 35q0 31 47 37q9 1 37 2q69 3 102 33t62 131l274 929q5 17 11.5 38.5t9.5 33t5.5 24.5t2.5 23q0 20 -6 34t-14 21t-23.5 12t-25.5 6l-30 3q-21 1 -31.5 3t-22 11t-11.5 25q0 33 47 33q45 0 133 -5.5t131 -5.5q61 0 185.5 5.5t187.5 5.5q35 0 64 -1t81 -7t95 -16 t97 -31t96.5 -48.5t85.5 -71.5t71.5 -98t46.5 -130t18 -165q0 -281 -203 -528q-155 -188 -344 -263t-430 -75q-70 0 -211 6t-211 6q-45 0 -135.5 -6t-136.5 -6q-55 0 -55 35zM356 166q0 -31 16 -51.5t45 -29t53.5 -11t57.5 -2.5q64 0 118.5 5.5t131 26t140.5 55.5 t134.5 100.5t125.5 154.5q65 105 109 250.5t44 277.5q0 420 -440 420q-49 0 -79.5 -1.5t-56 -8t-39 -13.5t-26 -24.5t-19 -35t-16.5 -50.5l-274 -920q-25 -83 -25 -143z" />
<glyph unicode="E" horiz-adv-x="1275" d="M-137 35q0 33 49 37l72 6q25 2 44.5 14t31 24.5t23 38.5t15.5 39t13 44l276 929q27 88 27 119q0 68 -68 74l-39 4q-19 2 -30 10t-13 14.5t-2 12.5q0 33 55 33q89 -1 291 -6q169 -4 296 -4h50q144 1 334 10q35 0 41 -12q2 -4 2 -9t-2 -11.5t-7.5 -21t-10.5 -28.5 q-13 -39 -28 -91t-19 -63l-15 -45q-11 -36 -20.5 -48.5t-26.5 -12.5q-18 0 -23.5 8t-7.5 24l-6 54q-4 39 -9.5 61.5t-21 47.5t-41.5 37.5t-71 21t-111 8.5h-100q-85 0 -127 -21l-156 -532h226q45 0 82 9t59 20t42.5 32t28 32.5t21.5 33.5l29 47q10 14 17.5 19t23.5 5 q30 0 30 -24q0 -21 -22 -84q-14 -41 -23.5 -66.5t-12.5 -32.5t-7 -18.5t-10 -30.5q-16 -45 -24.5 -78.5t-16.5 -71t-15 -63.5q-10 -39 -18.5 -50t-26.5 -11q-30 0 -30 33l2 67q1 28 -0.5 50t-8.5 37.5t-12 26.5t-19.5 18t-23 10.5t-31.5 5.5t-35 2h-42h-207l-125 -424 q-31 -106 -31 -148q0 -17 5 -28.5t18.5 -18.5t25.5 -11.5t39.5 -6t45.5 -2t58 -0.5h2.5h2.5q78 0 125 2t98.5 10t84 23t67.5 41.5t63 65t59 93.5q18 31 41 31q5 0 11 -2t13 -9.5t7 -19.5q0 -10 -2.5 -20t-7.5 -24.5t-8 -22.5l-35 -113q-7 -23 -17 -59q-16 -57 -26 -66.5 t-54 -9.5h-10q-216 0 -434 6q-258 6 -260 6q-58 0 -172 -6t-172 -6q-53 0 -53 35z" />
<glyph unicode="F" horiz-adv-x="1275" d="M-137 35q0 31 47 37q9 1 37 2q70 3 102.5 33t61.5 131l276 929q27 88 27 119q0 24 -8.5 40t-23.5 23t-26.5 9.5t-27.5 3.5t-23.5 2t-19.5 5t-17.5 12t-5.5 20q0 33 57 33q30 -1 133.5 -3.5t152 -3.5t145.5 -2t163.5 -1t153 2t162.5 6q29 1 48 1q23 1 34 -1q20 -4 20 -19 q0 -5 -2 -11.5t-7.5 -21t-10.5 -28.5q-8 -24 -51 -166l-19 -60q-10 -34 -39 -34q-18 0 -23.5 8.5t-7.5 23.5l-6 54q-4 42 -13 68t-31.5 53t-68.5 40t-116 13h-88q-108 0 -162 -15l-158 -536h226q46 0 83 8.5t59.5 20.5t42.5 32.5t30 36t24.5 40t22.5 36.5q16 24 41 24 q28 0 28 -18q0 -28 -10 -57q-5 -14 -18 -48t-27 -75.5t-29 -91.5q-18 -62 -29 -113t-24 -94q-9 -25 -20 -30q-7 -3 -17 -3q-17 0 -25 11.5t-7.5 27.5t0.5 31l4 59q1 18 0 33t-5.5 26.5t-8.5 20.5t-14.5 15.5t-16.5 11t-21.5 7.5t-22.5 4.5t-26.5 2t-27 0.5h-29.5h-207 l-137 -461q-27 -81 -27 -111q0 -62 82 -69l63 -4q15 0 30 -8t15 -27q0 -39 -53 -39q-48 0 -142.5 6t-141.5 6q-45 0 -136 -6t-137 -6q-17 0 -27.5 1.5t-20 10t-9.5 23.5z" />
<glyph unicode="G" horiz-adv-x="1560" d="M68 535q0 156 69 301.5t191 260t281.5 200.5t348.5 132t383 46q85 0 175 -15t90 -47q0 -3 -19 -67q-20 -62 -37 -104.5t-28 -80.5q-4 -14 -6 -19.5t-8.5 -21t-12.5 -22.5t-16.5 -14t-22.5 -7q-11 0 -17.5 5.5t-8.5 15.5t-2 19t1 23t1 19l2 62q2 41 2 72q0 20 -1 37 q-2 40 -29 56.5t-97 16.5q-104 0 -216.5 -29.5t-221.5 -83t-207.5 -134t-173 -177t-118.5 -219t-44 -252.5q0 -82 19 -151.5t49.5 -117.5t73 -86t86 -60.5t92 -36.5t88.5 -19.5t77 -5.5q58 0 94 7t56 26t28 36t19 52l82 286q12 60 12 68q0 31 -17 53t-51 25l-49 4 q-32 3 -43.5 10t-11.5 27q0 34 47 34t138 -5t136 -5q44 0 133 6.5t134 6.5q13 0 21 -1t17 -9.5t9 -24.5q0 -9 -3.5 -16t-7.5 -10.5t-12.5 -6t-13.5 -3t-14.5 -1t-12.5 -0.5l-49 -6q-46 -5 -72.5 -46.5t-44.5 -109.5l-88 -317q-13 -45 -22 -60.5t-31 -25.5q-59 -28 -206 -47 t-228 -19q-138 0 -254 33t-195.5 88.5t-135 129.5t-81.5 156t-26 169z" />
<glyph unicode="H" horiz-adv-x="1689" d="M-137 35q0 31 47 37l74 6q24 2 44 15t32 28t23.5 41t15.5 39t10 37l276 929q29 95 29 119t-8.5 40t-24.5 23t-27.5 9.5t-27.5 3.5q-15 1 -22.5 2t-19 5t-17 12t-5.5 20q0 33 47 33q43 0 126.5 -5.5t125.5 -5.5q43 0 130 5.5t130 5.5q29 0 37 -8t8 -23q0 -16 -10.5 -26 t-42.5 -13l-41 -4q-20 -2 -35.5 -7t-27.5 -16.5t-19 -19t-15.5 -29t-11.5 -31t-12 -38.5l-125 -418h711l106 366q31 102 31 119q0 70 -90 76q-44 3 -55 15q-8 9 -8 24q0 33 49 33q42 0 125.5 -5.5t124.5 -5.5q43 0 129.5 5.5t130.5 5.5q47 0 47 -31q0 -35 -53 -39l-43 -4 q-53 -5 -76 -36.5t-45 -104.5l-285 -961q-5 -18 -11.5 -41t-9 -32t-4.5 -19.5t-2 -18.5q0 -12 3 -22t6.5 -17t12.5 -12.5t13.5 -8t17 -5t16 -3t17.5 -2t15 -1.5q17 -1 25.5 -2t20.5 -4.5t17.5 -11t5.5 -19.5q0 -39 -53 -39q-45 0 -133.5 6t-132.5 6q-45 0 -136 -6t-139 -6 q-53 0 -53 35q0 31 47 37l74 6q25 2 46 16t32.5 28t23 41t15 38.5t10.5 36.5l141 481h-708l-135 -461q-3 -10 -11 -34.5t-12 -42t-4 -34.5q0 -15 2.5 -24.5t11 -20.5t29.5 -17.5t55 -8.5q18 -1 27 -2t21.5 -4.5t18 -11t5.5 -19.5q0 -39 -55 -39q-44 0 -132.5 6t-132.5 6 t-135 -6t-139 -6q-53 0 -53 35z" />
<glyph unicode="I" horiz-adv-x="731" d="M-137 35q0 33 49 37l72 6q13 1 24.5 5.5t20.5 9t18 14t15 15.5t13 19.5t10 19t8.5 21.5t6.5 19.5t6 20.5l5 16l276 929q27 88 27 119q0 24 -8.5 40t-23.5 23t-26.5 9.5t-27.5 3.5q-15 1 -22.5 2t-19 5t-17 12t-5.5 20q0 33 47 33q43 0 126 -5.5t124 -5.5q43 0 130 5.5 t132 5.5t45 -31q0 -35 -53 -39l-41 -4q-24 -2 -42 -11.5t-29 -19t-21.5 -31.5t-15 -35t-13.5 -44l-286 -961q-27 -81 -27 -111t20.5 -48t55.5 -21l47 -4l21 -3t16.5 -9.5t9.5 -22.5q0 -39 -51 -39q-45 0 -133.5 6t-132.5 6q-45 0 -137 -6t-138 -6q-55 0 -55 35z" />
<glyph unicode="J" horiz-adv-x="755" d="M-485 -305q0 51 30.5 84t81.5 33q30 0 52.5 -11t38 -34.5t23.5 -41.5t19 -51q14 -43 29 -56t41 -13q66 0 110 64t78 169q8 27 22 77.5t19 68.5t16.5 55t16.5 55l320 1071q26 95 26 121q0 21 -6 35.5t-17.5 21.5t-21.5 10t-24 5l-52 6q-43 5 -43 37q0 33 54 33 q44 0 130 -5.5t128 -5.5q41 0 126.5 5.5t131.5 5.5q49 0 49 -31q0 -35 -53 -39l-41 -4q-13 -1 -24.5 -4.5t-20 -7t-17 -11.5t-14 -13t-11.5 -16t-9 -16t-7.5 -18.5t-6 -17.5t-6 -19t-5.5 -18l-281 -943q-24 -82 -38 -126.5t-42.5 -118t-56 -123.5t-71 -109.5t-95.5 -109.5 q-169 -162 -348 -162q-90 0 -160.5 42.5t-70.5 125.5z" />
<glyph unicode="K" horiz-adv-x="1449" d="M-137 35q0 19 11 27t36 10l72 6q13 1 24.5 5.5t20.5 9t18 14t15 15.5t13 19.5t10 19t8.5 21.5t6.5 19.5t6 20.5l5 16l276 929q27 88 27 119q0 24 -8.5 40t-23.5 23t-26.5 9.5t-27.5 3.5q-15 1 -22.5 2t-19 5t-17 12t-5.5 20q0 33 47 33q43 0 126.5 -5.5t123.5 -5.5 q43 0 130 5.5t132 5.5t45 -31q0 -35 -53 -39l-41 -4q-47 -4 -73 -35.5t-48 -105.5l-147 -494l325 248q184 140 273.5 215t107 96.5t17.5 40.5q0 7 -1.5 11t-7.5 10.5t-22 10t-41 3.5h-35q-18 0 -33.5 10.5t-15.5 30.5q0 33 55 33q248 -11 263 -11q35 0 104 5.5t104 5.5 q52 0 52 -29q0 -38 -43 -43l-54 -8q-38 -6 -83.5 -24.5t-82.5 -39t-88.5 -55.5t-80 -56t-80 -61t-66.5 -51l-260 -199q23 -24 45 -69l287 -576q18 -35 33.5 -61t31 -41.5t27 -25.5t26.5 -14.5t24 -6t26 -2.5t26 -2q43 -4 43 -33q0 -37 -49 -37q-27 0 -78.5 3t-76.5 3 q-34 0 -104 -4q-35 -2 -52.5 -2t-18.5 2q-22 4 -37 23t-42 75l-295 627q-8 -5 -59.5 -37.5t-92.5 -60.5l-110 -371q-27 -81 -27 -111q0 -62 76 -69q10 -1 28 -2t27 -2.5t19.5 -5t15 -10.5t4.5 -19q0 -39 -53 -39q-45 0 -133 6t-132 6q-46 0 -137.5 -6t-138.5 -6 q-51 0 -51 35z" />
<glyph unicode="L" horiz-adv-x="1099" d="M-137 35q0 15 8.5 23.5t16.5 10.5t24 3l57 6q34 3 58 16t38 34t22.5 43.5t17.5 51.5q2 10 4 15l276 929q29 101 29 119q0 24 -8.5 40t-24.5 23t-27.5 9.5t-27.5 3.5q-15 1 -22.5 2t-19 5t-17 12t-5.5 20q0 33 51 33q42 0 124.5 -5.5t123.5 -5.5q45 0 136 5.5t139 5.5 q45 0 45 -31q0 -12 -6.5 -20t-20 -12t-25 -5.5t-30 -3t-27.5 -2.5q-24 -3 -42 -12t-28.5 -18t-21 -31t-15 -34.5t-14.5 -45.5l-280 -940q-33 -109 -33 -154q0 -23 14 -34.5t27 -13t35 -1.5h127q136 0 225 30t141 121l33 58l21 32l4 8t5 8.5t5.5 6t9 5t12.5 1.5 q14 0 22.5 -7.5t10.5 -13.5t2 -10q0 -27 -76 -256q-14 -41 -26 -50t-39 -9q-200 0 -397 6q-222 6 -224 6q-59 0 -177 -6t-179 -6q-51 0 -51 35z" />
<glyph unicode="M" horiz-adv-x="1810" d="M-178 31q0 6 1 11t2.5 8.5t3 6.5t5 5t5.5 3t6 2t5.5 1.5t5.5 1.5h5l37 4q7 1 21 2q24 2 35 4t29.5 12t30.5 28.5t31 53t39.5 86t48.5 127.5l270 748q54 150 54 176q0 25 -16.5 35.5t-55.5 13.5l-49 4q-40 3 -49 14q-6 8 -6 19q0 37 67 37q32 0 95.5 -2t93.5 -2 q27 0 83.5 2t86.5 2q24 0 32.5 -5t14 -29.5t8.5 -84.5l45 -946l661 1007q28 40 38 49t34 9q28 0 82 -3.5t80 -3.5q31 0 95 3.5t99 3.5q41 0 41 -33q0 -13 -8.5 -24.5t-30.5 -12.5l-55 -4q-59 -5 -83.5 -35.5t-49.5 -130.5l-203 -842q-41 -170 -43 -198v-11q0 -34 14.5 -48 t45.5 -19l53 -8q1 0 5.5 -0.5t6.5 -0.5t6 -1t6.5 -1.5t6 -2t5.5 -3.5l4.5 -4.5t3.5 -5.5t2 -7t1 -9q0 -33 -51 -33q-44 0 -131.5 6t-130.5 6q-46 0 -140 -6t-141 -6q-51 0 -51 33q0 21 15 29t28 8l53 4q33 2 59.5 17.5t43.5 35.5t31.5 54.5t22 59.5t17.5 66l236 948h-8 l-660 -989q-39 -59 -91 -138q-55 -84 -67.5 -98t-34.5 -14h-6h-2q-12 0 -18.5 1.5t-14 14t-8.5 36.5v59q0 35 -10 272l-37 846l-10 2l-278 -784q-72 -203 -72 -291q0 -18 3.5 -32.5t12 -24t14.5 -15.5t20.5 -10.5t20 -6t22.5 -4.5t20 -3l36 -6q16 -3 22.5 -9.5t6.5 -23.5 t-10.5 -26t-19 -10t-23.5 -1q-35 0 -103.5 5t-103.5 5t-104 -5t-103 -5q-36 0 -46.5 7.5t-10.5 23.5z" />
<glyph unicode="N" horiz-adv-x="1548" d="M-147 31q0 11 3 17.5t11 10.5t14 5.5t21.5 4t23.5 3.5l54 10q56 10 90.5 87t115.5 343l179 582q53 175 53 209q0 45 -58 51l-45 4q-51 4 -51 37q0 39 55 39q28 0 81.5 -2t78.5 -2q24 0 75 2t79 2q26 0 31.5 -7.5t35.5 -76.5l441 -996l219 719q51 170 51 213q0 23 -4 36.5 t-19 20.5t-27 9t-46 6l-35 4l-8 1q-9 1 -13 2t-10 4.5t-9 10t-3 15.5q0 39 51 39q35 0 103 -5.5t102 -5.5q29 0 89.5 5.5t92.5 5.5q41 0 41 -33q0 -41 -45 -43l-43 -2q-55 -3 -80.5 -27t-42.5 -67q-29 -72 -90 -275l-244 -807q-12 -40 -45 -157l-10 -35q-9 -31 -37 -31 q-12 0 -19.5 5t-15.5 24l-14 32q-4 9 -14 36t-27 68.5t-45 104.5l-459 1002q-54 -157 -79 -238l-134 -448q-2 -8 -21.5 -69.5t-27 -89t-21 -77.5t-19 -84.5t-5.5 -60.5q0 -27 7.5 -44.5t24 -25t27 -10t31.5 -4.5l35 -4q43 -5 43 -35q0 -39 -49 -39q-34 0 -97.5 5t-93.5 5 q-35 0 -104.5 -5t-105.5 -5q-43 0 -43 31z" />
<glyph unicode="O" horiz-adv-x="1675" d="M68 633q0 120 42.5 242t122.5 229t186.5 190.5t245 132t287.5 48.5q189 0 340 -89.5t233.5 -240t82.5 -332.5q0 -135 -47.5 -265t-132 -235t-194.5 -185.5t-241.5 -124.5t-265.5 -44q-157 0 -285.5 59t-208.5 155.5t-122.5 215t-42.5 244.5zM326 492q0 -218 109.5 -339.5 t285.5 -121.5q177 0 323 133t226 347.5t80 457.5q0 194 -102 314t-275 120q-113 0 -216.5 -56t-180.5 -149t-134.5 -211t-86.5 -246t-29 -249z" />
<glyph unicode="P" horiz-adv-x="1366" d="M-137 35q0 33 49 37l72 6q24 2 43.5 14t31 25t23 39t16 39.5t13.5 42.5l276 929q27 88 27 119q0 24 -8.5 40t-23.5 23t-26.5 9.5t-27.5 3.5q-15 1 -22.5 2t-19 5t-17 12t-5.5 20q0 33 51 33q55 0 159.5 -4.5t154.5 -4.5q62 0 188.5 4.5t190.5 4.5q96 0 169.5 -18.5 t117 -48t70.5 -71.5t36.5 -82.5t9.5 -87.5q0 -30 -6.5 -63.5t-22 -76.5t-44.5 -84.5t-70 -83.5t-103.5 -77.5t-139.5 -63.5t-184 -43.5t-231 -15.5h-135l-108 -360q-27 -81 -27 -111q0 -19 8 -33t17 -21t27.5 -11t26.5 -4.5t27 -1.5q56 -3 68 -14q10 -8 10 -23 q0 -39 -59 -39q-46 0 -136.5 6t-135.5 6t-135.5 -6t-135.5 -6q-59 0 -59 35zM498 692h116q111 0 204 29.5t153.5 76.5t102.5 108t60.5 123t18.5 122q0 41 -9.5 74t-25 55t-40 38t-47.5 25t-55 13.5t-57 6t-57 1.5q-117 0 -170 -8z" />
<glyph unicode="Q" horiz-adv-x="1673" d="M-78 -336q0 50 81 94.5t220 57.5q224 108 434 147q-132 9 -244 67t-187 149t-117.5 208.5t-42.5 245.5q0 171 75 328.5t197 269t283 178t329 66.5q125 0 232.5 -37.5t184 -101t131.5 -147.5t81.5 -178t26.5 -192q0 -52 -5.5 -104t-24.5 -125t-50 -139t-88 -139.5 t-131.5 -134t-187 -115.5t-249.5 -91q-82 -21 -128 -34t-126.5 -42.5t-156.5 -66.5q90 0 160 -16t163 -50q6 -2 32.5 -12t34.5 -13t32.5 -11.5t34.5 -11.5t31.5 -10t33.5 -9.5t31 -7t32.5 -6.5t29.5 -3.5t30 -1.5q101 0 182.5 49t124.5 113q0 1 4 6t5 6.5t4.5 6t6 6t6 4 t7.5 3.5t8 1q25 0 25 -31q0 -50 -84 -141q-103 -108 -218.5 -163.5t-216.5 -55.5q-95 0 -183 37.5t-204 109.5q-18 12 -58 38t-58 37t-47 26.5t-50.5 21.5t-42.5 6q-15 0 -31 -4t-33 -13.5t-28 -16.5t-30 -20t-25 -17q-119 -78 -174 -78q-72 0 -72 57zM324 492 q0 -218 109.5 -339.5t285.5 -121.5q135 0 254 78t200.5 208t128 300t46.5 352q0 204 -108.5 319t-281.5 115q-109 0 -209.5 -54.5t-176 -146.5t-132.5 -209t-86.5 -246.5t-29.5 -254.5z" />
<glyph unicode="R" horiz-adv-x="1386" d="M-137 35q0 31 47 37l74 6q24 2 45 16t33 29.5t24 42.5t15.5 38.5t9.5 33.5l274 929q29 101 29 119q0 24 -8.5 40t-24.5 23t-27.5 9.5t-27.5 3.5q-15 1 -22.5 2t-19 5t-17 12t-5.5 20q0 33 49 33t146 -5.5t145 -5.5q66 0 199 5.5t200 5.5q92 0 162.5 -16.5t113 -43t69 -64 t36 -74t9.5 -79.5q0 -69 -30.5 -137.5t-90.5 -132t-162 -115.5t-234 -80v-6q22 -8 32.5 -25t35.5 -77l152 -373q2 -6 11.5 -29t12.5 -29t12 -23t16.5 -23t19.5 -15.5t27 -13t34 -4.5l37 -2q45 0 45 -37q0 -35 -49 -35q-31 0 -91 3t-88 3q-19 0 -58 -3t-60 -3 q-43 0 -58.5 14.5t-36.5 69.5l-163 432q-27 69 -43 89t-41 20q-23 0 -60 -5t-90 -6l-104 -356q-3 -10 -11 -34.5t-12 -42t-4 -34.5q0 -15 2.5 -24.5t11 -20.5t29.5 -17.5t55 -8.5q18 -1 27 -2t21.5 -4.5t18 -11t5.5 -19.5q0 -39 -49 -39q-45 0 -135.5 6t-135.5 6 q-44 0 -135 -6t-139 -6q-53 0 -53 35zM494 690h16q108 0 206 25q104 27 179.5 73.5t129.5 107.5t81 128t27 135q0 203 -252 203q-110 0 -189 -10z" />
<glyph unicode="S" horiz-adv-x="1071" d="M-35 88q0 71 12 176l7 66q0 1 0.5 8t1 10.5t2 10t4.5 9.5t6.5 7t10 6t14.5 2q33 0 40 -49l7 -47q16 -128 83 -192t203 -64q150 0 241 86t91 213q0 31 -5 58.5t-20.5 56t-25.5 46.5t-39 49t-39.5 42.5t-49.5 48t-48 45.5q-47 46 -70 69.5t-60 68.5t-55 79t-32.5 81.5 t-14.5 96.5q0 72 32.5 142t94 129.5t164 96t228.5 36.5q105 0 198 -26t135 -52q25 -14 25 -43q0 -4 -21 -92l-22 -93q-1 -3 -3 -11t-2.5 -11.5t-2.5 -10.5t-3.5 -10.5t-4 -9t-5 -8t-6 -5.5t-7.5 -4t-9 -1q-25 0 -33 20.5t-12 63.5q-3 32 -7 52.5t-19 56t-37.5 57t-66.5 38.5 t-104 17q-127 0 -206.5 -69t-79.5 -171q0 -75 43 -136.5t147 -158.5q116 -109 148 -145q119 -132 130 -269q1 -15 1 -30q0 -83 -37.5 -164.5t-106 -149t-178.5 -109.5t-242 -42q-50 0 -136.5 12.5t-172.5 44t-86 72.5z" />
<glyph unicode="T" horiz-adv-x="1312" d="M129 1145q0 5 2 12.5t5 15t9.5 25.5t12.5 35q16 44 36 102.5t31 88.5t24 60.5t25.5 43t26.5 12.5q15 0 23 -8.5t9 -16.5t1 -22q3 -36 22.5 -47.5t87.5 -11.5h861q53 0 78 9.5t53 43.5q8 10 16 20.5t10 14t6.5 6.5t8 3.5t12.5 0.5t15 -2q4 0 10 -12q3 -7 4 -17 q0 -7 -2 -16q-3 -12 -8.5 -29t-20.5 -61t-33 -101l-43 -135q-13 -43 -47 -43q-33 0 -33 41v31q0 12 1 34t1 33q0 23 -1.5 34.5t-8.5 26t-22 21t-43 11t-70 4.5h-187q-3 0 -7 0.5t-6 0.5t-5.5 -1t-5.5 -3t-4.5 -6t-4.5 -10.5t-5 -15.5l-314 -1059q-26 -89 -26 -111 q0 -30 20 -48t55 -21l47 -4q14 -2 21.5 -3t17 -9.5t9.5 -22.5q0 -39 -54 -39q-45 0 -132.5 6t-131.5 6q-45 0 -135 -6t-135 -6q-60 0 -60 35q0 33 50 37l71 6q29 2 51.5 17t37 42t22 48t16.5 53l322 1085q2 6 2 10.5t-0.5 8t-3 5.5t-4 3t-5.5 1.5t-6 0.5h-6.5h-5.5h-139 q-62 0 -111 -11.5t-80 -27t-60 -46t-44 -52t-39 -62.5q-9 -16 -13.5 -22.5t-14 -12.5t-23.5 -6q-33 0 -33 33z" />
<glyph unicode="U" horiz-adv-x="1495" d="M94 289q0 19 1.5 39.5t6 43t7.5 38t10.5 41.5t10.5 36t12 38t10 32l194 614q27 82 27 119q0 27 -20 44.5t-44 19.5l-41 4q-1 0 -7 0.5t-9.5 1.5t-9.5 2.5t-9.5 3.5t-7.5 5.5t-6 9t-2 12.5q0 41 55 41q48 0 137 -5.5t134 -5.5q43 0 129.5 5.5t130.5 5.5q28 0 38.5 -9 t10.5 -26q0 -32 -43 -37l-49 -6q-28 -4 -46.5 -8t-34.5 -15t-25 -20t-20 -34t-17.5 -43.5t-20.5 -61.5l-205 -646q-57 -181 -57 -258q0 -115 89 -177t226 -62q109 0 194.5 33t134.5 72t93 118.5t60 123.5t44 137q2 5 2.5 7.5t2 7l2.5 7.5l145 473q17 51 42.5 147.5 t25.5 128.5q0 33 -23 52.5t-90 23.5l-37 2q-37 2 -37 33q0 37 49 37q37 0 109.5 -5.5t108.5 -5.5q31 0 95 5.5t97 5.5q37 0 37 -29q0 -13 -4 -21.5t-14.5 -12.5t-16.5 -5.5t-22 -3.5l-50 -6q-62 -7 -95.5 -74t-98.5 -278l-168 -547q-21 -68 -34.5 -106t-41.5 -98.5 t-56 -95.5t-76 -77.5t-104 -65.5t-137 -39t-178 -16q-103 0 -194 20.5t-163 60.5t-114.5 104t-42.5 145z" />
<glyph unicode="V" horiz-adv-x="1265" d="M49 1399q0 35 51 35q42 0 124.5 -6.5t123.5 -6.5q42 0 126.5 6.5t127.5 6.5q51 0 51 -33q0 -16 -10 -25t-18 -10.5t-23 -3.5l-51 -6q-23 -3 -32.5 -5.5t-24.5 -12t-21 -29.5t-6 -52q0 -52 8 -122l80 -850l465 678q178 260 178 323q0 19 -7 32.5t-20.5 20t-22.5 9t-24 4.5 l-51 6q-42 6 -51 17q-6 8 -6 20q0 39 45 39q41 0 116 -6.5t113 -6.5q37 0 110.5 6.5t110.5 6.5q28 0 39 -6.5t11 -22.5q0 -15 -7.5 -24.5t-14.5 -11.5t-21 -5l-41 -8q-27 -5 -49.5 -14t-44.5 -26.5t-37 -31.5t-38 -44.5t-36 -49t-42.5 -62t-45.5 -67.5l-676 -973 q-12 -17 -26.5 -38.5t-21 -31.5t-16.5 -22.5t-15.5 -17.5t-13 -10.5t-15 -7t-17.5 -1.5q-33 0 -40.5 25t-18.5 153l-93 998q-13 135 -23 166q-18 49 -65 55l-49 6q-13 1 -17.5 2t-13 4t-11.5 10.5t-3 20.5z" />
<glyph unicode="W" horiz-adv-x="1966" d="M49 1399q0 35 51 35q42 0 124.5 -6.5t123.5 -6.5q36 0 109 6.5t110 6.5q51 0 51 -33q0 -7 -1 -12.5t-5 -9t-6 -6t-8 -5t-7.5 -3t-9.5 -1.5l-8 -2l-34 -6q-43 -7 -57.5 -30.5t-14.5 -68.5q0 -60 12 -122l158 -850l283 391l-93 461q-27 136 -43 171q-21 42 -53 48l-33 6 q-24 4 -30 11.5t-6 25.5q0 35 51 35q39 0 116 -6.5t115 -6.5q34 0 103 6.5t104 6.5q51 0 51 -33q0 -8 -2.5 -14t-5.5 -9.5t-8.5 -6.5t-9 -4t-10 -3t-7.5 -2l-26 -6q-17 -4 -26.5 -7.5t-23 -13.5t-20 -28t-6.5 -45q0 -37 16 -125l45 -224q66 84 152 209.5t86 163.5 q0 17 -5.5 29t-17 19t-19.5 10.5t-22 7.5l-20 6q-17 4 -23 6.5t-14 10t-8 20.5q0 39 45 39q31 0 89.5 -6.5t86.5 -6.5q31 0 96 6.5t98 6.5q28 0 39 -6.5t11 -22.5q0 -10 -2 -17t-8 -11t-8.5 -5.5t-13 -4.5t-11.5 -3l-33 -8q-23 -6 -45.5 -18.5t-46 -33.5t-42.5 -40 t-43.5 -50t-38.5 -50t-39.5 -54t-35.5 -49l-184 -248l114 -528l465 678q178 260 178 323q0 19 -7 32.5t-20.5 20t-22 9t-23.5 4.5l-35 6q-42 6 -51 17q-6 8 -6 20q0 39 45 39q38 0 108.5 -6.5t104.5 -6.5q37 0 110.5 6.5t110.5 6.5q28 0 38.5 -6.5t10.5 -22.5 q0 -15 -7.5 -24.5t-14.5 -11.5t-21 -5l-41 -8q-27 -5 -49.5 -14t-44.5 -26.5t-37 -31.5t-38 -44.5t-36 -49t-42.5 -62t-45.5 -67.5l-676 -973l-45 -68q-25 -39 -42 -50t-38 -11q-12 0 -19.5 2.5t-15 12.5t-10.5 28q-10 55 -10 76v6q2 16 -4 53l-84 432l-350 -481l-45 -68 q-25 -39 -42 -50t-38 -11q-38 0 -45 43q-2 10 -3 22t-1.5 26t-1.5 22q-3 38 -8 65l-170 998q-3 16 -7 41t-6 37t-5.5 31t-6 28.5t-7 23t-8.5 20.5t-10 15t-12.5 12t-15.5 8t-19 5l-45 6q-13 1 -17.5 2t-13 4t-11.5 10.5t-3 20.5z" />
<glyph unicode="X" horiz-adv-x="1484" d="M-158 33q0 35 54 43l51 8q73 11 143.5 59.5t159.5 135.5l420 411l-211 457q-35 76 -56.5 116t-45.5 62t-43 28t-58 9q-43 3 -54 14q-7 9 -7 23q0 16 9 24.5t17 9.5t21 1q53 0 149.5 -6.5t143.5 -6.5q41 0 125 6.5t128 6.5q50 0 50 -35q0 -39 -66 -39h-57q-56 0 -56 -49 q0 -27 37 -113l162 -352l254 266q154 160 154 199q0 38 -58 46q-13 2 -51 5q-5 1 -17 1.5t-16.5 1.5t-12.5 3t-11 5.5t-5.5 9t-2.5 14.5q0 24 15.5 30.5t45.5 6.5q40 0 119.5 -5.5t118.5 -5.5t116 5.5t117 5.5q45 0 45 -31q0 -10 -4 -17.5t-8.5 -11.5t-14.5 -7t-16 -3.5 t-20 -1.5t-19 -2q-58 -6 -104.5 -29.5t-81 -53.5t-104.5 -99q-12 -13 -19 -19l-387 -383l207 -442q7 -16 24.5 -53.5t24 -51t21.5 -42t23.5 -39.5t24.5 -29t30 -25.5t33.5 -14t41.5 -7.5l35 -2q15 0 30 -8.5t15 -26.5q0 -35 -51 -35q-54 0 -157 6t-153 6q-47 0 -142.5 -6 t-143.5 -6q-20 0 -30.5 6t-12.5 12t-2 15q0 16 3 22.5t20 12t54 8.5q65 3 91 15.5t26 51.5q0 17 -7 39.5t-15.5 42t-34.5 74.5l-146 317l-327 -337q-119 -121 -119 -166q0 -18 17.5 -26.5t76.5 -12.5q49 -3 61 -14q9 -8 9 -23q0 -37 -58 -37q-44 0 -126.5 6t-122.5 6 q-37 0 -115 -6t-119 -6q-35 0 -35 33z" />
<glyph unicode="Y" horiz-adv-x="1222" d="M49 1399q0 35 45 35t133.5 -6.5t132.5 -6.5t132 6.5t135 6.5q51 0 51 -37q0 -23 -20 -31t-56 -10l-55 -4q-55 -6 -55 -47q0 -14 26 -91l178 -501l303 348q122 140 158.5 189t36.5 73q0 13 -9.5 20.5t-20.5 9.5t-33 4h-4t-3 0.5t-4 0.5l-47 4q-24 3 -32.5 11t-8.5 22 q0 39 60 39q37 0 109 -5.5t108 -5.5q28 0 86.5 5.5t89.5 5.5q39 0 39 -29q0 -35 -47 -41l-47 -8q-35 -6 -57 -17t-70.5 -57t-133.5 -143l-450 -514l-109 -367q-26 -89 -26 -111q0 -59 73 -69l50 -4q47 -3 47 -35q0 -39 -49 -39q-45 0 -135.5 6t-135.5 6q-44 0 -135 -6 t-139 -6q-54 0 -54 35q0 31 48 37l59 6q15 1 28.5 5t23.5 7.5t20 12.5t16 13.5t13 17.5t10 17.5t9 21t7.5 20t7 23t6.5 22.5l117 397l-197 522q-8 22 -21 58.5t-18.5 50.5t-17 36t-23.5 30.5t-30.5 17t-44.5 10.5l-39 4q-13 1 -22 12t-9 23z" />
<glyph unicode="Z" horiz-adv-x="1214" d="M-158 27q0 3 0.5 6.5t2 7t3 6.5t4.5 7.5t5 7t7 8t7.5 8.5t8.5 10t9 10l1119 1233q10 10 10 19q0 8 -21 8h-254q-141 0 -227 -18t-132 -51.5t-83 -94.5q-4 -7 -19.5 -37.5t-27.5 -43.5t-29 -13q-28 0 -28 28q0 9 3 23.5t7.5 31.5t15.5 57.5t21 80.5q19 80 28 93 q10 14 33 18q10 2 33 2q77 0 252 -5q146 -4 235 -4h33l471 9h2q35 0 35 -27q0 -12 -7 -23.5t-30 -37.5l-1110 -1235q-16 -16 -16 -29q0 -10 35 -10h354q93 0 151 7.5t113 31t95.5 68.5t80.5 120q4 7 9 16.5t7.5 14t6.5 11.5t6 10t5.5 7.5t6.5 6t6.5 3.5t7.5 2.5t9 0.5 q34 0 34 -35q0 -16 -36 -176l-23 -99q-5 -22 -12 -35t-18.5 -18.5t-19.5 -6.5t-24 -1l-51 2q-51 1 -173 2h-137h-167l-569 -4h-19.5t-17 2.5t-17 8.5t-4.5 16z" />
<glyph unicode="[" horiz-adv-x="825" d="M-96 -483q0 26 26 112l506 1696q22 73 37 103t31 38.5t49 8.5h414q43 0 43 -43q0 -10 -3.5 -17.5t-10.5 -12t-13.5 -7t-17.5 -3.5t-17.5 -1.5t-18 0t-14.5 0.5l-86 2q-52 1 -82.5 -13.5t-37.5 -28t-16 -44.5l-1.5 -3t-1 -3t-0.5 -3l-491 -1642q-8 -26 -10 -40.5t3 -29 t24 -20t54 -4.5l99 2q49 0 60 -23q5 -10 5 -22q0 -39 -49 -39h-428q-28 0 -40.5 6.5t-12.5 30.5z" />
<glyph unicode="\" horiz-adv-x="675" d="M190 1450l111 16l246 -1951l-111 -17z" />
<glyph unicode="]" horiz-adv-x="823" d="M-326 -477q0 10 3.5 17.5t10.5 12t13.5 7t17.5 3.5t17.5 1.5t18 0t14.5 -0.5l86 -2q40 -1 66 5t40 21.5t18.5 25t11.5 33.5l1.5 3t1 3t0.5 3l491 1642q6 21 8.5 33t1.5 26t-9.5 21t-26 11.5t-45.5 3.5l-99 -2q-49 0 -60 23q-5 10 -5 22q0 39 49 39h428q28 0 40.5 -6.5 t12.5 -30.5q0 -27 -26 -113l-506 -1696q-22 -72 -37 -102t-30.5 -38.5t-49.5 -8.5h-414q-43 0 -43 43z" />
<glyph unicode="^" horiz-adv-x="1103" d="M119 793l495 682l494 -682h-174l-320 432l-321 -432h-174z" />
<glyph unicode="_" horiz-adv-x="1134" d="M-82 -418h1135v-114h-1135v114z" />
<glyph unicode="`" horiz-adv-x="548" d="M123 1436q0 30 23 53.5t57 23.5q28 0 61 -22l352 -248q4 -3 16.5 -11t19.5 -12.5t13.5 -13t6.5 -16.5q0 -9 -8 -18t-23 -9q-9 0 -61 23l-404 178q-53 23 -53 72z" />
<glyph unicode="a" horiz-adv-x="1335" d="M27 201q0 111 47 232.5t128.5 228t183.5 193t222.5 137t233.5 50.5q53 0 82.5 -8t66.5 -28q33 -17 37 -17t7 0.5t5.5 3t4.5 3.5t4.5 5t3 5.5t3 7t3.5 6.5q4 7 11 20t9.5 16t9 9t15 7t22.5 1h121q33 0 33 -35q0 -13 -16 -61l-127 -377q-75 -225 -98 -303t-23 -117 q0 -25 8 -32t20 -7q50 0 150 131l51 68q12 16 25 16q22 0 22 -26q0 -20 -28 -62q-84 -123 -199.5 -216t-214.5 -93q-80 0 -80 88q0 98 88 356l43 127h-8q-64 -102 -143.5 -199.5t-168.5 -182.5t-183.5 -137t-172.5 -52q-27 0 -51 5t-52 21t-48 41.5t-33.5 70.5t-13.5 104z M264 219q0 -106 94 -106q124 0 332 247q110 129 209.5 283t99.5 231q0 48 -33.5 77.5t-84.5 29.5q-85 0 -177 -53.5t-168.5 -139.5t-139 -186.5t-97.5 -202.5t-35 -180z" />
<glyph unicode="b" horiz-adv-x="1253" d="M57 238q0 89 62 299l203 645q40 128 40 159q0 8 -1.5 14t-3 10t-7 7t-9 4.5t-13 2.5t-15.5 1t-20 0.5t-23 1.5q-27 2 -40 8.5t-13 24.5q0 9 2 16t7.5 11.5t9.5 7.5t13.5 4.5t13.5 2t15.5 1t14.5 0.5l82 4q125 8 200 49q9 5 19.5 11t16 9t11 5t9.5 2q18 0 18 -22 q0 -6 -1.5 -12.5t-6 -20t-9.5 -29t-16 -48t-22 -67.5l-238 -761l6 -3q131 225 286 361.5t294 136.5q108 0 181 -86.5t73 -243.5q0 -156 -70 -302t-184 -251t-263 -168t-302 -63q-152 0 -236 75t-84 204zM250 143q0 -21 5.5 -41.5t19 -42t41.5 -34.5t67 -13q72 0 154 46.5 t155 125.5t134 175t96.5 204t35.5 203q0 52 -12.5 88t-34 52.5t-40.5 23t-40 6.5q-80 0 -185 -95t-190.5 -223.5t-145.5 -263.5t-60 -211z" />
<glyph unicode="c" horiz-adv-x="1046" d="M57 348q0 124 48 239.5t127 202t177.5 151.5t202.5 98.5t199 33.5q119 0 184.5 -40.5t65.5 -100.5q0 -40 -29.5 -69t-83.5 -29q-13 0 -24.5 1.5t-20.5 4t-18 7l-15 7.5t-13 9.5t-10.5 10t-9.5 11t-7.5 10t-6.5 10t-6 8.5l-29 41q-12 18 -18.5 26t-21.5 16t-35 8 q-44 0 -99.5 -33.5t-111 -95t-102.5 -139t-76 -175.5t-29 -194q0 -73 22 -133t76.5 -102t134.5 -42q67 0 132.5 26t116 68t78 70t50.5 57q1 1 5.5 6t8 9t8.5 7t9 3q9 0 18 -5t9 -16q0 -12 -19 -43q-93 -138 -237.5 -225.5t-290.5 -87.5q-163 0 -261 108.5t-98 280.5z" />
<glyph unicode="d" horiz-adv-x="1304" d="M27 236q0 141 74 292t190 270.5t270 197t303 77.5q47 0 86 -14.5t82 -59.5l86 277q11 28 7.5 47t-9 29.5t-18.5 16t-20 6.5t-15 1h-45q-43 2 -43 31q0 37 49 39l45 2q77 4 162 21.5t127 50.5q22 18 39 18q20 0 20 -20q0 -6 -18 -64l-324 -1005q-8 -26 -20 -61t-17.5 -52 t-13.5 -41.5t-11.5 -36t-8 -28t-6.5 -24.5t-4 -18.5t-2.5 -18t-0.5 -15.5q0 -31 23 -31q56 0 145 119l58 77q21 29 34 29q19 0 19 -22q0 -27 -49 -95q-196 -272 -367 -272q-40 0 -69 26t-29 87q0 25 8.5 66t17.5 73.5t19.5 66.5t11.5 37l64 199h-7q-370 -555 -632 -555 q-51 0 -90 18.5t-61.5 47t-36.5 67.5t-18.5 73t-4.5 71zM264 244q0 -119 96 -119q50 0 131.5 60t165 154t159 199t123.5 206t48 163q0 47 -27.5 76t-76.5 29q-80 0 -169 -47.5t-167.5 -128.5t-143 -178.5t-102 -207.5t-37.5 -206z" />
<glyph unicode="e" horiz-adv-x="1103" d="M57 338q0 137 63.5 272.5t164.5 236.5t233.5 163.5t263.5 62.5q134 0 214.5 -65.5t80.5 -169.5q0 -69 -29.5 -126t-85 -99t-125.5 -74t-160.5 -54t-180 -36t-193.5 -23q-8 -36 -8 -82q0 -132 65.5 -195t159.5 -63t186.5 57t149.5 123l27 31q18 18 26 18q23 0 23 -20 q0 -22 -47 -82q-20 -27 -47 -56t-73 -66t-96.5 -65t-118.5 -47.5t-138 -19.5q-164 0 -259.5 103.5t-95.5 275.5zM311 485q95 5 200.5 33.5t178.5 79.5q51 35 86.5 79.5t50 88t20 73.5t5.5 56q0 59 -29.5 88t-79.5 29q-56 0 -118 -32.5t-122.5 -95t-112 -166.5t-79.5 -233z " />
<glyph unicode="f" horiz-adv-x="688" d="M-465 -383q0 39 25.5 73t81.5 34q29 0 50 -10t33.5 -28t18 -32.5t10.5 -34.5q2 -11 4.5 -31t4.5 -27.5t6.5 -19t13 -17.5t22.5 -9q13 -3 29 0q71 11 110 94t119 366l283 990h-168q-11 0 -13 3t1 15l8 35q4 14 23 14h170q18 54 43 107.5t63.5 117t96 119.5t124.5 92 q114 62 228 62q81 0 134.5 -35.5t53.5 -93.5q0 -43 -30 -73t-76 -30q-45 0 -80 26.5t-43 78.5q-8 47 -50 47t-78.5 -33t-68.5 -106.5t-47 -116t-42 -133.5q-6 -20 -9 -29h207q8 0 12 -0.5t7 -5t1 -12.5l-8 -35q-3 -14 -14 -14h-224l-243 -873q-57 -204 -103 -305 q-155 -336 -446 -336q-110 0 -175 51t-65 115z" />
<glyph unicode="g" horiz-adv-x="1107" d="M-168 -211q0 96 99 158t307 96q-58 31 -88.5 67.5t-30.5 92.5q0 111 147 209q-135 95 -135 270q0 172 136 281.5t339 109.5q131 0 252 -59q16 -8 22.5 -11t24.5 -6.5t43 -3.5l219 4q16 0 18 -6q0 -4 -1 -10l-13 -47q-3 -8 -4.5 -11t-7 -6.5t-14.5 -3.5h-174 q76 -92 76 -204q0 -89 -45 -167t-116 -129t-157.5 -80.5t-171.5 -29.5q-45 0 -111.5 15.5t-126.5 56.5q-55 -34 -55 -82q0 -13 4.5 -24t15 -21t22 -18t32.5 -17t38 -15.5t47 -15.5t52 -15.5t60.5 -17t64.5 -18.5q46 -14 74.5 -23t75 -27t76.5 -34.5t65.5 -42.5t56 -54 t35 -66t14.5 -81q0 -66 -37.5 -128.5t-105.5 -112.5t-175 -80.5t-235 -30.5q-133 0 -240 22t-175 56.5t-113.5 80t-64.5 90t-19 89.5zM39 -219q0 -114 114.5 -191t305.5 -77q157 0 244.5 62.5t87.5 152.5q0 66 -40 99t-118 60l-117 39q-22 7 -44.5 15t-69 25.5t-97.5 35.5 q-266 -53 -266 -221zM348 588q0 -114 52 -168.5t122 -54.5q77 0 146.5 58.5t112 160.5t42.5 219q0 100 -48.5 157.5t-127.5 57.5q-81 0 -151 -65.5t-109 -164t-39 -200.5z" />
<glyph unicode="h" horiz-adv-x="1267" d="M-18 20q0 14 12 54l356 1134q5 18 12.5 41.5t10.5 33t5.5 21t2.5 21.5q0 13 -2.5 22t-11 19t-26.5 15t-46 5h-33q-33 0 -33 31q0 19 15.5 29t34.5 10l75 2q135 3 244 51q13 6 26.5 13.5t21 11.5t13.5 4q25 0 25 -27q0 -5 -1 -9.5t-4 -14.5t-7 -20.5t-12 -34.5t-17 -50 l-283 -880q40 66 87 133.5t115 149t135.5 143t146 103.5t147.5 42q107 0 163 -91.5t56 -223.5q0 -91 -28.5 -198t-84.5 -213t-130.5 -193t-175.5 -141t-209 -54q-94 0 -135 39t-41 82q0 37 25 63.5t67 26.5q58 0 86 -59q2 -6 8 -22t10 -23t11.5 -17t18 -14t25.5 -4 q51 0 109.5 87t102.5 208t74 249t30 209q0 74 -28 107t-71 33q-73 0 -176.5 -96t-198 -233t-173.5 -285t-113 -255q-6 -19 -12.5 -30.5t-15.5 -16.5t-16 -6.5t-19 -1.5h-142q-26 0 -26 20z" />
<glyph unicode="i" horiz-adv-x="667" d="M68 748q0 14 26 51q17 25 41.5 54.5t66 70t85.5 72.5t100 54.5t109 22.5q104 0 104 -104q0 -41 -18 -103t-68 -186l-129 -328q-57 -146 -57 -188q0 -26 14 -35q4 -2 16 -2q61 0 181 160q47 63 67 63q9 0 15 -7t6 -17q0 -14 -19 -43q-91 -133 -210 -228.5t-210 -95.5 q-17 0 -34 5t-35 16.5t-29.5 36t-11.5 59.5q0 96 110 366l134 328q43 107 43 133q0 33 -29 33q-31 0 -87.5 -54t-94.5 -102q-3 -4 -9 -11.5t-8.5 -10.5l-7.5 -9t-8 -8.5t-7.5 -6t-7.5 -5t-7.5 -3t-8.5 -1.5q-22 0 -22 23zM471 1323q0 63 39 114.5t108 51.5q49 0 79 -33.5 t30 -85.5q0 -58 -37.5 -111t-111.5 -53q-57 0 -82 33.5t-25 83.5z" />
<glyph unicode="j" horiz-adv-x="610" d="M-428 -395q0 53 31.5 76.5t66.5 23.5q18 0 34 -6.5t26 -13.5t22 -22.5t16.5 -24t14.5 -26.5t12 -22q20 -37 35.5 -50t38.5 -13q56 0 92 78q8 17 16 39.5t15 45t26 85.5t37 123l252 804q53 167 53 197q0 33 -26 33q-28 0 -95 -63t-104 -109q-22 -33 -43 -33q-6 0 -15 6 t-9 19q0 18 26 51q62 79 126 136t116 84t90 38.5t68 11.5q51 0 75.5 -28.5t24.5 -71.5q0 -54 -45 -199l-240 -776q-14 -45 -22 -70t-26.5 -75t-33.5 -81t-41 -77t-52 -75.5t-63 -63t-77 -52.5t-91 -32t-108 -13q-89 0 -156 40.5t-67 105.5zM469 1319q0 60 41.5 114t107.5 54 q38 0 72.5 -25.5t34.5 -85.5t-44 -114t-106 -54q-41 0 -73.5 28t-32.5 83z" />
<glyph unicode="k" horiz-adv-x="1212" d="M-16 23q0 24 8 40l344 1104q43 136 43 166q0 14 -4.5 24t-25 20t-56.5 12q-3 0 -10 0.5t-10 1t-9.5 1t-9.5 1.5t-8 2.5t-7 3.5l-5 5t-4 6.5t-1 8.5q0 7 2 14.5t13 15.5t30 9l82 4q7 0 27 1t28.5 2t27 2.5t31 4.5t31.5 7t38 10.5t41 15.5q15 6 30 14.5t24 13.5t15 5 q7 0 15 -4q8 -8 8 -21q0 -9 -4 -20t-13 -33.5t-16 -46.5l-264 -817l6 -2q71 122 161 226.5t203.5 178.5t215.5 74q49 0 89 -14t64 -36t40.5 -50.5t23 -56t6.5 -54.5q0 -48 -17.5 -98.5t-63 -106.5t-114 -100.5t-182 -77.5t-256.5 -41v-6q33 -9 58 -25t46.5 -46t34 -51.5 t35.5 -68.5l8 -16q16 -32 25.5 -49t31.5 -50t48.5 -53t56.5 -26q27 -4 41 0q27 7 42 29.5t15 44.5q0 45 -49 63q-11 5 -17 8t-15.5 10.5t-14 20t-4.5 29.5q0 32 22 52t56 20q45 0 76.5 -37t31.5 -92q0 -41 -16.5 -81.5t-48 -76t-84.5 -57t-119 -21.5q-75 0 -130.5 27.5 t-109.5 91.5q-28 34 -50 70t-33.5 61.5t-30 70.5t-31.5 72q-29 66 -68 66q-8 0 -14.5 -4t-13 -13.5t-10.5 -16.5t-9 -22t-7 -20.5t-6.5 -21.5t-4.5 -17l-80 -256q-8 -29 -19.5 -38t-52.5 -9h-125q-32 0 -32 23zM369 467q19 -1 38 -1q123 0 239 44q134 52 217 144t83 196 q0 44 -23.5 71t-68.5 27q-60 0 -134.5 -49.5t-140.5 -124.5t-121 -155.5t-89 -151.5z" />
<glyph unicode="l" horiz-adv-x="593" d="M16 92q0 35 19 98l327 1035q27 84 27 116q0 31 -19 40.5t-61 9.5h-39q-12 1 -19.5 4t-10 9t-2.5 7.5v9.5q0 6 2 13t13 15t30 9l90 4q136 6 221 47l41 21q16 8 24 8q20 0 20 -25q0 -15 -7 -38q-8 -26 -23 -64q-4 -12 -17.5 -47t-19.5 -55l-331 -1047q-27 -98 -27 -115 q0 -12 2.5 -19t7.5 -9.5t8 -3t9 -0.5q15 0 31 6t32 19.5t29.5 26.5t30.5 35.5t27.5 36.5t28 39.5t25.5 36.5q1 1 3.5 4.5t4 5.5t4.5 5t5 4.5t4.5 3.5t5.5 3t6 1q11 0 17 -6.5t6 -13.5q0 -18 -35 -74q-77 -123 -179.5 -206t-191.5 -83q-54 0 -86.5 36t-32.5 97z" />
<glyph unicode="m" horiz-adv-x="1949" d="M43 743q0 20 49 78q80 97 191 174.5t184 77.5q94 0 94 -100q0 -88 -80 -334l-32 -100l4 -2q67 128 152 237t171 184q128 115 248 115q26 0 50 -8t47.5 -26t38 -54t14.5 -86q0 -107 -66 -303l-25 -76h4q81 143 163.5 249t145.5 162.5t126 90t102.5 42.5t77.5 9 q26 0 51 -7.5t50.5 -24.5t41 -52.5t15.5 -83.5q0 -86 -80 -274l-148 -357q-39 -101 -39 -137q0 -37 29 -37q32 0 97 59.5t120 135.5q26 35 45 35q11 0 17 -5t6 -8v-8q0 -34 -43 -84q-31 -37 -57.5 -66.5t-69.5 -69.5t-83 -66t-91.5 -45t-100.5 -19q-51 0 -81.5 29.5 t-30.5 85.5q0 35 9 75t20 69t34 87l162 412q47 121 47 166q0 65 -57 65q-82 0 -205 -141q-107 -121 -217 -310t-176 -360l-37 -96q-7 -18 -10 -24t-15 -11.5t-35 -5.5h-133h-5.5h-6t-5.5 0.5t-6 1t-4.5 2t-4 3.5t-2.5 5.5t-1 7.5q0 6 11 43l100 293q143 417 143 523 q0 71 -51 71q-68 0 -184 -129q-84 -94 -154 -197t-120.5 -206t-75.5 -162.5t-56 -142.5l-28 -76q-4 -11 -9 -18.5t-8.5 -11t-9.5 -5.5t-9 -2.5t-10 0t-8 0.5h-135q-8 0 -12 0.5t-10.5 3.5t-9 8.5t-2 17t5.5 27.5l139 412q7 22 37 108t43 127t27 99t14 90q0 18 -5 24.5 t-18 6.5q-29 0 -82.5 -48t-115.5 -128q-1 -1 -4.5 -5.5t-5.5 -6.5t-5.5 -6t-6 -6t-6 -4.5t-7 -3.5t-6.5 -1q-9 0 -17 7t-8 21z" />
<glyph unicode="n" horiz-adv-x="1370" d="M43 729q0 20 25 55q229 289 399 289q102 0 102 -117q0 -123 -77 -335l-46 -127h7q60 108 138 209t166 185t184.5 134.5t182.5 50.5q78 0 121 -41.5t43 -107.5q0 -24 -3.5 -47.5t-14 -56t-15.5 -45.5t-23 -56t-20 -49l-161 -404q-37 -90 -37 -125t33 -35q35 0 102.5 66.5 t118.5 130.5q20 25 39 25q20 0 20 -23q0 -21 -27 -57q-38 -52 -103.5 -116t-154 -118.5t-153.5 -54.5q-50 0 -82.5 29t-32.5 90q0 69 70 248l168 426q30 79 30 116t-14 50.5t-43 13.5q-62 0 -128 -45.5t-144 -128.5q-82 -87 -148.5 -179t-111.5 -179t-70.5 -147t-50.5 -132 l-27 -74q-7 -22 -19.5 -33t-20.5 -12.5t-21 -1.5h-146h-6.5t-8.5 1.5t-7 5t-3 10t3 16.5l196 588q64 193 64 249q0 48 -33 48q-32 0 -95 -62.5t-108 -122.5q-19 -28 -34 -28q-23 0 -23 24z" />
<glyph unicode="o" horiz-adv-x="1273" d="M57 406q0 130 58.5 253t153.5 213.5t223 145.5t260 55q135 0 242 -62.5t165 -168.5t58 -234q0 -119 -54.5 -236t-147 -208.5t-226 -148t-279.5 -56.5q-105 0 -191.5 36.5t-143 98.5t-87.5 142.5t-31 169.5zM295 299q0 -17 0.5 -32.5t5 -45.5t12 -54.5t23 -53t36.5 -48 t54.5 -32.5t75.5 -13q76 0 145 38t120 100t92 140t67 160.5t39.5 157.5t13.5 134q0 262 -217 262q-99 0 -188.5 -69t-149 -175.5t-94.5 -231t-35 -237.5z" />
<glyph unicode="p" horiz-adv-x="1329" d="M-328 -516q0 12 4.5 20.5t10.5 13.5t18 8.5t19 5t23.5 3t21.5 2.5q78 10 112 42t62 120l399 1245q-109 -23 -164 -43q-1 0 -6.5 -1.5t-9.5 -2t-10.5 -1.5t-11.5 0.5t-9.5 4t-7 8t-2.5 13.5q0 15 7 25t13 13t19 7l65 18q84 24 142 35l71 215q6 20 9 26t14.5 12t34.5 7 l139 4q26 0 31.5 -8.5t-2.5 -30.5l-64 -194q115 22 242 22q430 0 430 -356q0 -182 -117 -379q-78 -130 -181.5 -217t-207.5 -124.5t-213 -37.5q-178 0 -268 107l-90 -275q-39 -117 -39 -166q0 -21 9 -37t21 -25t34 -15.5t36 -9t39 -5.5l45 -6q29 -4 29 -33q0 -33 -54 -33 q-51 0 -149 8.5t-146 8.5q-50 0 -153 -8.5t-156 -8.5q-39 0 -39 23zM332 168q0 -71 51.5 -107t128.5 -36q56 0 108.5 18.5t92 46.5t75.5 67.5t60 75t45 74.5q40 71 68.5 143.5t42 121.5t21 98t8.5 66t1 32q0 28 -3 52t-18 62t-42 64t-80.5 46t-126.5 20q-85 0 -186 -33 l-213 -668q-33 -101 -33 -143z" />
<glyph unicode="q" horiz-adv-x="1298" d="M43 209q0 107 38 216t102.5 203t152 177t183.5 141.5t200 92.5t199 34q70 0 163 -24q74 -17 90 -17q31 0 54.5 12t58.5 46q20 20 35 20q13 0 22 -8t9 -19q0 -6 -4.5 -15t-12 -23.5t-12.5 -26.5q-6 -18 -29 -68q-16 -39 -35 -104l-344 -1104q-32 -101 -32 -135 q0 -26 20.5 -42.5t91.5 -27.5q42 -5 58 -12t16 -27q0 -37 -47 -37q-48 0 -140 8.5t-137 8.5q-52 0 -159.5 -8.5t-167.5 -8.5q-35 0 -35 27q0 28 14.5 34t96.5 17q51 7 79.5 16.5t49.5 34.5t31.5 51t29.5 85l233 723l-8 2q-44 -68 -90.5 -129t-111 -130t-128.5 -118.5 t-141.5 -82t-150.5 -32.5q-112 0 -177 68.5t-65 181.5zM281 229q0 -64 28.5 -102.5t85.5 -38.5q72 0 164 68t175.5 171t156 216t115.5 211.5t43 148.5q0 15 -3 28t-14.5 34t-42 34t-76.5 13q-79 0 -161 -41t-150 -108t-128.5 -152t-102.5 -171.5t-66 -168.5t-24 -142z" />
<glyph unicode="r" horiz-adv-x="960" d="M43 745q0 21 16 41l41 54q79 105 169.5 169t162.5 64q94 0 94 -119q0 -51 -17.5 -124t-66.5 -238l-36 -123h6q42 88 85.5 166.5t98.5 161t107.5 141.5t111.5 97t113 38q65 0 104 -38.5t39 -94.5q0 -36 -11 -71.5t-43.5 -65t-80.5 -29.5q-85 0 -96 86q-3 19 -4.5 26t-9 15 t-21.5 8q-38 0 -93.5 -60.5t-111.5 -152t-111 -199t-96.5 -201.5t-64.5 -159l-29 -82q-7 -20 -16 -32.5t-21.5 -16.5t-19 -5t-19.5 -1h-121q-20 0 -26 11.5t4 54.5l104 342q4 12 21.5 68t26 84t25 82.5t25.5 90.5t18 78t13 72v22q-6 25 -22 25q-51 0 -123 -94l-66 -84 q-23 -29 -39 -29q-20 0 -20 22z" />
<glyph unicode="s" horiz-adv-x="892" d="M-37 150q0 56 18 104.5t54 48.5q16 0 29.5 -6.5t27.5 -22t22.5 -27t25 -37.5t24.5 -38q23 -33 41 -55t45 -47t60.5 -37.5t72.5 -12.5q82 0 132 48.5t50 121.5q0 17 -2 32.5t-9.5 31.5t-11.5 26.5t-18.5 27.5t-19.5 24t-25.5 26t-25.5 23.5t-30 26.5t-30 26 q-115 100 -151 142q-78 92 -78 190q0 122 113.5 214.5t304.5 92.5q52 0 106.5 -8t104.5 -23t82 -42t32 -60q0 -23 -4 -51.5t-20 -59t-41 -30.5q-35 0 -74 45l-45 47q-118 121 -207 121q-56 0 -99.5 -37t-43.5 -101q0 -15 2.5 -30t9.5 -29.5t12.5 -26t18.5 -27t20 -24 t24 -24.5t23.5 -22t26.5 -23.5t25 -22.5q9 -9 39 -35.5t40.5 -37t36 -35t36.5 -37.5t29.5 -36t27 -40t18.5 -39t14 -43.5t4 -44.5q0 -133 -124.5 -235.5t-311.5 -102.5q-60 0 -124 12t-123 34t-96.5 60t-37.5 85z" />
<glyph unicode="t" horiz-adv-x="696" d="M63 88q0 14 2 29.5t7 38t9 39t14 49.5t16.5 52.5t20.5 64.5t22 69l168 526h-183q-8 0 -12 5t-2 10l12 43q4 12 25 12h182l84 250q9 25 20 32t37 7h146q18 0 22.5 -6.5t-0.5 -26.5l-82 -256h224q13 0 13 -10q0 -3 -1 -8l-12 -39q-4 -13 -17 -13h-231l-176 -546 q-4 -13 -13 -39q-57 -178 -59 -213q0 -43 35 -43q34 0 98.5 69.5t104.5 130.5q19 31 36 31q21 0 21 -24q0 -12 -23 -54q-59 -108 -176 -208.5t-213 -100.5q-119 0 -119 129z" />
<glyph unicode="u" horiz-adv-x="1363" d="M51 745q0 19 49 84q89 115 192.5 179.5t184.5 64.5q101 0 101 -121q0 -13 -2 -26.5t-4.5 -24t-9 -31t-10.5 -31t-15.5 -41t-16.5 -44.5l-178 -469q-31 -79 -31 -125q0 -51 49 -51q64 0 205 114q139 112 272 306t191 384l23 74q7 26 21 35.5t42 9.5h139q25 0 27.5 -15 t-4.5 -26l-193 -567q-71 -209 -71 -270q0 -41 26 -41q38 0 89 45.5t87 91.5l46 57q24 33 38 33q23 0 23 -23q0 -20 -31 -59q-230 -299 -436 -299q-40 0 -62 24t-22 68q0 106 102 383l39 107h-6q-156 -265 -360 -423.5t-342 -158.5q-22 0 -42.5 5.5t-42.5 19t-35 43t-13 71.5 q0 99 77 283l148 360q49 116 49 156q0 15 -5.5 23t-10 9t-11.5 1q-65 0 -208 -189q-18 -22 -35 -22q-23 0 -23 26z" />
<glyph unicode="v" horiz-adv-x="1130" d="M47 754q0 11 29 53q78 109 189 187.5t216 78.5q48 0 76.5 -26.5t28.5 -75.5q0 -20 -3.5 -41t-12.5 -49t-16.5 -48t-23.5 -61t-24 -63l-117 -310q-61 -160 -61 -231q0 -63 33.5 -88t78.5 -25q87 0 190 75.5t182.5 181t133 220t53.5 189.5q0 32 -8.5 61t-16.5 43.5 t-24 38.5q-32 54 -32 101q0 51 28 79.5t68 28.5q46 0 80 -41.5t34 -134.5q0 -155 -88 -341t-215 -325q-106 -118 -239 -195t-264 -77q-104 0 -166 54.5t-62 148.5q0 50 13 95.5t45 127.5l143 365q2 6 18 41.5t24.5 63t8.5 48.5q0 14 -8 24.5t-21 10.5q-70 0 -208 -176l-5 -6 q-5 -6 -6.5 -7.5l-6 -6t-7.5 -6.5t-7.5 -3.5t-8.5 -1.5q-10 0 -15.5 8t-5.5 15z" />
<glyph unicode="w" horiz-adv-x="1736" d="M47 739q0 14 23 47q96 134 211.5 210.5t205.5 76.5q42 0 67.5 -21.5t32.5 -46t7 -53.5q0 -14 -3 -31t-6 -30.5t-10.5 -36t-11.5 -33.5t-14.5 -38t-13.5 -35l-119 -324q-3 -9 -19.5 -52t-21 -56.5t-14 -44.5t-12.5 -53t-3 -44q0 -13 2 -25t8 -31t23 -30.5t43 -11.5 q116 0 271 209.5t278 560.5l45 129q2 4 4.5 13t4 13t5 10t7 9t9.5 6.5t14 4.5t19 1h135q24 0 31.5 -5t7.5 -17q0 -13 -8 -37l-129 -377q-100 -289 -100 -410q0 -24 2.5 -41t9 -37t23 -31t41.5 -11q50 0 122.5 44.5t122.5 90.5q112 103 191.5 255.5t79.5 258.5q0 25 -4.5 45 t-9 29.5t-18 31.5t-20.5 35q-34 66 -34 105q0 50 26.5 81t65.5 31q52 0 86.5 -51.5t34.5 -128.5q0 -132 -72 -302.5t-174 -303.5q-68 -89 -143 -155t-143 -102.5t-127 -53.5t-111 -17q-164 0 -164 160q0 102 61 321l-4 2q-113 -222 -264 -352.5t-283 -130.5q-82 0 -136 51 t-54 160q0 61 12 106.5t35 102.5l139 360q6 14 23 52t24.5 62.5t7.5 49.5q0 18 -9.5 26.5t-20.5 8.5q-28 0 -73 -35.5t-74.5 -68t-71.5 -82.5q-29 -33 -43 -33q-11 0 -17 6.5t-6 13.5z" />
<glyph unicode="x" horiz-adv-x="1234" d="M-92 98q0 77 46 126.5t101 49.5q43 0 67.5 -27.5t24.5 -62.5q0 -23 -8 -43q-10 -30 -10 -39q0 -22 27 -22q66 0 173.5 118t211.5 281l-74 234q-68 219 -150 219q-28 0 -49 -15.5t-33.5 -44.5t-19.5 -54.5t-12 -61.5q-1 -4 -2 -11.5t-1.5 -11t-1.5 -9t-2 -8t-2.5 -6.5 t-3.5 -5.5t-4.5 -3.5t-6 -2.5t-7.5 -0.5q-29 0 -29 47q0 124 81.5 226t199.5 102q37 0 69.5 -12.5t56.5 -31.5t46 -52.5t37 -63.5t31 -77.5t25.5 -81.5t23.5 -88q77 123 145 207t121 125.5t92.5 58t77.5 16.5q20 0 39.5 -5t40.5 -17.5t34 -40t13 -66.5q0 -69 -42.5 -119.5 t-100.5 -50.5q-34 0 -58 21.5t-24 56.5q0 23 2 33v22q-3 23 -25 23q-28 0 -97.5 -77t-120 -146.5t-77.5 -110.5l84 -272q32 -112 54 -151q32 -56 73 -56q76 0 105 166q6 42 14 50q6 5 14 5q13 0 21 -12.5t8 -41.5t-12 -69q-37 -130 -106 -193t-148 -63q-42 0 -74.5 17.5 t-57.5 47.5t-49.5 89t-44.5 122.5t-49 167.5q-161 -234 -282 -339t-232 -105q-68 0 -105.5 37.5t-37.5 101.5z" />
<glyph unicode="y" horiz-adv-x="1122" d="M-285 -416q0 38 27 70.5t74 32.5q52 0 112 -64q40 -44 55 -53q23 -14 52 -14q72 0 160 88q52 52 87 111t51 119.5t21.5 103.5t7.5 96q2 44 2 87t-2 87q0 9 -1 34q-16 644 -123 644q-34 0 -79.5 -49t-84.5 -138q-4 -10 -6 -13.5t-6.5 -10t-10.5 -8.5t-14 -2q-25 0 -25 22 q0 18 27 70q73 132 158.5 204t158.5 72q52 0 92.5 -46t64.5 -118.5t39.5 -172t21.5 -196t6 -200.5q0 -125 -13 -281q51 57 107.5 128.5t123.5 168t109.5 194t42.5 167.5q0 50 -30 127q-27 67 -27 102q0 55 30.5 91t73.5 36q57 0 87 -49t30 -121q0 -137 -102 -325.5 t-379 -534.5q-263 -331 -421 -461.5t-308 -130.5q-84 0 -136.5 42t-52.5 91z" />
<glyph unicode="z" horiz-adv-x="1200" d="M-84 33q0 65 72 92q51 20 172 37q209 228 410 395.5t448 304.5l-6 10q-132 -44 -206 -60.5t-151 -16.5q-90 0 -206 34q-3 1 -15.5 5t-15 5t-13 4l-14 4t-12.5 3l-13.5 3t-13 2t-15.5 1.5t-16 1t-18 0.5q-18 0 -31 -2.5t-29 -10.5t-25.5 -27.5t-10.5 -49.5v-27 q1 -6 1.5 -13t1 -10.5t1 -8t0.5 -7.5q0 -19 -9.5 -26.5t-19.5 -7.5q-22 0 -37.5 37t-15.5 79q0 52 19 102t55 92.5t97 68.5t138 26q92 0 226 -53q73 -28 116 -43.5t101.5 -29t105.5 -13.5q26 0 53 10q32 13 59 37.5t42.5 45t41 36.5t58.5 16q29 0 45.5 -14.5t16.5 -38.5 q0 -15 -6.5 -29t-14.5 -23t-24 -21t-24 -17t-27.5 -15t-22.5 -12l-45 -24q-65 -35 -209 -176q-71 -70 -125.5 -121t-152.5 -135t-212.5 -166t-236.5 -154l6 -10q8 2 23.5 7t23.5 7q82 26 92 29l76 22q84 23 168 23q62 0 164 -27q110 -26 145 -26q19 0 34 4t31.5 15 t25.5 35.5t9 61.5q0 13 -1.5 21.5t-4.5 18t-4 14.5q-3 10 0 20q9 19 27 19q25 0 43 -39t18 -92q0 -50 -21.5 -99.5t-62.5 -92t-110.5 -69t-155.5 -26.5q-67 0 -127 17.5t-137 51.5q-2 1 -21 9.5t-22 9.5t-19.5 8t-22 8.5t-19.5 6.5t-21.5 6t-20 4t-23.5 3.5t-22 0.5 q-12 0 -22.5 -1t-20.5 -3.5t-17 -4.5t-16.5 -7t-13.5 -6.5t-14 -7.5t-12 -7q-19 -11 -49.5 -31.5t-42.5 -27t-32 -13t-42 -6.5q-39 0 -57.5 20.5t-18.5 53.5z" />
<glyph unicode="{" horiz-adv-x="856" d="M68 -311q0 27 3.5 54.5t12.5 62t14 51.5t19.5 61.5t17.5 52.5l39 125q53 167 53 228q0 43 -31 80.5t-100 41.5l25 82q41 4 75.5 18.5t58 27.5t47.5 49l35 52.5t30 72t24 73.5t24 88q4 12 5.5 18.5t4.5 16.5t5 19l37 133q10 35 20 64.5t30.5 71t45.5 73.5t64.5 66.5t86 57 t112.5 36t143 12.5l-19 -64q-54 -7 -95 -30.5t-64.5 -45t-48 -77.5t-32.5 -82.5t-29 -105.5q-6 -21 -9 -32l-54 -192q-90 -331 -376 -359l-2 -10q30 -3 60 -12t64.5 -28t56 -56.5t21.5 -87.5q0 -44 -26 -135l-58 -189q-12 -40 -32.5 -106t-27 -89t-13 -55.5t-6.5 -58.5 q0 -64 34.5 -94.5t83.5 -34.5l-16 -59q-79 -6 -149 15t-117 73.5t-47 126.5z" />
<glyph unicode="|" horiz-adv-x="229" d="M41 -573v2156h147v-2156h-147z" />
<glyph unicode="}" horiz-adv-x="851" d="M-199 -528l19 63q52 4 92.5 26t66.5 53t47.5 78.5t35 91t29.5 102.5q3 13 5 20l54 194q90 331 376 359l2 10q-98 8 -150 61t-52 123q0 44 26 135l58 187q8 26 23.5 75.5t21 66.5t14.5 48.5t12 47t5.5 35.5t2.5 38q0 121 -118 127l18 62q47 2 96 -6.5t100.5 -30t84 -68.5 t32.5 -113q0 -77 -67 -282l-41 -125q-51 -156 -51 -225q0 -59 37.5 -91t91.5 -32l-25 -84q-32 -1 -60 -9.5t-50 -19.5t-42 -32t-34 -38t-29 -48t-23.5 -50.5t-20 -57t-17 -57t-16 -61.5t-15.5 -59l-37 -133q-9 -35 -20 -65t-31.5 -71t-46 -74t-65 -66.5t-86 -56t-112 -36 t-141.5 -12.5z" />
<glyph unicode="~" horiz-adv-x="1097" d="M164 1196q38 63 82.5 108.5t80 68t75.5 35.5t60 15t42 2q56 0 105.5 -11t78 -23t78.5 -37l82 -41q64 -31 131 -31q50 0 93 30.5t97 121.5l80 -50q-67 -120 -142 -178.5t-167 -58.5q-47 0 -98.5 13.5t-71.5 22t-70 31.5l-102 48q-29 13 -43.5 18.5t-39.5 10.5t-54 5 q-128 0 -217 -151z" />
<glyph unicode="&#xa9;" horiz-adv-x="1685" d="M119 717q0 134 51 272.5t170 257.5q118 118 255.5 168.5t272.5 50.5t273 -50.5t256 -168.5q119 -119 170 -257.5t51 -272.5t-51 -273t-170 -258q-114 -113 -252.5 -167t-276.5 -54t-276 54t-252 167q-119 119 -170 258t-51 273zM242 717q0 -268 182 -459 q181 -190 444 -190q264 0 445 190q182 191 182 459t-182 459q-184 188 -445 188q-260 0 -444 -188q-182 -191 -182 -459zM414 711q0 198 147.5 332.5t368.5 134.5q52 0 124 -12t115 -27q18 -6 24.5 -18t10.5 -56l6 -53l2 -12q2 -13 2 -19t-1.5 -15t-8 -13.5t-16.5 -4.5 q-9 0 -16.5 5.5t-10.5 10t-10 17.5q-39 69 -89.5 105t-139.5 36q-146 0 -236 -116t-90 -281q0 -182 93 -298t231 -116q33 0 62.5 8t46 16t36.5 26.5t24.5 24.5t20.5 26q31 41 37.5 56.5t23.5 39.5q8 14 29 14q18 0 22 -22.5t-1 -63.5l-4 -45q0 -2 -0.5 -8.5t-0.5 -9t-1 -8 t-3 -8.5t-4.5 -8.5t-7 -9t-10 -8.5t-13.5 -10t-18 -10q-107 -55 -244 -55q-59 0 -122.5 13.5t-132.5 47.5t-122.5 84t-88.5 130.5t-35 179.5z" />
<glyph unicode="&#xab;" horiz-adv-x="952" d="M88 522q0 7 21 21l579 391q7 4 13.5 6t11 1t4.5 -5q0 -1 0.5 -6t0 -7.5t-3 -7.5t-7.5 -10l-392 -389l166 -377q5 -11 2 -20.5t-10 -9.5q-3 0 -9 -1.5t-11 -1t-9 4.5l-348 391q-8 11 -8 20zM494 515q-2 6 2 11.5t7.5 8.5t10.5 8l393 254q6 4 12 5.5t9.5 0.5t3.5 -4 q0 -17 -8 -25l-254 -258l106 -246q7 -17 -8 -24t-23 2l-243 254q-6 7 -8 13z" />
<glyph unicode="&#xad;" horiz-adv-x="776" d="M98 420l52 149h528l-49 -149h-531z" />
<glyph unicode="&#xae;" horiz-adv-x="1685" d="M119 717q0 134 51 272.5t170 257.5q118 118 255.5 168.5t272.5 50.5t273 -50.5t256 -168.5q119 -119 170 -257.5t51 -272.5t-51 -273t-170 -258q-114 -113 -252.5 -167t-276.5 -54t-276 54t-252 167q-119 119 -170 258t-51 273zM242 717q0 -268 182 -459 q181 -190 444 -190q264 0 445 190q182 191 182 459t-182 459q-184 188 -445 188q-260 0 -444 -188q-182 -191 -182 -459zM494 307q0 21 30 21q1 0 13 1t16.5 2t14.5 3t16.5 6.5t11.5 11.5q20 20 20 90v549q0 27 -3 47.5t-11 32.5t-14 19t-19.5 10.5t-20.5 4t-24 1.5 q-30 0 -30 20q0 17 16 21h14q55 -6 166 -6q62 0 144 3t106 3q128 0 197 -60q30 -25 48.5 -64t18.5 -81q0 -82 -57 -140.5t-170 -66.5v-6q51 -7 88 -74l139 -254q14 -25 23.5 -38t26 -24t36.5 -11h3q35 -2 36 -23q0 -20 -31 -20q-12 0 -33 1t-32 1q-14 0 -48.5 -2t-51.5 -2 q-20 0 -31.5 7.5t-24.5 33.5l-153 297q-9 19 -16.5 31.5t-18.5 26.5t-25 21t-30 7h-52q-9 0 -13.5 -6.5t-4.5 -10.5v-16v-232q0 -72 18 -90q19 -19 72 -24q31 0 31 -21q0 -22 -41 -22q-26 0 -77 3t-77 3t-80 -3t-80 -3q-36 0 -36 22zM764 784q0 -14 0.5 -20t9 -12.5 t25.5 -6.5h51q101 0 151 50.5t50 128.5q0 79 -43 125q-31 35 -70.5 45t-99.5 10q-48 0 -61 -19.5t-13 -60.5v-240z" />
<glyph unicode="&#xbb;" horiz-adv-x="952" d="M55 246q0 16 8 24l254 258l-106 246q-7 17 8 24.5t23 -1.5l243 -254q6 -7 8 -13t-2 -11.5t-7.5 -8.5t-10.5 -8l-393 -254q-6 -4 -12 -5.5t-9.5 -0.5t-3.5 4zM269 122.5q0 2.5 2.5 7.5t7.5 9l393 389l-168 377q-5 11 -2 21t12 10q3 0 9.5 1.5t11 1t8.5 -4.5l348 -391 q8 -11 8 -21q0 -7 -20 -20l-580 -391q-7 -4 -13.5 -6t-11 -1t-4.5 5q0 1 -0.5 6t-0.5 7.5z" />
<glyph unicode="&#x401;" horiz-adv-x="1275" d="M-137 35q0 33 49 37l72 6q25 2 44.5 14t31 24.5t23 38.5t15.5 39t13 44l276 929q27 88 27 119q0 68 -68 74l-39 4q-19 2 -30 10t-13 14.5t-2 12.5q0 33 55 33q88 -1 290.5 -6t346 -4t334.5 10q35 0 41 -12q2 -4 2 -9t-2 -11.5t-7.5 -21t-10.5 -28.5q-13 -39 -28 -91 t-19 -63l-15 -45q-11 -36 -20.5 -48.5t-26.5 -12.5q-18 0 -23.5 8t-7.5 24l-6 54q-4 39 -9.5 61.5t-21 47.5t-41.5 37.5t-71 21t-111 8.5h-100q-85 0 -127 -21l-156 -532h226q45 0 82 9t59 20t42.5 32t28 32.5t21.5 33.5l29 47q10 14 17.5 19t23.5 5q30 0 30 -24 q0 -21 -22 -84q-14 -41 -23.5 -66.5t-12.5 -32.5t-7 -18.5t-10 -30.5q-16 -45 -24.5 -78.5t-16.5 -71t-15 -63.5q-10 -39 -18.5 -50t-26.5 -11q-30 0 -30 33l2 67q1 28 -0.5 50t-8.5 37.5t-12 26.5t-19.5 18t-23 10.5t-31.5 5.5t-35 2h-42h-207l-125 -424q-31 -106 -31 -148 q0 -17 5 -28.5t18.5 -18.5t25.5 -11.5t39.5 -6t45.5 -2t58 -0.5h2.5h2.5q78 0 125 2t98.5 10t84 23t67.5 41.5t63 65t59 93.5q18 31 41 31q5 0 11 -2t13 -9.5t7 -19.5q0 -10 -2.5 -20t-7.5 -24.5t-8 -22.5l-35 -113q-7 -23 -17 -59q-16 -57 -26 -66.5t-54 -9.5h-10 q-216 0 -434 6q-258 6 -260 6q-58 0 -172 -6t-172 -6q-53 0 -53 35zM520 1620q0 68 45.5 106.5t98.5 38.5q11 0 21.5 -1.5t27 -8t28.5 -18t20.5 -33.5t8.5 -51q0 -62 -41.5 -108t-103.5 -46q-58 0 -81.5 37.5t-23.5 83.5zM995 1620q0 68 45.5 106.5t98.5 38.5 q11 0 21.5 -1.5t27 -8t28.5 -18t20.5 -33.5t8.5 -51q0 -62 -41.5 -108t-103.5 -46q-58 0 -81.5 37.5t-23.5 83.5z" />
<glyph unicode="&#x402;" horiz-adv-x="1708" d="M119 1145q0 8 28 88q16 43 36.5 102.5t31 88.5t24 60.5t26 43.5t26.5 12q15 0 23 -8.5t9 -16.5t1 -22q3 -36 22.5 -47.5t87.5 -11.5h860q57 0 82 10.5t49 42.5q4 5 9 11.5t7.5 9.5t5.5 7.5t4.5 6l4 4t4 3t3.5 1.5t4.5 1.5t5 0.5h6.5q9 0 14.5 -1.5t10.5 -12.5t1 -33 q-3 -13 -8 -29t-20 -61t-33 -101l-43 -135q-12 -43 -45 -43q-35 0 -35 41v31q0 12 1 34t1 33q0 28 -3 42.5t-15.5 30t-42 22t-78.5 6.5h-189h-6.5h-6t-5.5 -0.5t-6 -3t-5 -6t-5 -9.5t-5 -14l-165 -557q-2 -3 1 -5.5t9 -2.5q7 0 16 4.5t34.5 18.5t57.5 28q106 47 176 62 q78 16 168 16q97 0 169.5 -34t111.5 -89.5t57.5 -117t18.5 -126.5q0 -97 -44.5 -197t-119.5 -181t-184.5 -132t-229.5 -51q-80 0 -157.5 36t-77.5 91q0 31 26 104l33 91q20 57 59 57q33 0 33 -39q0 -15 -8 -54.5t-8 -82.5q0 -13 1 -24.5t7.5 -33t18 -36t35.5 -26t57 -11.5 q84 0 155 76t108.5 184.5t37.5 216.5q0 264 -250 264q-53 0 -107 -9.5t-107.5 -30t-94.5 -58.5t-56 -88l-141 -475q-23 -76 -37.5 -93.5t-42.5 -17.5q-22 0 -62.5 4t-60.5 4q-34 0 -102 -4t-103 -4q-51 0 -51 35q0 19 11 27t36 10l74 6q22 2 41 13.5t31 25.5t23 38.5 t16.5 40t13.5 42.5l326 1091q5 19 0 23t-24 4h-5h-139q-118 0 -190.5 -41t-147.5 -162q-9 -16 -13.5 -22.5t-14 -12.5t-23.5 -6q-33 0 -33 33z" />
<glyph unicode="&#x403;" horiz-adv-x="1142" d="M-137 35q0 19 11 27t36 10l72 6q13 1 24.5 5.5t20.5 9t18 14t15 15.5t13 19.5t10 19t8.5 21.5t6.5 19.5t6 20.5l5 16l276 929q29 99 29 127q0 27 -17.5 45.5t-70.5 22.5q-15 1 -22.5 2t-19 5t-17 12t-5.5 20q0 33 49 33q49 -1 173.5 -4t196 -4.5t181.5 -2t212.5 2 t205.5 8.5q45 3 45 -21q0 -4 -16 -57q-23 -72 -41 -144l-17 -65q0 -2 -2 -12t-3.5 -13.5t-4 -12t-5 -12.5t-7 -9t-10.5 -7t-13 -2q-30 0 -35 33l-8 57q-12 82 -24 107q-27 56 -124 69q-37 5 -89 5h-78q-61 0 -94.5 -3.5t-71.5 -17.5l-317 -1071q-27 -81 -27 -111 q0 -23 10 -38t30 -21.5t33 -8.5t35 -3q57 -3 70 -14q10 -8 10 -23q0 -39 -57 -39q-47 0 -140 6t-139 6q-45 0 -135.5 -6t-136.5 -6q-55 0 -55 35zM578 1518q0 13 11.5 24.5t24.5 18.5t38 18t38 18l402 207q48 23 77 23q22 0 36.5 -8.5t20 -22t7.5 -21.5t2 -14 q0 -75 -115 -108l-420 -135q-11 -4 -32 -12t-34.5 -11.5t-25.5 -3.5q-30 0 -30 27z" />
<glyph unicode="&#x404;" horiz-adv-x="1423" d="M68 512q0 123 48.5 245t133.5 227t204.5 196.5t257.5 156t297.5 101.5t319.5 37q180 0 180 -62q0 -15 -36 -151l-23 -84q-18 -67 -26.5 -82t-30.5 -15q-21 0 -31 16t-10 72v70q0 105 -13.5 131.5t-70.5 26.5q-106 0 -224.5 -37t-239 -107.5t-232.5 -189t-189 -266.5h383 q45 0 68 1.5t49 8.5t43.5 22.5t38 41t45.5 67.5q12 21 18.5 30.5t17 17t23.5 7.5q14 0 22.5 -7t8.5 -19q0 -18 -23 -82q-22 -54 -56.5 -166.5t-51.5 -196.5q-7 -32 -15.5 -46.5t-27.5 -14.5q-15 0 -22.5 9.5t-9 20.5t-1.5 31q0 8 1 23.5t1 23.5q0 95 -32 120.5t-140 25.5 h-367q-30 -94 -30 -213q0 -114 38.5 -207.5t99.5 -149.5t131.5 -86t139.5 -30q46 0 89 9t77 22t67.5 36t57 42t49 50t40 50.5t33.5 52.5t26 46.5t22 41.5q4 8 5 10.5t6 10t9 10t10.5 5.5t14.5 3q28 0 31 -25v-20q-2 -12 -14 -51t-23 -84q-5 -18 -11 -43t-9 -36t-7.5 -28 t-7 -23.5t-6.5 -17t-7.5 -14.5t-8 -10t-10.5 -9.5t-13 -7.5t-16 -8q-87 -39 -205.5 -60.5t-228.5 -21.5q-131 0 -246.5 38.5t-202.5 108t-137.5 174.5t-50.5 232z" />
<glyph unicode="&#x405;" horiz-adv-x="1071" d="M-35 88q0 71 12 176l7 66q0 1 0.5 8t1 10.5t2 10t4.5 9.5t6.5 7t10 6t14.5 2q33 0 40 -49l7 -47q16 -128 83 -192t203 -64q150 0 241 86t91 213q0 31 -5 58.5t-20.5 56t-25.5 46.5t-39 49t-39.5 42.5t-49.5 48t-48 45.5q-47 46 -70 69.5t-60 68.5t-55 79t-32.5 81.5 t-14.5 96.5q0 72 32.5 142t94 129.5t164 96t228.5 36.5q105 0 198 -26t135 -52q25 -14 25 -43q0 -4 -21 -92l-22 -93q-1 -3 -3 -11t-2.5 -11.5t-2.5 -10.5t-3.5 -10.5t-4 -9t-5 -8t-6 -5.5t-7.5 -4t-9 -1q-25 0 -33 20.5t-12 63.5q-3 32 -7 52.5t-19 56t-37.5 57t-66.5 38.5 t-104 17q-127 0 -206.5 -69t-79.5 -171q0 -75 43 -136.5t147 -158.5q116 -109 148 -145q119 -132 130 -269q1 -15 1 -30q0 -83 -37.5 -164.5t-106 -149t-178.5 -109.5t-242 -42q-50 0 -136.5 12.5t-172.5 44t-86 72.5z" />
<glyph unicode="&#x406;" horiz-adv-x="731" d="M-137 35q0 33 49 37l72 6q13 1 24.5 5.5t20.5 9t18 14t15 15.5t13 19.5t10 19t8.5 21.5t6.5 19.5t6 20.5l5 16l276 929q27 88 27 119q0 24 -8.5 40t-23.5 23t-26.5 9.5t-27.5 3.5q-15 1 -22.5 2t-19 5t-17 12t-5.5 20q0 33 47 33q43 0 126 -5.5t124 -5.5q43 0 130 5.5 t132 5.5t45 -31q0 -35 -53 -39l-41 -4q-24 -2 -42 -11.5t-29 -19t-21.5 -31.5t-15 -35t-13.5 -44l-286 -961q-27 -81 -27 -111t20.5 -48t55.5 -21l47 -4l21 -3t16.5 -9.5t9.5 -22.5q0 -39 -51 -39q-45 0 -133.5 6t-132.5 6q-45 0 -137 -6t-138 -6q-55 0 -55 35z" />
<glyph unicode="&#x407;" horiz-adv-x="780" d="M-125 35q0 33 49 37l72 6q13 1 24.5 5.5t20.5 9t18 14t15 15.5t13 19.5t10 19t8.5 21.5t6.5 19.5t6 20.5l5 16l276 929q27 88 27 119q0 24 -8.5 40t-23.5 23t-26.5 9.5t-27.5 3.5q-15 1 -22.5 2t-19 5t-17 12t-5.5 20q0 33 48 33q44 0 126 -5.5t123 -5.5q43 0 130 5.5 t133 5.5q45 0 45 -31q0 -35 -54 -39l-41 -4q-24 -2 -42 -11.5t-28.5 -18.5t-21 -32t-14.5 -35t-14 -44l-287 -961q-27 -81 -27 -111t20.5 -48t55.5 -21l47 -4l21 -3t16.5 -9.5t9.5 -22.5q0 -39 -51 -39q-45 0 -133.5 6t-132.5 6q-45 0 -137 -6t-138 -6q-55 0 -55 35z M276 1647q0 70 43 109.5t101 39.5q13 0 25 -3t31.5 -12.5t31.5 -35t12 -64.5q0 -70 -42.5 -109.5t-100.5 -39.5q-9 0 -18.5 1t-25.5 7.5t-27.5 18t-20.5 34.5t-9 54zM750 1647q0 70 42.5 109.5t100.5 39.5q13 0 25 -3t31.5 -12.5t31.5 -35t12 -64.5q0 -70 -42.5 -109.5 t-100.5 -39.5q-13 0 -25 3t-31.5 12.5t-31.5 35t-12 64.5z" />
<glyph unicode="&#x408;" horiz-adv-x="755" d="M-485 -305q0 51 30.5 84t81.5 33q30 0 52.5 -11t38 -34.5t23.5 -41.5t19 -51q14 -43 29 -56t41 -13q66 0 110 64t78 169q8 27 22 77.5t19 68.5t16.5 55t16.5 55l320 1071q26 95 26 121q0 21 -6 35.5t-17.5 21.5t-21.5 10t-24 5l-52 6q-43 5 -43 37q0 33 54 33 q44 0 130 -5.5t128 -5.5q41 0 126.5 5.5t131.5 5.5q49 0 49 -31q0 -35 -53 -39l-41 -4q-13 -1 -24.5 -4.5t-20 -7t-17 -11.5t-14 -13t-11.5 -16t-9 -16t-7.5 -18.5t-6 -17.5t-6 -19t-5.5 -18l-281 -943q-24 -82 -38 -126.5t-42.5 -118t-56 -123.5t-71 -109.5t-95.5 -109.5 q-169 -162 -348 -162q-90 0 -160.5 42.5t-70.5 125.5z" />
<glyph unicode="&#x409;" horiz-adv-x="2066" d="M-281 82q0 49 35 93t111 44q63 0 100 -47q22 -29 47 -29q34 0 78 43.5t85.5 112t74 131.5t57.5 121q50 112 132.5 372.5t82.5 356.5q0 73 -69 78l-74 4q-45 2 -45 37t57 35q37 0 109.5 -2t109.5 -2q32 0 97 2t96 2h213q41 0 123 -5.5t123 -5.5q40 0 119 5.5t120 5.5 q43 0 43 -31q0 -11 -5 -18.5t-17 -12t-20.5 -6t-27 -3.5t-24.5 -3q-24 -3 -42 -12t-28.5 -18t-21 -31t-15 -34.5t-14.5 -45.5l-121 -400q131 25 254 25q496 0 496 -357q0 -44 -8 -87.5t-29 -93t-54 -92.5t-87 -83t-123 -68.5t-167.5 -45.5t-215.5 -17q-69 0 -205 6t-203 6 q-44 0 -135 -6t-139 -6q-53 0 -53 35q0 31 47 37l73 6q14 1 26.5 5.5t23 12.5t18.5 15t16 20.5t12.5 21t10 23.5t8 22t7 22t5.5 18l297 997q7 25 8 44t-1.5 31.5t-14.5 20.5t-20 12.5t-30 6.5t-33.5 2h-39.5h-123q-33 0 -59.5 -6t-45.5 -15t-35 -29t-26.5 -36.5t-22 -50 t-18.5 -58t-20.5 -71.5t-23.5 -80q-89 -293 -187 -512q-47 -106 -97 -191t-92.5 -139.5t-87.5 -94.5t-79 -60.5t-70.5 -32.5t-57 -14.5t-44.5 -2.5q-144 0 -144 123zM1026 160q0 -51 47.5 -68.5t138.5 -17.5q108 0 195 26.5t140.5 68t89 97t49.5 108.5t14 107q0 74 -24 129 t-57 83.5t-79.5 45t-79 20t-69.5 3.5q-107 0 -205 -23l-129 -436q-31 -104 -31 -143z" />
<glyph unicode="&#x40a;" horiz-adv-x="2349" d="M-137 35q0 31 47 37l74 6q24 2 44 15t32 28t23.5 41t15.5 39t10 37l276 929q29 95 29 119t-8.5 40t-24.5 23t-27.5 9.5t-27.5 3.5q-15 1 -22.5 2t-19 5t-17 12t-5.5 20q0 33 45 33q43 0 127.5 -5.5t126.5 -5.5q44 0 132 5.5t132 5.5q25 0 33 -7.5t8 -23.5t-10.5 -26 t-42.5 -13l-41 -4q-20 -2 -35.5 -7t-27.5 -16.5t-19 -19t-15.5 -29t-11.5 -31t-12 -38.5l-125 -418h711l106 366q3 10 9.5 32t9.5 32q12 36 12 55q0 70 -90 76q-44 3 -55 15q-8 9 -8 24q0 33 47 33q43 0 126.5 -5.5t125.5 -5.5q44 0 132 5.5t132 5.5q43 0 43 -31 q0 -35 -53 -39l-43 -4q-53 -5 -76 -36.5t-45 -104.5l-119 -400q131 25 254 25q496 0 496 -357q0 -44 -8 -87.5t-29 -93t-54 -92.5t-87.5 -83t-123.5 -68.5t-167.5 -45.5t-215.5 -17q-69 0 -204.5 6t-202.5 6q-45 0 -136 -6t-139 -6q-53 0 -53 35q0 31 47 37l74 6 q14 1 26.5 5.5t23 12.5t18.5 15t16 20.5t12.5 21t10 23.5t8 22t7 22t5.5 18l143 481h-708l-137 -461q-3 -10 -11 -34.5t-12 -42t-4 -34.5q0 -15 2.5 -24.5t11 -20.5t29.5 -17.5t55 -8.5q18 -1 27 -2t21.5 -4.5t18 -11t5.5 -19.5q0 -39 -49 -39q-45 0 -135.5 6t-135.5 6 q-44 0 -135 -6t-139 -6q-53 0 -53 35zM1309 160q0 -51 47.5 -68.5t138.5 -17.5q108 0 194.5 26.5t140 68t89 97t49.5 108.5t14 107q0 74 -24 129t-57 83.5t-79.5 45t-79 20t-69.5 3.5q-107 0 -205 -23l-129 -436q-30 -101 -30 -143z" />
<glyph unicode="&#x40b;" horiz-adv-x="1730" d="M119 1145q0 8 28 88q16 43 36.5 102.5t31 88.5t24 60.5t26 43.5t26.5 12q15 0 23 -8.5t9 -16.5t1 -22q3 -36 22.5 -47.5t87.5 -11.5h866q57 0 82.5 10.5t49.5 42.5q4 6 10 14t8.5 10.5t6 7.5t5.5 6t5 3.5t5.5 2.5t6 0.5t8.5 0.5q37 0 24 -47q-2 -6 -61 -191l-43 -135 q-15 -43 -45 -43q-16 0 -24 8t-8.5 14t-0.5 19v31v67q0 28 -3 42.5t-15.5 30t-42 22t-78.5 6.5h-197h-5.5h-6.5t-6 -0.5t-6.5 -3t-5.5 -6t-6 -9.5t-5 -14l-151 -508q-7 -22 6 -22q4 0 8.5 1.5t16 6.5t24.5 10q149 60 231 79q97 23 189 23q78 0 136.5 -15.5t92.5 -39.5 t55 -58t28 -64.5t7 -65.5q0 -51 -26 -142l-80 -268q-23 -84 -23 -98q0 -18 2 -29t10 -23.5t26.5 -21t47.5 -12.5l27 -4q28 -4 33 -29v-14q-7 -29 -56 -29q-44 0 -131 5t-131 5q-45 0 -135.5 -5t-136.5 -5q-45 0 -45 35q0 8 2.5 14t8 10t10.5 6.5t15 4t16.5 2t18.5 1t19 1.5 q35 4 59.5 14t40 21.5t29 37.5t20.5 47.5t21 67.5l66 217q26 93 26 127q0 25 -1 40.5t-11.5 45.5t-30 48t-61 33t-99.5 15q-157 0 -286 -55q-41 -19 -61 -38.5t-31 -59.5l-111 -377q-3 -10 -11 -34.5t-12 -42t-4 -34.5q0 -15 2.5 -24.5t11.5 -20.5t30 -17.5t55 -8.5 q18 -1 27 -2t21 -4.5t17.5 -11t5.5 -19.5q0 -39 -49 -39q-45 0 -135 6t-135 6q-46 0 -138 -6t-139 -6q-51 0 -51 35q0 19 11 27t36 10l74 6q16 1 30 7t23.5 12.5t19.5 20.5t15.5 22.5t13 27t9.5 24.5t8 25.5t6 20.5l326 1091q0 10 2 16t-4 8.5t-8 3t-9 0t-8 -0.5h-137 q-78 0 -137 -17.5t-99 -55t-55.5 -57.5t-39.5 -62q-5 -7 -7 -11q-9 -16 -13.5 -22.5t-14 -12.5t-23.5 -6q-33 0 -33 33z" />
<glyph unicode="&#x40c;" horiz-adv-x="1384" d="M-137 35q0 31 47 37l74 6q28 2 50 17.5t36.5 42t23 48.5t17.5 52l274 929q29 101 29 119q0 24 -7 39.5t-23 22.5t-26.5 9.5t-31.5 4.5q-15 1 -22.5 2t-19 5t-17 12t-5.5 20q0 33 45 33q43 0 127.5 -5.5t126.5 -5.5q44 0 132 5.5t132 5.5q43 0 43 -31q0 -20 -13 -28 t-42 -11l-41 -4q-24 -2 -42 -11t-29 -19t-21 -31t-15 -35.5t-14 -44.5l-110 -367q-11 -40 -0.5 -50.5t57.5 -10.5h27q38 0 72.5 8.5t81.5 33t98 79.5t100 137l100 165q48 80 93 130t108.5 82t140.5 32q83 0 120.5 -41t37.5 -100q0 -65 -38 -104t-95 -39q-29 0 -50.5 7.5 t-35 23.5t-17.5 23.5t-12 24.5q-17 39 -53 39q-59 0 -137 -141l-74 -137q-107 -197 -297 -250v-8q41 -5 76.5 -18.5t61 -29t49.5 -43t37.5 -45.5t30 -52t22 -48.5t18.5 -46.5l80 -207q41 -106 65 -141q36 -52 84 -53h25q29 -4 29 -33q0 -19 -14 -28t-50 -9q-16 0 -47 1 t-47 1q-32 0 -46.5 -3t-51.5 -3q-41 0 -74 17.5t-57 50.5t-40.5 68t-33.5 83l-82 238q-54 154 -102 209t-138 55q-43 0 -53.5 -7t-22.5 -46l-120 -408q-5 -18 -11.5 -41t-9 -32t-4.5 -19.5t-2 -18.5q0 -24 9 -39t27.5 -21.5t29 -8t32.5 -2.5q18 -1 27 -2t21.5 -4.5t18 -11 t5.5 -19.5q0 -39 -49 -39q-45 0 -135.5 6t-135.5 6q-44 0 -135 -6t-139 -6q-53 0 -53 35zM752 1518q0 13 11.5 24.5t24.5 18.5t38 18t38 18l402 207q48 23 77 23q22 0 36.5 -8.5t20 -22t7.5 -21.5t2 -14q0 -75 -115 -108l-420 -135q-11 -4 -32 -12t-34.5 -11.5t-25.5 -3.5 q-30 0 -30 27z" />
<glyph unicode="&#x40e;" horiz-adv-x="1271" d="M33 86q0 55 38 91t97 36q28 0 48 -6.5t34 -21.5t19 -23t16 -27q11 -22 23 -31.5t32 -9.5q42 0 97 51.5t85 102.5q21 36 23 64t-8 55l-203 794l-10.5 42l-9.5 38t-8.5 31t-9 27t-9.5 20.5t-12 17.5t-14 11t-18 8.5t-22 3.5l-43 4q-31 3 -31 37q0 15 8.5 22.5t18.5 9 t27 1.5q46 0 139.5 -5.5t140.5 -5.5q43 0 129 5.5t129 5.5q54 0 54 -39q0 -33 -45 -37h-37q-139 0 -111 -127l141 -615q1 -5 3 -13.5t3 -14t3 -11t5 -8t7 -2.5q5 0 11 5.5t17 23t15 22.5l371 494q89 117 102 168q4 25 0 35q-13 39 -59 41l-56 4q-35 3 -46 9t-11 28 q0 20 12.5 28.5t50.5 8.5q36 0 108.5 -5.5t108.5 -5.5q26 0 80 5.5t80 5.5q30 0 39.5 -9t9.5 -26q0 -10 -3 -17t-8 -10.5t-13.5 -6t-15 -3.5t-18.5 -2t-19 -2q-15 -2 -27 -5t-25.5 -10t-22.5 -13t-23.5 -21.5t-24 -26.5t-29.5 -37t-34 -44.5t-42.5 -57.5t-50.5 -68 l-541 -725q-92 -124 -172.5 -206t-143.5 -120t-107.5 -51.5t-90.5 -13.5q-67 0 -109 34.5t-42 92.5zM625 1632q0 62 75.5 133.5t139.5 71.5q43 0 43 -51q0 -14 -4.5 -43.5t-4.5 -44.5q0 -44 28.5 -68t74.5 -24q114 0 237 123l82 81q29 29 52 29q28 0 28 -31q0 -11 -11 -25.5 t-52 -60.5q-56 -62 -119.5 -113.5t-154.5 -92.5t-177 -41q-95 0 -166 44t-71 113z" />
<glyph unicode="&#x40f;" horiz-adv-x="1671" d="M-137 31q0 35 53 39l43 4q24 2 42 11.5t29 19t21.5 31.5t15 35t13.5 44l285 961q26 89 26 110q0 62 -76 70l-47 4q-47 4 -47 35q0 39 49 39q45 0 135.5 -6.5t135.5 -6.5q46 0 137 6.5t137 6.5q53 0 53 -35q0 -33 -49 -37l-71 -6q-13 -1 -24.5 -5.5t-20.5 -9t-18 -14 t-15 -15.5t-13 -19.5t-10 -19t-8.5 -21.5t-6.5 -19.5t-6 -20.5l-5 -16l-306 -1032q-10 -24 -6 -40t8 -24.5t15 -12.5t15 -4.5t9 -0.5h543q53 0 73.5 20t31.5 60l301 1014q3 9 10.5 34t11.5 42t4 34q0 59 -74 70l-49 4q-47 3 -47 35q0 39 49 39q45 0 135.5 -6.5t135.5 -6.5 t136 6.5t138 6.5q53 0 53 -35q0 -31 -47 -37l-73 -6q-24 -2 -44 -15t-32 -28t-23.5 -41t-15.5 -39t-10 -37l-277 -930q-29 -95 -29 -119q0 -31 18.5 -50.5t49.5 -22.5l41 -4q8 0 16 -2t17.5 -11t9.5 -24q0 -33 -49 -33q-41 0 -122.5 5t-121.5 5q-50 0 -150.5 -5t-150.5 -5 h-106l-27 -229q-11 -89 -51.5 -123.5t-87.5 -34.5q-33 0 -53 16.5t-24.5 32t-4.5 31.5q0 31 20 78l115 229h-162q-47 0 -142 5t-142 5q-41 0 -122 -5t-122 -5q-43 0 -43 31z" />
<glyph unicode="&#x410;" horiz-adv-x="1232" d="M-291 31q0 31 49 37q33 4 63.5 19.5t53 32t56 55.5t53 64.5t63.5 84.5l758 1024q42 57 60 81t33.5 38.5t20 15t19.5 0.5q29 0 35 -21q2 -7 3 -20t1.5 -27t1.5 -45.5t2 -60.5l47 -1080q4 -94 23 -121.5t73 -33.5l31 -4q18 -3 27 -10t9.5 -11.5t0.5 -13.5q0 -35 -45 -35 q-40 0 -117.5 6t-116.5 6q-46 0 -137.5 -6t-138.5 -6q-41 0 -41 35q0 29 35 35l45 6q53 7 69 16q48 28 43 156l-10 284h-473l-143 -202q-88 -124 -88 -174q0 -61 98 -76l53 -8q45 -7 45 -35q0 -37 -47 -37q-43 0 -121 5t-116 5q-37 0 -114.5 -5t-119.5 -5q-43 0 -43 31z M362 614h412l-20 549z" />
<glyph unicode="&#x411;" horiz-adv-x="1368" d="M-137 35q0 33 49 37l72 6q13 1 24.5 5.5t20.5 9t18 14t15 15.5t13 19.5t10 19t8.5 21.5t6.5 19.5t6 20.5l5 16l276 929q29 105 29 129q0 28 -20.5 45t-49.5 19l-49 4q-43 3 -43 37q0 33 51 33q606 -18 987 0q24 1 34 -5t8.5 -16t-3.5 -22q-21 -68 -39 -142l-24 -96 q-11 -44 -20 -59t-27 -15q-31 0 -35 37l-8 53q-6 37 -12 60t-21 49.5t-37.5 41t-61 24t-92.5 8.5l-209 -4h-6q-18 0 -26 -1t-15.5 -6.5t-11.5 -17.5l-154 -510q126 35 273 35q103 0 186 -18.5t150 -59t104 -110.5t37 -166q0 -77 -23 -147.5t-76 -134.5t-131.5 -110.5 t-196.5 -74t-263 -27.5q-66 0 -199 6t-200 6q-46 0 -138.5 -6t-138.5 -6q-53 0 -53 35zM352 166q0 -49 44 -71.5t167 -22.5q84 0 154 17.5t117 45.5t82.5 67t55.5 77t32 80t16 72.5t4 57.5q0 32 -4.5 62t-23 71t-48.5 70.5t-88 50.5t-135 21q-120 0 -217 -31l-127 -430 q-29 -97 -29 -137z" />
<glyph unicode="&#x412;" horiz-adv-x="1413" d="M-137 35q0 19 11 27t36 10l74 6q24 2 44 15t32 28t23.5 41t15.5 39t10 37l276 929q29 91 29 129q0 60 -88 66q-15 1 -22.5 2t-19 5t-17 12t-5.5 20q0 33 49 33q43 0 128 -5.5t128 -5.5q47 0 157 5.5t257 5.5q37 0 64.5 -1t70.5 -7t75 -16t68 -30.5t59 -48t38.5 -71 t15.5 -97.5q0 -155 -141 -260.5t-365 -122.5l-2 -6q214 -13 314 -104t100 -232q0 -43 -7.5 -83.5t-26.5 -85t-49.5 -83t-79.5 -73.5t-112 -59.5t-151.5 -39t-194.5 -14.5q-73 0 -218 6t-216 6q-51 0 -153 -6t-154 -6q-53 0 -53 35zM350 166q0 -48 40.5 -71t156.5 -23 q121 0 215.5 36t148.5 95t81.5 127.5t27.5 140.5q0 55 -15 99t-36.5 71.5t-58 47.5t-65.5 29.5t-75 14.5t-70 5.5t-65 0.5q-63 0 -127 -6l-129 -430q-29 -92 -29 -137zM530 811h123q80 0 147.5 12t115 31.5t85 47.5t60 58.5t37.5 65.5t20.5 66.5t5.5 64.5q0 41 -10.5 74 t-37 64.5t-81.5 49t-135 17.5q-81 0 -176 -29z" />
<glyph unicode="&#x413;" horiz-adv-x="1142" d="M-137 35q0 19 11 27t36 10l72 6q13 1 24.5 5.5t20.5 9t18 14t15 15.5t13 19.5t10 19t8.5 21.5t6.5 19.5t6 20.5l5 16l276 929q29 99 29 127q0 27 -17.5 45.5t-70.5 22.5q-15 1 -22.5 2t-19 5t-17 12t-5.5 20q0 33 49 33q49 -1 173.5 -4t196 -4.5t181.5 -2t212.5 2 t205.5 8.5q45 3 45 -21q0 -4 -16 -57q-23 -72 -41 -144l-17 -65q0 -2 -2 -12t-3.5 -13.5t-4 -12t-5 -12.5t-7 -9t-10.5 -7t-13 -2q-30 0 -35 33l-8 57q-12 82 -24 107q-27 56 -124 69q-37 5 -89 5h-78q-61 0 -94.5 -3.5t-71.5 -17.5l-317 -1071q-27 -81 -27 -111 q0 -23 10 -38t30 -21.5t33 -8.5t35 -3q57 -3 70 -14q10 -8 10 -23q0 -39 -57 -39q-47 0 -140 6t-139 6q-45 0 -135.5 -6t-136.5 -6q-55 0 -55 35z" />
<glyph unicode="&#x414;" horiz-adv-x="1380" d="M-403 -324q0 14 24 107l27 100q9 34 18 71t13 52t8.5 31t8.5 22t9 11q3 2 6.5 4t6 2.5t8.5 1t9 0.5h12.5h14.5h31q36 0 62.5 8t63.5 35t83 83t109 148q64 92 159.5 266t180 374t84.5 292q0 41 -18.5 56t-63.5 18l-66 4q-6 0 -14 2t-16.5 11t-8.5 24q0 35 58 35 q35 0 103 -2t103 -2q32 0 96 2t95 2h176q44 0 131 -3.5t131 -3.5q39 0 117 3.5t117 3.5q43 0 43 -31q0 -12 -5 -19.5t-17 -11.5t-20.5 -6t-27.5 -3.5t-27 -2.5q-54 -7 -77 -37.5t-44 -103.5l-284 -990q-6 -21 -8.5 -31t-6 -32t1 -34t14 -26.5t31 -21t52.5 -6.5q8 0 23.5 1 t23.5 1h37q24 0 24 -14q0 -15 -41 -138l-41 -127q-2 -8 -8 -29t-9.5 -32t-10 -29.5t-12.5 -28.5t-14.5 -21t-18.5 -16t-21 -5q-13 0 -25 8t-12 30v37q0 22 4 68q2 18 2 57q0 98 -22 125q-19 22 -64 31.5t-86 9.5t-116.5 -3t-110.5 -3h-364q-98 0 -160 -2.5t-115 -13.5 t-82.5 -24t-58 -42t-46.5 -59.5t-44 -85.5l-41 -84q-11 -23 -24.5 -36t-35.5 -13q-12 0 -23 9t-11 27zM63.5 131q-2.5 -9 3 -17t19.5 -14q16 -8 76.5 -13t93.5 -5h250q50 0 79.5 2t59.5 10t46.5 21t34.5 38.5t30.5 59.5t27.5 86l269 936q18 70 2 90q-19 27 -127 27h-119 q-52 0 -86.5 -11t-55.5 -39.5t-28 -45t-20 -59.5q-3 -10 -5 -15q-163 -549 -532 -1020q-8 -10 -12 -16t-6.5 -15z" />
<glyph unicode="&#x415;" horiz-adv-x="1275" d="M-137 35q0 33 49 37l72 6q25 2 44.5 14t31 24.5t23 38.5t15.5 39t13 44l276 929q27 88 27 119q0 68 -68 74l-39 4q-19 2 -30 10t-13 14.5t-2 12.5q0 33 55 33q88 -1 290.5 -6t346 -4t334.5 10q35 0 41 -12q2 -4 2 -9t-2 -11.5t-7.5 -21t-10.5 -28.5q-13 -39 -28 -91 t-19 -63l-15 -45q-11 -36 -20.5 -48.5t-26.5 -12.5q-18 0 -23.5 8t-7.5 24l-6 54q-4 39 -9.5 61.5t-21 47.5t-41.5 37.5t-71 21t-111 8.5h-100q-85 0 -127 -21l-156 -532h226q45 0 82 9t59 20t42.5 32t28 32.5t21.5 33.5l29 47q10 14 17.5 19t23.5 5q30 0 30 -24 q0 -21 -22 -84q-14 -41 -23.5 -66.5t-12.5 -32.5t-7 -18.5t-10 -30.5q-16 -45 -24.5 -78.5t-16.5 -71t-15 -63.5q-10 -39 -18.5 -50t-26.5 -11q-30 0 -30 33l2 67q1 28 -0.5 50t-8.5 37.5t-12 26.5t-19.5 18t-23 10.5t-31.5 5.5t-35 2h-42h-207l-125 -424q-31 -106 -31 -148 q0 -17 5 -28.5t18.5 -18.5t25.5 -11.5t39.5 -6t45.5 -2t58 -0.5h2.5h2.5q78 0 125 2t98.5 10t84 23t67.5 41.5t63 65t59 93.5q18 31 41 31q5 0 11 -2t13 -9.5t7 -19.5q0 -10 -2.5 -20t-7.5 -24.5t-8 -22.5l-35 -113q-7 -23 -17 -59q-16 -57 -26 -66.5t-54 -9.5h-10 q-216 0 -434 6q-258 6 -260 6q-58 0 -172 -6t-172 -6q-53 0 -53 35z" />
<glyph unicode="&#x416;" horiz-adv-x="2103" d="M-195 35q0 6 1 11t4 8.5t6 6t8.5 4.5t9 3t10.5 1.5t10.5 1t11.5 1t11 0.5q54 5 101.5 40t113.5 124l193 260q92 126 211 187.5t249 66.5v8q-143 43 -157 250l-10 139q-1 8 -1.5 27t-1.5 28t-2.5 24.5t-5 23.5t-9 17t-14.5 13t-20 4q-15 0 -28 -7.5t-17.5 -12.5t-15.5 -19 q-1 -2 -7.5 -11t-9 -11.5t-9.5 -11t-11 -12t-11.5 -10t-14.5 -9.5t-16 -6.5t-19 -5t-21 -1.5q-51 0 -81 35t-30 84q0 27 10 54t31.5 53.5t62 42.5t95.5 16q31 0 55 -3t57.5 -17.5t57 -39.5t42.5 -74t24 -116l12 -160q3 -38 8 -68.5t19.5 -68.5t36.5 -63t61.5 -42.5 t91.5 -17.5h14q51 0 67 12.5t26 49.5l98 330q26 88 26 112t-8.5 40t-24.5 23t-27.5 9.5t-27.5 3.5q-20 1 -30 3t-21.5 11t-11.5 25q0 33 45 33q43 0 127.5 -5.5t126.5 -5.5q44 0 132 5.5t132 5.5q25 0 33 -7.5t8 -23.5t-10.5 -26t-42.5 -13l-41 -4q-53 -6 -77.5 -38 t-45.5 -103l-111 -375q-4 -15 -5.5 -20.5t-1 -16t6 -14.5t18.5 -7.5t34 -3.5h16q53 0 101.5 17.5t84 42t71 63.5t57.5 70.5t48 73.5l103 165q37 59 69.5 100t73.5 75.5t90.5 51.5t108.5 17q48 0 82 -14.5t49 -38.5t21 -45t6 -43q0 -50 -33.5 -96.5t-100.5 -46.5 q-50 0 -74.5 20.5t-41.5 58.5q-14 28 -29 34q-11 5 -25 5q-28 0 -60 -31.5t-49 -59t-28 -50.5l-73 -137q-114 -213 -312 -264v-9q113 -11 179 -79t112 -189l80 -207q44 -110 71 -146q35 -47 80 -48h25q29 0 29 -33q0 -19 -14 -28t-50 -9q-14 0 -44 1t-44 1q-8 0 -25.5 -1 t-25.5 -1q-7 0 -22.5 -1t-22.5 -1q-33 0 -54.5 6.5t-47.5 27t-50 66t-49 117.5l-84 238q-21 60 -38.5 98t-45 79t-65.5 61t-86 20q-36 0 -47 -6.5t-21 -40.5l-121 -408q-24 -87 -24 -111q0 -15 2.5 -24.5t11.5 -20.5t30 -17.5t54 -8.5q18 -1 27 -2t21.5 -4.5t18 -11 t5.5 -19.5q0 -39 -49 -39q-45 0 -135.5 6t-135.5 6t-136 -6t-138 -6q-53 0 -53 35q0 31 47 37l73 6q37 3 66 37t38 57.5t22 70.5l1.5 3t1 3t0.5 3l121 407q12 31 6.5 42.5t-45.5 11.5q-194 0 -372 -252l-211 -303q-28 -41 -46 -63t-47.5 -48t-66.5 -37.5t-84 -11.5 q-56 0 -85 3t-60 3q-15 0 -46.5 -2t-48.5 -2q-37 0 -37 35z" />
<glyph unicode="&#x417;" horiz-adv-x="1218" d="M-76 136.5q-3 32.5 10 82.5l23 107q0 1 1.5 8.5l2 10t3 10t4.5 11t5.5 9t8 8t11 4.5t13.5 2q13 0 22 -4t13 -12.5t5.5 -12t2.5 -10.5q5 -31 7 -44.5t13 -53.5t23.5 -63t39 -57t58.5 -53t82 -33.5t111 -14.5q89 0 166 27.5t130 72t91 101t56 114.5t18 113q0 33 -5.5 65.5 t-24 74.5t-49 72.5t-87 52t-131.5 21.5h-115q-16 0 -10 19l16 49q0 1 1.5 5t2 4.5t3.5 2t8 2t14 0.5h113q78 0 143.5 21.5t108.5 57t73 81t43 91.5t13 91q0 46 -12.5 86t-39.5 74.5t-75.5 54t-114.5 19.5q-240 0 -359 -221q-3 -5 -12 -24.5t-14.5 -29t-15 -22.5t-20 -19 t-22.5 -6q-24 0 -32 29q-3 14 0 27q8 59 19 107t21 74t21 45t16 24.5t9 7.5q40 33 192 56.5t252 23.5q116 0 204.5 -25.5t139.5 -70t76 -98.5t25 -116q0 -100 -61.5 -182t-159 -130t-214.5 -62l-4 -13q60 -3 115 -23t102.5 -57t76 -98t28.5 -137q0 -98 -54.5 -189.5 t-148 -161t-228.5 -111.5t-288 -42q-106 0 -220.5 25t-189.5 73q-25 16 -35.5 31.5t-13.5 48z" />
<glyph unicode="&#x418;" horiz-adv-x="1691" d="M-137 35q0 33 49 37l72 6q51 4 78 45t49 115l276 929q29 98 29 129q0 12 -3.5 22t-7 16.5t-13 11.5t-14 7.5t-17.5 4.5t-16.5 2.5t-18 1t-15.5 0.5q-17 2 -28 7t-15 11.5t-5 10.5t-1 10q0 33 49 33q42 0 125.5 -5.5t124.5 -5.5q44 0 131.5 5.5t132.5 5.5q43 0 43 -31 q0 -16 -11 -25t-23 -11t-33.5 -4t-28.5 -3q-57 -8 -78 -37.5t-43 -103.5l-245 -832l950 817l6 25q14 63 14 67q0 9 -2 17t-4.5 14t-8.5 11t-9.5 8t-12.5 6t-12.5 4.5t-14.5 3t-13.5 2t-14 1.5t-12.5 1q-17 1 -28 5.5t-15 11t-5 10.5t-1 10q0 33 49 33q42 0 125.5 -5.5 t124.5 -5.5q44 0 132 5.5t132 5.5q43 0 43 -31q0 -12 -5.5 -20t-17.5 -12t-22 -5.5t-26.5 -3t-24.5 -2.5q-30 -4 -49.5 -13.5t-33 -31.5t-20 -39t-18.5 -57l-285 -961q-5 -18 -11.5 -41t-9 -32t-4.5 -19.5t-2 -18.5q0 -24 9 -39t28 -21.5t29.5 -8t32.5 -2.5q18 -1 27 -2 t21 -4.5t17.5 -11t5.5 -19.5q0 -39 -49 -39q-45 0 -135 6t-135 6t-136 -6t-138 -6q-54 0 -54 35q0 31 47 37l70 6q52 4 80.5 44.5t50.5 115.5l244 829l-948 -815l-9 -21q-5 -11 -11.5 -41t-6.5 -43q0 -24 9 -39t27.5 -21.5t29 -8t32.5 -2.5q18 -1 27 -2t21.5 -4.5t18 -11 t5.5 -19.5q0 -39 -49 -39q-45 0 -135.5 6t-135.5 6q-46 0 -137 -6t-137 -6q-53 0 -53 35z" />
<glyph unicode="&#x419;" horiz-adv-x="1691" d="M-137 35q0 33 49 37l72 6q51 4 78 45t49 115l276 929q29 98 29 129q0 12 -3.5 22t-7 16.5t-13 11.5t-14 7.5t-17.5 4.5t-16.5 2.5t-18 1t-15.5 0.5q-17 2 -28 7t-15 11.5t-5 10.5t-1 10q0 33 49 33q42 0 125.5 -5.5t124.5 -5.5q44 0 131.5 5.5t132.5 5.5q43 0 43 -31 q0 -16 -11 -25t-23 -11t-33.5 -4t-28.5 -3q-57 -8 -78 -37.5t-43 -103.5l-245 -832l950 817l6 25q14 63 14 67q0 9 -2 17t-4.5 14t-8.5 11t-9.5 8t-12.5 6t-12.5 4.5t-14.5 3t-13.5 2t-14 1.5t-12.5 1q-17 1 -28 5.5t-15 11t-5 10.5t-1 10q0 33 49 33q42 0 125.5 -5.5 t124.5 -5.5q44 0 132 5.5t132 5.5q43 0 43 -31q0 -12 -5.5 -20t-17.5 -12t-22 -5.5t-26.5 -3t-24.5 -2.5q-30 -4 -49.5 -13.5t-33 -31.5t-20 -39t-18.5 -57l-285 -961q-5 -18 -11.5 -41t-9 -32t-4.5 -19.5t-2 -18.5q0 -24 9 -39t28 -21.5t29.5 -8t32.5 -2.5q18 -1 27 -2 t21 -4.5t17.5 -11t5.5 -19.5q0 -39 -49 -39q-45 0 -135 6t-135 6t-136 -6t-138 -6q-54 0 -54 35q0 31 47 37l70 6q52 4 80.5 44.5t50.5 115.5l244 829l-948 -815l-9 -21q-5 -11 -11.5 -41t-6.5 -43q0 -24 9 -39t27.5 -21.5t29 -8t32.5 -2.5q18 -1 27 -2t21.5 -4.5t18 -11 t5.5 -19.5q0 -39 -49 -39q-45 0 -135.5 6t-135.5 6q-46 0 -137 -6t-137 -6q-53 0 -53 35zM793 1622q0 66 75 140.5t140 74.5q43 0 43 -51q0 -9 -4.5 -27.5t-4.5 -27.5q0 -125 103 -125q111 0 237 123l82 79q29 29 64 29q7 0 12.5 -7t5.5 -15q0 -23 -48 -78t-119 -114 t-168 -103.5t-181 -44.5q-91 0 -164 40.5t-73 106.5z" />
<glyph unicode="&#x41a;" horiz-adv-x="1394" d="M-137 35q0 31 47 37l74 6q28 2 50 17.5t36.5 42t23 48.5t17.5 52l274 929q29 101 29 119q0 24 -7 39.5t-23 22.5t-26.5 9.5t-31.5 4.5q-15 1 -22.5 2t-19 5t-17 12t-5.5 20q0 33 45 33q43 0 127.5 -5.5t126.5 -5.5q44 0 132 5.5t132 5.5q43 0 43 -31q0 -20 -13 -28 t-42 -11l-41 -4q-24 -2 -42 -11t-29 -19t-21 -31t-15 -35.5t-14 -44.5l-110 -367q-11 -40 -0.5 -50.5t57.5 -10.5h27q38 0 72.5 8.5t81.5 33t98 79.5t100 137l100 165q48 80 93 130t108.5 82t140.5 32q83 0 120.5 -41t37.5 -100q0 -65 -38 -104t-95 -39q-29 0 -50.5 7.5 t-35 23.5t-17.5 23.5t-12 24.5q-17 39 -53 39q-59 0 -137 -141l-74 -137q-107 -197 -297 -250v-8q41 -5 76.5 -18.5t61 -29t49.5 -43t37.5 -45.5t30 -52t22 -48.5t18.5 -46.5l80 -207q41 -106 65 -141q36 -52 84 -53h25q29 -4 29 -33q0 -19 -14 -28t-50 -9q-16 0 -47 1 t-47 1q-32 0 -46.5 -3t-51.5 -3q-41 0 -74 17.5t-57 50.5t-40.5 68t-33.5 83l-82 238q-54 154 -102 209t-138 55q-43 0 -53.5 -7t-22.5 -46l-120 -408q-5 -18 -11.5 -41t-9 -32t-4.5 -19.5t-2 -18.5q0 -24 9 -39t27.5 -21.5t29 -8t32.5 -2.5q18 -1 27 -2t21.5 -4.5t18 -11 t5.5 -19.5q0 -39 -49 -39q-45 0 -135.5 6t-135.5 6q-44 0 -135 -6t-139 -6q-53 0 -53 35z" />
<glyph unicode="&#x41b;" horiz-adv-x="1406" d="M-281 82q0 31 12 60t47 53t87 24q63 0 100 -47q22 -29 47 -29q34 0 78 43.5t85.5 112t74 131.5t57.5 121q50 112 132.5 372.5t82.5 356.5q0 73 -69 78l-74 4q-45 2 -45 37t57 35q37 0 109.5 -2t109.5 -2q32 0 97 2t96 2h213q41 0 123 -5.5t123 -5.5q40 0 120 5.5t121 5.5 t41 -31q0 -11 -5 -18.5t-17 -12t-20.5 -6t-27 -3.5t-24.5 -3q-24 -3 -42 -12t-28.5 -18t-21 -31t-15 -34.5t-14.5 -45.5l-287 -961q-26 -78 -26 -111q0 -30 20.5 -48t55.5 -21l47 -4l21 -3t16.5 -9.5t9.5 -22.5q0 -39 -47 -39q-46 0 -136 6t-135 6q-46 0 -137.5 -6 t-138.5 -6q-51 0 -51 35q0 17 11 25.5t25.5 10.5t39.5 3h6q33 2 50.5 6.5t40 20t39.5 49t33 88.5l297 997q22 75 -7.5 96t-123.5 21h-123q-42 0 -74 -10.5t-50.5 -24t-34 -39.5t-21.5 -42.5t-16 -48.5q-3 -9 -4 -13l-51 -168q-94 -307 -187 -512q-65 -146 -135 -251.5 t-124 -158.5t-112 -83.5t-89.5 -36t-67.5 -5.5q-79 0 -111.5 38t-32.5 85z" />
<glyph unicode="&#x41c;" horiz-adv-x="1810" d="M-178 31q0 6 1 11t2.5 8.5t3 6.5t5 5t5.5 3t6 2t5.5 1.5t5.5 1.5h5l37 4q7 1 21 2q24 2 35 4t29.5 12t30.5 28.5t31 53t39.5 86t48.5 127.5l270 748q54 150 54 176q0 25 -16.5 35.5t-55.5 13.5l-49 4q-40 3 -49 14q-6 8 -6 19q0 37 67 37q32 0 95.5 -2t93.5 -2 q27 0 83.5 2t86.5 2q24 0 32.5 -5t14 -29.5t8.5 -84.5l45 -946l661 1007q28 40 38 49t34 9q28 0 82 -3.5t80 -3.5q31 0 95 3.5t99 3.5q41 0 41 -33q0 -13 -8.5 -24.5t-30.5 -12.5l-55 -4q-59 -5 -83.5 -35.5t-49.5 -130.5l-203 -842q-41 -170 -43 -198v-11q0 -34 14.5 -48 t45.5 -19l53 -8q1 0 5.5 -0.5t6.5 -0.5t6 -1t6.5 -1.5t6 -2t5.5 -3.5l4.5 -4.5t3.5 -5.5t2 -7t1 -9q0 -33 -51 -33q-44 0 -131.5 6t-130.5 6q-46 0 -140 -6t-141 -6q-51 0 -51 33q0 21 15 29t28 8l53 4q33 2 59.5 17.5t43.5 35.5t31.5 54.5t22 59.5t17.5 66l236 948h-8 l-660 -989q-39 -59 -91 -138q-55 -84 -67.5 -98t-34.5 -14h-6h-2q-12 0 -18.5 1.5t-14 14t-8.5 36.5v59q0 35 -10 272l-37 846l-10 2l-278 -784q-72 -203 -72 -291q0 -18 3.5 -32.5t12 -24t14.5 -15.5t20.5 -10.5t20 -6t22.5 -4.5t20 -3l36 -6q16 -3 22.5 -9.5t6.5 -23.5 t-10.5 -26t-19 -10t-23.5 -1q-35 0 -103.5 5t-103.5 5t-104 -5t-103 -5q-36 0 -46.5 7.5t-10.5 23.5z" />
<glyph unicode="&#x41d;" horiz-adv-x="1689" d="M-137 35q0 31 47 37l74 6q24 2 44 15t32 28t23.5 41t15.5 39t10 37l276 929q29 95 29 119t-8.5 40t-24.5 23t-27.5 9.5t-27.5 3.5q-15 1 -22.5 2t-19 5t-17 12t-5.5 20q0 33 47 33q43 0 126.5 -5.5t125.5 -5.5q43 0 130 5.5t130 5.5q29 0 37 -8t8 -23q0 -16 -10.5 -26 t-42.5 -13l-41 -4q-20 -2 -35.5 -7t-27.5 -16.5t-19 -19t-15.5 -29t-11.5 -31t-12 -38.5l-125 -418h711l106 366q31 102 31 119q0 70 -90 76q-44 3 -55 15q-8 9 -8 24q0 33 49 33q42 0 125.5 -5.5t124.5 -5.5q43 0 129.5 5.5t130.5 5.5q47 0 47 -31q0 -35 -53 -39l-43 -4 q-53 -5 -76 -36.5t-45 -104.5l-285 -961q-5 -18 -11.5 -41t-9 -32t-4.5 -19.5t-2 -18.5q0 -12 3 -22t6.5 -17t12.5 -12.5t13.5 -8t17 -5t16 -3t17.5 -2t15 -1.5q17 -1 25.5 -2t20.5 -4.5t17.5 -11t5.5 -19.5q0 -39 -53 -39q-45 0 -133.5 6t-132.5 6q-45 0 -136 -6t-139 -6 q-53 0 -53 35q0 31 47 37l74 6q25 2 46 16t32.5 28t23 41t15 38.5t10.5 36.5l141 481h-708l-135 -461q-3 -10 -11 -34.5t-12 -42t-4 -34.5q0 -15 2.5 -24.5t11 -20.5t29.5 -17.5t55 -8.5q18 -1 27 -2t21.5 -4.5t18 -11t5.5 -19.5q0 -39 -55 -39q-44 0 -132.5 6t-132.5 6 t-135 -6t-139 -6q-53 0 -53 35z" />
<glyph unicode="&#x41e;" horiz-adv-x="1675" d="M68 633q0 120 42.5 242t122.5 229t186.5 190.5t245 132t287.5 48.5q189 0 340 -89.5t233.5 -240t82.5 -332.5q0 -135 -47.5 -265t-132 -235t-194.5 -185.5t-241.5 -124.5t-265.5 -44q-157 0 -285.5 59t-208.5 155.5t-122.5 215t-42.5 244.5zM326 492q0 -218 109.5 -339.5 t285.5 -121.5q177 0 323 133t226 347.5t80 457.5q0 194 -102 314t-275 120q-113 0 -216.5 -56t-180.5 -149t-134.5 -211t-86.5 -246t-29 -249z" />
<glyph unicode="&#x41f;" horiz-adv-x="1671" d="M-137 35q0 31 47 37l74 6q24 2 44 15t32 28t23.5 41t15.5 39t10 37l276 929q29 95 29 119q0 31 -18.5 51t-49.5 23l-41 4q-8 0 -16 2t-17.5 11t-9.5 24q0 33 49 33q41 0 122.5 -5.5t121.5 -5.5q50 0 150.5 5.5t150.5 5.5h381q47 0 142.5 -5.5t142.5 -5.5q41 0 121.5 5.5 t121.5 5.5q43 0 43 -31q0 -35 -53 -39l-43 -4q-24 -2 -42 -11.5t-29 -19t-21.5 -31.5t-15 -35t-13.5 -44l-284 -961q-27 -93 -27 -111q0 -61 76 -69l47 -4q47 -4 47 -35q0 -39 -49 -39q-45 0 -135.5 6t-135.5 6q-46 0 -137 -6t-137 -6q-53 0 -53 35q0 33 49 37l72 6 q13 1 24.5 5.5t20.5 9t18 14t15 15.5t13 19.5t10 19t8.5 21.5t6.5 19.5t6 20.5l5 16l305 1032q10 24 6 40t-8 24.5t-15 12.5t-15 4.5t-9 0.5h-543q-53 0 -73 -20t-31 -60l-301 -1014q-3 -10 -11 -34.5t-12 -42t-4 -34.5q0 -58 74 -69l49 -4q47 -3 47 -35q0 -39 -49 -39 q-45 0 -135.5 6t-135.5 6q-44 0 -135 -6t-139 -6q-53 0 -53 35z" />
<glyph unicode="&#x420;" horiz-adv-x="1366" d="M-137 35q0 33 49 37l72 6q24 2 43.5 14t31 25t23 39t16 39.5t13.5 42.5l276 929q27 88 27 119q0 24 -8.5 40t-23.5 23t-26.5 9.5t-27.5 3.5q-15 1 -22.5 2t-19 5t-17 12t-5.5 20q0 33 51 33q55 0 159.5 -4.5t154.5 -4.5q62 0 188.5 4.5t190.5 4.5q96 0 169.5 -18.5 t117 -48t70.5 -71.5t36.5 -82.5t9.5 -87.5q0 -30 -6.5 -63.5t-22 -76.5t-44.5 -84.5t-70 -83.5t-103.5 -77.5t-139.5 -63.5t-184 -43.5t-231 -15.5h-135l-108 -360q-27 -81 -27 -111q0 -19 8 -33t17 -21t27.5 -11t26.5 -4.5t27 -1.5q56 -3 68 -14q10 -8 10 -23 q0 -39 -59 -39q-46 0 -136.5 6t-135.5 6t-135.5 -6t-135.5 -6q-59 0 -59 35zM498 692h116q111 0 204 29.5t153.5 76.5t102.5 108t60.5 123t18.5 122q0 41 -9.5 74t-25 55t-40 38t-47.5 25t-55 13.5t-57 6t-57 1.5q-117 0 -170 -8z" />
<glyph unicode="&#x421;" horiz-adv-x="1421" d="M68 506q0 126 48.5 250t133.5 230t205 197t258.5 155t299 100.5t322.5 36.5q52 0 108.5 -12.5t63.5 -43.5q3 -11 0 -22q-1 -7 -30 -121l-27 -100q-17 -64 -26.5 -79.5t-30.5 -15.5q-14 0 -21.5 4t-13.5 27t-6 68v69q0 72 -7 103.5t-23 41t-54 9.5q-176 0 -349 -77 t-302.5 -201t-210 -289.5t-80.5 -333.5q0 -200 119 -335.5t296 -135.5q79 0 148 26t113 59.5t85.5 86.5t60 85.5t41.5 76.5q1 3 2 5t2.5 4.5t2.5 4.5q4 8 5 10.5t6 10t9 10t10.5 5.5t14.5 3q31 0 31 -25q0 -28 -8 -55l-29 -100q-9 -32 -18.5 -69.5t-13.5 -50.5t-9.5 -29.5 t-12 -22t-14.5 -12t-24 -13.5q-80 -37 -209 -59.5t-236 -22.5q-129 0 -243.5 38t-200.5 107.5t-136 173.5t-50 228z" />
<glyph unicode="&#x422;" horiz-adv-x="1312" d="M129 1145q0 5 2 12.5t5 15t9.5 25.5t12.5 35q16 44 36 102.5t31 88.5t24 60.5t25.5 43t26.5 12.5q15 0 23 -8.5t9 -16.5t1 -22q3 -36 22.5 -47.5t87.5 -11.5h861q53 0 78 9.5t53 43.5q8 10 16 20.5t10 14t6.5 6.5t8 3.5t12.5 0.5t14.5 -1.5t11 -13t1.5 -32.5 q-3 -12 -8.5 -29t-20.5 -61t-33 -101l-43 -135q-13 -43 -47 -43q-33 0 -33 41v31q0 12 1 34t1 33q0 23 -1.5 34.5t-8.5 26t-22 21t-43 11t-70 4.5h-187q-3 0 -7 0.5t-6 0.5t-5.5 -1t-5.5 -3t-4.5 -6t-4.5 -10.5t-5 -15.5l-314 -1059q-26 -89 -26 -111q0 -30 20 -48t55 -21 l47 -4q14 -2 21.5 -3t17 -9.5t9.5 -22.5q0 -39 -54 -39q-45 0 -132.5 6t-131.5 6q-45 0 -135 -6t-135 -6q-60 0 -60 35q0 33 50 37l71 6q29 2 51.5 17t37 42t22 48t16.5 53l322 1085q2 6 2 10.5t-0.5 8t-3 5.5t-4 3t-5.5 1.5t-6 0.5h-6.5h-5.5h-139q-62 0 -111 -11.5 t-80 -27t-60 -46t-44 -52t-39 -62.5q-9 -16 -13.5 -22.5t-14 -12.5t-23.5 -6q-33 0 -33 33z" />
<glyph unicode="&#x423;" horiz-adv-x="1271" d="M33 86q0 55 38 91t97 36q28 0 48 -6.5t34 -21.5t19 -23t16 -27q11 -22 23 -31.5t32 -9.5q42 0 97 51.5t85 102.5q21 36 23 64t-8 55l-203 794l-10.5 42l-9.5 38t-8.5 31t-9 27t-9.5 20.5t-12 17.5t-14 11t-18 8.5t-22 3.5l-43 4q-31 3 -31 37q0 15 8.5 22.5t18.5 9 t27 1.5q46 0 139.5 -5.5t140.5 -5.5q43 0 129 5.5t129 5.5q54 0 54 -39q0 -33 -45 -37h-37q-139 0 -111 -127l141 -615q1 -5 3 -13.5t3 -14t3 -11t5 -8t7 -2.5q5 0 11 5.5t17 23t15 22.5l371 494q89 117 102 168q4 25 0 35q-13 39 -59 41l-56 4q-35 3 -46 9t-11 28 q0 20 12.5 28.5t50.5 8.5q36 0 108.5 -5.5t108.5 -5.5q26 0 80 5.5t80 5.5q30 0 39.5 -9t9.5 -26q0 -10 -3 -17t-8 -10.5t-13.5 -6t-15 -3.5t-18.5 -2t-19 -2q-15 -2 -27 -5t-25.5 -10t-22.5 -13t-23.5 -21.5t-24 -26.5t-29.5 -37t-34 -44.5t-42.5 -57.5t-50.5 -68 l-541 -725q-92 -124 -172.5 -206t-143.5 -120t-107.5 -51.5t-90.5 -13.5q-67 0 -109 34.5t-42 92.5z" />
<glyph unicode="&#x424;" horiz-adv-x="1804" d="M47 651q0 72 20.5 142.5t63 142t114.5 132.5t167 108.5t230 74.5t294 27q10 35 10 76q0 47 -67 53l-41 4q-43 5 -43 37q0 33 49 33q42 0 125.5 -5.5t124.5 -5.5q43 0 130 5.5t130 5.5q18 0 28 -5t12.5 -10.5t2.5 -15.5q0 -17 -11 -26.5t-43 -12.5l-40 -4 q-23 -2 -40 -10.5t-27 -16.5t-21 -29t-14.5 -31t-14.5 -42q79 4 157.5 -6.5t156 -41t137 -78.5t96 -123.5t36.5 -170.5q0 -122 -58 -233.5t-166.5 -200t-281.5 -140t-386 -48.5q-21 -61 -21 -99q0 -51 76 -59l47 -4l21 -3t16.5 -9.5t9.5 -22.5q0 -39 -53 -39q-44 0 -131.5 6 t-130.5 6q-45 0 -137 -6t-138 -6q-55 0 -55 35q0 33 49 37l72 6q50 4 81.5 47t39.5 88l4 23q-51 -2 -106 2.5t-123.5 18.5t-128.5 44.5t-111 74.5t-81 115t-30 160zM305 666q0 -158 92.5 -262.5t249.5 -100.5l268 905q-140 1 -258 -46.5t-193 -125t-117 -174t-42 -196.5z M899 305q128 -1 235 37.5t175 98t115 134t67 143.5t20 130q0 67 -20 129.5t-59.5 117t-108.5 86t-158 29.5z" />
<glyph unicode="&#x425;" horiz-adv-x="1484" d="M-158 33q0 35 54 43l51 8q73 11 143.5 59.5t159.5 135.5l420 411l-211 457q-35 76 -56.5 116t-45.5 62t-43 28t-58 9q-43 3 -54 14q-7 9 -7 23q0 16 9 24.5t17 9.5t21 1q53 0 149.5 -6.5t143.5 -6.5q41 0 125 6.5t128 6.5q50 0 50 -35q0 -39 -66 -39h-57q-56 0 -56 -49 q0 -27 37 -113l162 -352l254 266q154 160 154 199q0 38 -58 46q-13 2 -51 5q-5 1 -17 1.5t-16.5 1.5t-12.5 3t-11 5.5t-5.5 9t-2.5 14.5q0 24 15.5 30.5t45.5 6.5q40 0 119.5 -5.5t118.5 -5.5t116 5.5t117 5.5q45 0 45 -31q0 -10 -4 -17.5t-8.5 -11.5t-14.5 -7t-16 -3.5 t-20 -1.5t-19 -2q-58 -6 -104.5 -29.5t-81 -53.5t-104.5 -99q-12 -13 -19 -19l-387 -383l207 -442q7 -16 24.5 -53.5t24 -51t21.5 -42t23.5 -39.5t24.5 -29t30 -25.5t33.5 -14t41.5 -7.5l35 -2q15 0 30 -8.5t15 -26.5q0 -35 -51 -35q-54 0 -157 6t-153 6q-47 0 -142.5 -6 t-143.5 -6q-20 0 -30.5 6t-12.5 12t-2 15q0 16 3 22.5t20 12t54 8.5q65 3 91 15.5t26 51.5q0 17 -7 39.5t-15.5 42t-34.5 74.5l-146 317l-327 -337q-119 -121 -119 -166q0 -18 17.5 -26.5t76.5 -12.5q49 -3 61 -14q9 -8 9 -23q0 -37 -58 -37q-44 0 -126.5 6t-122.5 6 q-37 0 -115 -6t-119 -6q-35 0 -35 33z" />
<glyph unicode="&#x426;" horiz-adv-x="1662" d="M-137 31q0 35 53 39l41 4q54 5 78 39.5t43 101.5l284 961q29 93 29 110q0 30 -20.5 48.5t-55.5 21.5l-47 4l-21 3t-16.5 9.5t-9.5 22.5q0 39 47 39t140 -5.5t139 -5.5q44 0 133.5 5.5t134.5 5.5q51 0 51 -35q0 -19 -10.5 -26.5t-36.5 -10.5q-11 -1 -34 -2t-33.5 -2.5 t-29 -6.5t-29.5 -15.5t-25.5 -27.5t-26 -45.5t-23.5 -66.5l-311 -1051q-2 -5 -2.5 -12.5t0.5 -20.5t13 -21.5t34 -8.5h553q67 0 84 57l307 1037q3 11 11 34.5t12 41t4 34.5q0 59 -74 70l-47 4l-21 3t-16.5 9.5t-9.5 22.5q0 39 47 39t139 -5.5t138 -5.5q45 0 134.5 5.5 t135.5 5.5q51 0 51 -35q0 -19 -10.5 -26.5t-36.5 -10.5q-11 -1 -29.5 -2t-29 -1.5t-26.5 -4t-26.5 -9.5t-24 -18t-23.5 -29t-21 -42.5t-21 -59.5l-284 -967q-47 -151 88 -151q8 0 24.5 1t24.5 1h35q20 0 24 -14q3 -9 0 -17q-2 -8 -41 -125l-41 -123q-4 -12 -13 -41 t-15 -45.5t-15.5 -36t-22 -29t-28.5 -9.5q-15 0 -26.5 9t-10.5 29l2 37q4 58 4 125q0 90 -22 125q-19 30 -45 39.5t-64 7.5l-266 -12h-426q-47 0 -140.5 6t-139.5 6q-40 0 -123.5 -6t-126.5 -6q-41 0 -41 31z" />
<glyph unicode="&#x427;" horiz-adv-x="1427" d="M109 1391q0 43 55 43q44 0 132 -5.5t132 -5.5q45 0 135 5.5t135 5.5q22 0 33.5 -7.5t11.5 -27.5q0 -8 -2 -14t-7.5 -10t-10.5 -6.5t-15 -4t-16.5 -2t-19 -1t-19.5 -1.5q-29 -3 -50.5 -8.5t-38 -18.5t-26.5 -24t-20.5 -36.5t-16.5 -44t-18 -57.5l-43 -143 q-30 -99 -30 -149q0 -83 63.5 -121.5t155.5 -38.5q124 0 276 49q42 15 57.5 30t28.5 62l90 307q29 95 29 119q0 70 -86 76q-46 3 -57 14q-9 10 -9 25q0 33 50 33q42 0 125 -5.5t124 -5.5q44 0 132.5 5.5t132.5 5.5q43 0 43 -31q0 -12 -4.5 -19.5t-15 -11t-20 -5.5t-26 -3.5 t-26.5 -3.5q-59 -10 -81 -37.5t-44 -103.5l-285 -961q-5 -18 -11.5 -41t-9 -32t-4.5 -19.5t-2 -18.5q0 -12 3 -22t6.5 -17t12.5 -12.5t13.5 -8t17 -5t16 -3t17.5 -2t15 -1.5q17 -1 25.5 -2t20.5 -4.5t17.5 -11t5.5 -19.5q0 -39 -55 -39q-44 0 -132 6t-132 6q-45 0 -134.5 -6 t-134.5 -6q-59 0 -59 35q0 31 46 37q10 1 32 2h6q69 3 102 33t62 131l131 442q7 22 -2 22q-4 0 -10 -2.5t-25 -10t-41 -15.5q-193 -78 -375 -78q-175 0 -256.5 64.5t-81.5 170.5q0 64 27 150l57 193q1 4 8 26t12 42t5 30q0 15 -1 22.5t-7.5 23.5t-25 26t-48.5 14l-31 4 q-34 5 -34 29z" />
<glyph unicode="&#x428;" horiz-adv-x="2316" d="M-137 31q0 9 2.5 15.5t9.5 11t12 7.5t17 5t17 2.5t19 2t17 1.5q45 5 72 31.5t51 109.5l285 961q26 78 26 110q0 38 -23.5 52.5t-74.5 19.5q-6 1 -18 2t-17.5 1.5t-14 2.5t-12.5 5.5t-7 10t-3 15.5q0 17 11 26.5t19.5 11t16.5 1.5q48 0 141 -5.5t138 -5.5q44 0 133.5 5.5 t134.5 5.5q53 0 53 -35q0 -33 -49 -37l-71 -6q-24 -2 -43.5 -14t-31 -25t-23 -39t-16 -39.5t-13.5 -42.5l-312 -1048q-4 -24 -5 -37t7.5 -19.5t14.5 -8t16 -1.5h426q33 0 52 13t28 44l309 1037q2 8 10.5 33t12.5 42.5t4 34.5q0 35 -18 50.5t-79 21.5q-6 1 -16.5 1.5t-16 1 t-13.5 2t-11.5 3.5t-8 6t-6 9.5t-1.5 13.5t3 15.5t14.5 15.5t31.5 8q46 0 136.5 -5.5t135.5 -5.5t136 5.5t137 5.5q51 0 51 -35q0 -19 -11 -27t-36 -10l-74 -6q-22 -2 -41 -13.5t-31 -25.5t-23 -38.5t-16.5 -40t-13.5 -42.5l-313 -1051q-11 -25 -5 -44t38 -19h426 q20 0 31.5 2.5t26.5 16t23 40.5l310 1035q26 91 26 110q0 42 -23.5 55t-74.5 17q-6 1 -18.5 2t-17.5 1.5t-14 2.5t-12.5 5.5t-6.5 10t-3 15.5q0 8 3 15.5t14.5 15.5t31.5 8q46 0 136 -5.5t135 -5.5q44 0 135 5.5t139 5.5q54 0 54 -35q0 -31 -48 -37l-73 -6q-24 -2 -43.5 -14 t-31 -25t-23 -39t-16 -39.5t-13.5 -42.5l-275 -930q-28 -92 -28 -121q0 -22 7 -36.5t22 -22t27 -10.5t32 -6q23 -3 32.5 -4.5t20 -10.5t10.5 -24q0 -33 -49 -33q-43 0 -124 5t-120 5q-50 0 -150.5 -4t-150.5 -4h-1026q-47 0 -142 4t-142 4q-39 0 -120.5 -5t-125.5 -5 q-41 0 -41 31z" />
<glyph unicode="&#x429;" horiz-adv-x="2316" d="M-137 31q0 9 2.5 15.5t9.5 11t12 7.5t17 5t17 2.5t19 2t17 1.5q45 5 72 31.5t51 109.5l285 961q26 78 26 110q0 38 -23.5 52.5t-74.5 19.5q-6 1 -18 2t-17.5 1.5t-14 2.5t-12.5 5.5t-7 10t-3 15.5q0 17 11 26.5t19.5 11t16.5 1.5q48 0 141 -5.5t138 -5.5q44 0 133.5 5.5 t134.5 5.5q53 0 53 -35q0 -33 -49 -37l-71 -6q-24 -2 -43.5 -14t-31 -25t-23 -39t-16 -39.5t-13.5 -42.5l-312 -1051q-4 -24 -5 -37t7.5 -19t14.5 -7.5t16 -1.5h426q33 0 52 13t28 44l309 1039q2 8 10.5 33t12.5 42.5t4 34.5q0 35 -18 50.5t-79 21.5q-6 1 -16.5 1.5t-16 1 t-13.5 2t-11.5 3.5t-8 6t-6 9.5t-1.5 13.5t3 15.5t14.5 15.5t31.5 8q46 0 136.5 -5.5t135.5 -5.5t136 5.5t139 5.5q51 0 51 -35q0 -19 -11 -27t-36 -10l-74 -6q-22 -2 -41 -13.5t-31 -25.5t-23 -38.5t-16.5 -40t-13.5 -42.5l-313 -1053q-11 -25 -5 -44t38 -19h424q22 0 35 3 t26.5 16.5t21.5 39.5l308 1037q2 8 8 26t9 29t6 26.5t3 28.5q0 35 -17.5 50.5t-78.5 21.5q-6 1 -17 1.5t-16 1t-13 2t-12 3.5t-8.5 6t-6 9.5t-1.5 13.5t3 15.5t14.5 15.5t31.5 8q46 0 137 -5.5t136 -5.5q44 0 135 5.5t139 5.5q52 0 52 -35q0 -34 -48 -37l-73 -6 q-28 -2 -49.5 -17t-36 -41.5t-23 -48.5t-16.5 -53l-283 -969q-6 -21 -8.5 -31t-6 -32t1 -34t14 -26.5t31 -21t52.5 -6.5q8 0 23.5 1t23.5 1h35q21 0 25 -14q3 -9 0 -17q-1 -5 -3.5 -12.5t-6 -18.5t-12.5 -37t-19 -57l-39 -123q-2 -8 -8 -29t-9.5 -32t-10 -29.5t-12.5 -28.5 t-14.5 -21t-18.5 -16t-21 -5q-13 0 -25 8t-12 30v37q0 57 3 66t3 59q0 92 -23 123q-19 25 -64 35.5t-87 10t-116.5 -4.5t-109.5 -4h-1077q-47 0 -142 5t-142 5q-39 0 -118.5 -5t-123.5 -5q-45 0 -45 31z" />
<glyph unicode="&#x42a;" horiz-adv-x="1630" d="M109 35q0 19 11 27t36 10l73 6q16 1 30 7t23.5 12.5t19.5 20.5t15.5 22.5t13 27t9.5 24.5t8 25.5t6 20.5l322 1073q8 28 -4.5 34.5t-49.5 6.5h-6h-79q-173 0 -301 -160q-8 -10 -23.5 -32t-25 -33.5t-23.5 -22t-27 -10.5q-28 0 -28 32q0 24 71 156q29 53 55.5 104.5 t37.5 74t23 42t21 24.5t23 5q9 0 14.5 -2t9 -3.5t5.5 -8t2.5 -8.5t1 -11.5t0.5 -11.5q1 -19 6.5 -30.5t18 -16t22 -5.5t30.5 -1h3h3h3h641q45 0 45 -35q0 -12 -5 -19.5t-16.5 -11t-19.5 -4.5t-23 -2q-93 -6 -126.5 -37t-67.5 -143l-109 -363q131 25 252 25q492 0 492 -357 q0 -31 -4 -63t-20 -82.5t-42.5 -94t-78.5 -91t-120.5 -80.5t-175 -54.5t-237.5 -21.5q-69 0 -205 6t-203 6q-46 0 -137.5 -6t-138.5 -6q-51 0 -51 35zM596 160q0 -47 40.5 -66.5t143.5 -19.5q108 0 194 27t139 69t88 97.5t49 108t14 105.5q0 75 -23.5 129.5t-56 83t-79 45 t-80 20t-71.5 3.5q-102 0 -200 -23l-129 -436q-29 -100 -29 -143z" />
<glyph unicode="&#x42b;" horiz-adv-x="2054" d="M-137 35q0 19 11 27t36 10l74 6q24 2 44 15t32 28t23.5 41t15.5 39t10 37l276 929q2 8 8.5 25.5t10 29.5t7 30t3.5 34q0 24 -8 40t-23 23t-27 9.5t-28 3.5q-15 1 -22.5 2t-19 5t-17 12t-5.5 20q0 16 11.5 24t19 8.5t22.5 0.5q43 0 124 -5.5t122 -5.5q42 0 127.5 5.5 t128.5 5.5q30 0 39.5 -8t9.5 -23q0 -22 -13.5 -28t-66.5 -13q-9 -1 -14 -2q-53 -7 -76.5 -37.5t-46.5 -103.5l-119 -400q119 25 261 25q69 0 129.5 -7.5t128 -30.5t115 -60.5t79 -104t31.5 -154.5q0 -31 -4 -63t-20 -82.5t-42.5 -94t-78.5 -91t-120.5 -80.5t-175 -54.5 t-237.5 -21.5q-69 0 -205 6t-203 6q-46 0 -137.5 -6t-138.5 -6q-51 0 -51 35zM350 160q0 -46 41 -66t144 -20q108 0 194 27t138.5 69t88 97.5t49 108t13.5 105.5q0 281 -309 281q-103 0 -201 -23l-129 -436q-29 -100 -29 -143zM1186 35q0 33 49 37l72 6q13 1 24.5 5.5 t20.5 9t18 14t15 15.5t13 19.5t10 19t8.5 21.5t6.5 19.5t6 20.5l5 16l276 929q27 88 27 119q0 24 -8.5 40t-23.5 23t-26.5 9.5t-27.5 3.5q-15 1 -22.5 2t-19 5t-17 12t-5.5 20t5 19.5t16 10t16 3t18 0.5q42 0 122 -5.5t120 -5.5q41 0 126.5 5.5t131.5 5.5q49 0 49 -31 q0 -35 -53 -39l-41 -4q-53 -6 -77.5 -38t-45.5 -103l-284 -961q-27 -81 -27 -111t20.5 -48t55.5 -21l47 -4l21 -3t16.5 -9.5t9.5 -22.5q0 -39 -47 -39q-46 0 -135.5 6t-134.5 6q-46 0 -138.5 -6t-138.5 -6q-53 0 -53 35z" />
<glyph unicode="&#x42c;" horiz-adv-x="1384" d="M-137 35q0 31 47 37l74 6q14 1 26.5 5.5t23 12.5t18.5 15t16 20.5t12.5 21t10 23.5t8 22t7 22t5.5 18l276 929q4 15 11 37.5t10 33.5t5.5 24.5t2.5 23.5q0 41 -23.5 56.5t-64.5 19.5q-45 3 -56 15q-8 9 -8 24q0 33 55 33q43 0 124 -5.5t120 -5.5q42 0 127.5 5.5 t128.5 5.5q51 0 51 -31q0 -12 -5 -19.5t-16.5 -11.5t-20.5 -6t-27.5 -3.5t-26.5 -2.5q-53 -7 -76.5 -37.5t-46.5 -103.5l-119 -400q131 25 252 25q492 0 492 -357q0 -31 -4 -62.5t-20 -82t-42.5 -94.5t-78.5 -91t-120.5 -80.5t-175 -55t-237.5 -21.5q-69 0 -205 6t-203 6 q-44 0 -135 -6t-139 -6q-53 0 -53 35zM350 160q0 -51 47.5 -68.5t139.5 -17.5q107 0 192.5 26.5t138.5 68t88 97t48.5 108.5t13.5 107q0 75 -23.5 130t-55.5 83t-78 44.5t-77 20t-67 3.5q-106 0 -207 -23l-129 -436q-31 -104 -31 -143z" />
<glyph unicode="&#x42d;" horiz-adv-x="1484" d="M-75.5 146.5q1.5 16.5 2 22.5t5 25.5t5.5 24.5l20 107q13 63 51 63q35 0 41 -39q5 -34 10 -57t17 -59.5t26.5 -61.5t40 -53.5t57.5 -46t79 -29.5t104 -12q129 0 254 52.5t219 138.5t159.5 197t86.5 226q4 23 5 31.5t1.5 22.5t-3.5 19t-13 9t-23 4h-287q-65 0 -110.5 -10 t-76.5 -34t-48.5 -46.5t-42.5 -65.5q-7 -11 -17 -28.5t-15 -25t-12 -17.5t-12.5 -14.5t-12.5 -7.5t-15 -3q-12 0 -19.5 8t-7.5 15q0 26 23.5 83.5t57.5 150t52 186.5q3 19 5 27.5t7.5 22t14.5 19.5t22 6q8 0 13.5 -1.5t9.5 -6t6.5 -7t4 -11t2.5 -11.5t2 -15t1 -15 q6 -69 37 -93t123 -24h289q21 0 34.5 2.5t26.5 12t20 27.5t11 49t4 77q0 85 -19 153t-46.5 111t-69.5 74.5t-78 47t-81.5 24.5t-70.5 10.5t-55 1.5q-71 0 -128.5 -14t-92 -31t-69.5 -52.5t-50 -56.5t-43 -65q-3 -5 -10.5 -18t-12 -20t-12 -16.5t-15.5 -13.5t-17 -4 q-29 0 -29 25q0 30 8 71l21 103q7 36 25 61.5t61 42.5q61 22 177 41t226 19q293 0 466 -149t173 -433q0 -125 -39 -246t-107.5 -223t-165.5 -189t-210.5 -147.5t-245 -94.5t-266.5 -34q-109 0 -228 27t-182 71q-15 10 -25 20.5t-15 23.5t-7.5 21t-1 24.5z" />
<glyph unicode="&#x42e;" horiz-adv-x="2412" d="M-137 35q0 32 47 37q10 1 30 1.5t29 1.5t26 4.5t26.5 9.5t23.5 18t24 29t21 43t21 59l274 929q29 95 29 119t-7 39.5t-22.5 22.5t-26.5 9.5t-32 4.5q-15 1 -22.5 2t-19 5t-17 12t-5.5 20q0 33 49 33q42 0 125.5 -5.5t124.5 -5.5q44 0 132 5.5t132 5.5q43 0 43 -31 q0 -20 -13 -28t-42 -11q-10 -1 -33.5 -3t-31.5 -4t-25 -10t-26 -22.5t-22 -40.5t-24 -65l-125 -418h322q30 126 96 236t152.5 189t188.5 136t207.5 85t205.5 28q93 0 184.5 -26t175 -80t147.5 -130t102 -185t38 -235q0 -113 -34 -223.5t-93.5 -204.5t-143 -174.5 t-179.5 -137t-205.5 -88.5t-219.5 -32q-141 0 -263 55t-204.5 147t-129 215t-46.5 257q0 35 7 86h-332l-135 -461q-27 -93 -27 -111q0 -24 9 -39t27.5 -21.5t29 -8t32.5 -2.5q18 -1 27 -2t21.5 -4.5t18 -11t5.5 -19.5q0 -39 -49 -39q-45 0 -135.5 6t-135.5 6q-44 0 -135 -6 t-139 -6q-53 0 -53 35zM1079 492q0 -114 31.5 -204t85.5 -145t122.5 -83.5t147.5 -28.5q134 0 251.5 78.5t197.5 208.5t126 300t46 351q0 110 -30 194.5t-83 136t-121 77.5t-147 26q-134 0 -253.5 -84t-200 -216.5t-127 -293.5t-46.5 -317z" />
<glyph unicode="&#x42f;" horiz-adv-x="1382" d="M-256 23q-3 6 0 16q7 27 43 31l41 6q49 7 81 30t93 91l358 395q32 34 56 55t69 42.5t97 25.5v8q-145 9 -226.5 98t-81.5 215q0 41 7.5 79t26 78.5t47.5 75t75.5 65.5t106 52.5t143 34.5t182.5 13q52 0 150 -4q15 0 81.5 -3.5t102.5 -3.5q45 0 134.5 5.5t135.5 5.5 q54 0 54 -31q0 -12 -7 -20.5t-19.5 -12.5t-23 -5.5t-26.5 -2.5t-21 -2q-40 -6 -63 -25t-30.5 -35.5t-21.5 -65.5q-3 -10 -5 -15l-285 -961q-5 -18 -11.5 -41t-9 -32t-4.5 -19.5t-2 -18.5q0 -12 3 -22t6.5 -17t12.5 -12.5t13.5 -8t17 -5t16 -3t17.5 -2t15 -1.5q17 -1 25.5 -2 t20.5 -4.5t17.5 -11t5.5 -19.5q0 -39 -49 -39q-45 0 -135 6t-135 6q-44 0 -136 -6t-139 -6q-53 0 -53 35q0 24 19 31t54 8h11q69 3 102 33t62 131l117 395q3 11 4.5 19.5t2 14t-2.5 9.5t-4 6t-7.5 3t-7 1h-9.5h-9h-19q-22 0 -42.5 -4.5t-36 -9t-33.5 -16.5t-27.5 -18.5 t-26 -23.5t-21.5 -22.5t-21.5 -25t-18.5 -21.5l-383 -445q-55 -64 -85 -82t-81 -18q-19 0 -58 2t-59 2q-24 0 -73 -2t-76 -2q-28 0 -36 12q-3 5 -5 11zM532 1004q0 -50 12.5 -89.5t30.5 -65t46.5 -44t52.5 -27t57.5 -13.5t51.5 -6t44 -1q35 0 54 2.5t30 12.5t14.5 18.5 t10.5 31.5l121 408q1 5 6 20.5t6 20.5t3.5 18t1.5 17.5t-3.5 14.5t-9 14t-15.5 10.5t-23 9t-33.5 4.5t-43.5 2q-77 0 -140 -14t-105 -36.5t-74 -54.5t-49.5 -63.5t-28.5 -68.5t-14 -64.5t-3 -56.5z" />
<glyph unicode="&#x430;" horiz-adv-x="1335" d="M27 201q0 111 47 232.5t128.5 228t183.5 193t222.5 137t233.5 50.5q53 0 82.5 -8t66.5 -28q33 -17 37 -17t7 0.5t5.5 3t4.5 3.5t4.5 5t3 5.5t3 7t3.5 6.5q4 7 11 20t9.5 16t9 9t15 7t22.5 1h121q33 0 33 -35q0 -13 -16 -61l-127 -377q-75 -225 -98 -303t-23 -117 q0 -25 8 -32t20 -7q50 0 150 131l51 68q12 16 25 16q22 0 22 -26q0 -20 -28 -62q-84 -123 -199.5 -216t-214.5 -93q-80 0 -80 88q0 98 88 356l43 127h-8q-64 -102 -143.5 -199.5t-168.5 -182.5t-183.5 -137t-172.5 -52q-27 0 -51 5t-52 21t-48 41.5t-33.5 70.5t-13.5 104z M264 219q0 -106 94 -106q124 0 332 247q110 129 209.5 283t99.5 231q0 48 -33.5 77.5t-84.5 29.5q-85 0 -177 -53.5t-168.5 -139.5t-139 -186.5t-97.5 -202.5t-35 -180z" />
<glyph unicode="&#x431;" horiz-adv-x="1245" d="M68 377q0 137 56 305.5t161.5 332.5t234.5 269q138 111 293.5 158.5t370.5 60.5q27 2 60.5 3.5t46 2.5t28 3t22.5 6.5t13 11.5q3 4 9.5 15t13.5 16.5t18 5.5q40 0 20 -68q-11 -38 -29 -67.5t-36.5 -49.5t-48.5 -35t-51 -23t-59.5 -14t-58.5 -8t-63 -6 q-112 -9 -162.5 -14.5t-123.5 -18.5t-128 -32q-92 -33 -161 -85.5t-116 -124t-77 -153t-51 -186.5l10 -6q88 163 239 256.5t330 93.5q98 0 171 -28t115 -76.5t62.5 -107.5t20.5 -128q0 -135 -67 -269t-173.5 -233.5t-245 -162t-274.5 -62.5q-18 0 -37.5 1.5t-58.5 10.5 t-72.5 24.5t-72 47t-66 74t-45.5 110t-18 150.5zM305 315q0 -62 8 -111t27.5 -92.5t58.5 -67.5t95 -24q88 0 175.5 65t150.5 164t102 219.5t39 229.5q0 115 -50.5 191t-152.5 76q-66 0 -132.5 -32.5t-123.5 -93t-101.5 -139.5t-70 -179.5t-25.5 -205.5z" />
<glyph unicode="&#x432;" horiz-adv-x="1148" d="M61 311q0 64 13 133t41.5 143.5t70.5 144t105 132t139.5 109t178.5 73.5t218 27q28 0 53.5 -2t61 -7.5t64 -18.5t54 -32t40 -50.5t14.5 -71.5q0 -55 -25.5 -101.5t-66 -80t-103.5 -62.5t-126.5 -49t-145.5 -39l2 -8q24 4 49 6.5t61.5 2.5t68.5 -5.5t66 -20t57.5 -37.5 t39 -61.5t15.5 -89.5q0 -50 -17.5 -101t-60 -103.5t-105.5 -92t-163 -65t-224 -25.5q-25 0 -44 1t-61 7.5t-73.5 19t-71 38.5t-64.5 62t-43 94t-18 130zM299 242q0 -69 13.5 -114.5t40.5 -68t56 -31t70 -8.5q138 0 213.5 86t75.5 207q0 54 -17.5 93.5t-40 59t-54.5 31 t-51.5 13.5t-39.5 2q-66 0 -231 -23q-35 -123 -35 -247zM348 553q89 0 181.5 22.5t172 63t130.5 105.5t51 141q0 19 -3 34t-14 39.5t-41.5 39t-76.5 14.5q-125 0 -233 -112t-167 -347z" />
<glyph unicode="&#x433;" horiz-adv-x="948" d="M33 164q0 92 58 158t171 129l150 84q46 26 78 46t67.5 49t57 57t35.5 65t14 79q0 62 -36 100t-100 38q-47 0 -99 -20.5t-95.5 -52.5t-64.5 -50t-38 -35l-7 -7t-7.5 -8t-7.5 -7t-8.5 -6t-8 -3.5t-8.5 -1.5q-24 0 -24 27q0 18 35 53q45 47 85 80.5t95 66.5t121 50.5 t141 17.5q28 0 54.5 -2.5t67 -14t70 -31t51 -58t21.5 -90.5q0 -54 -20 -98.5t-64.5 -84.5t-82.5 -65t-107 -66q-6 -4 -19 -11q-46 -26 -69.5 -40.5t-65.5 -41.5t-65.5 -46.5t-53.5 -48.5t-45.5 -55t-27 -58.5t-11.5 -66.5q0 -17 5 -35.5t18.5 -40.5t44 -36.5t74.5 -14.5 q92 0 175.5 47.5t178.5 134.5q29 26 41 26q22 0 22 -22q0 -19 -20 -39q-90 -92 -134 -127q-163 -129 -362 -129q-81 0 -139.5 19t-87 51t-41 65t-12.5 70z" />
<glyph unicode="&#x434;" horiz-adv-x="1216" d="M57 344q0 116 54.5 237t143.5 215.5t212 155t250 60.5q161 0 235 -131l6 2q-1 68 -12.5 135t-44.5 143t-83 135.5t-135.5 104.5t-195.5 57q-16 1 -23 2t-20 4t-18.5 9t-5.5 16q0 7 2.5 12t8 8t10.5 4.5t14.5 2t15.5 0.5h17h16q100 0 193 -24t179.5 -80t150 -139t102 -209 t38.5 -282q0 -148 -61 -298t-160 -265t-233.5 -187.5t-272.5 -72.5q-94 0 -169 32.5t-120.5 87t-69.5 122.5t-24 143zM295 311q0 -132 50.5 -211.5t141.5 -79.5q105 0 208 93t169 245.5t66 311.5q0 16 -0.5 28t-4 43t-10 55t-21.5 54.5t-35 51t-52.5 34.5t-73.5 14 q-112 0 -214.5 -92.5t-163 -241t-60.5 -305.5z" />
<glyph unicode="&#x435;" horiz-adv-x="1103" d="M57 338q0 137 63.5 272.5t164.5 236.5t233.5 163.5t263.5 62.5q134 0 214.5 -65.5t80.5 -169.5q0 -69 -29.5 -126t-85 -99t-125.5 -74t-160.5 -54t-180 -36t-193.5 -23q-8 -36 -8 -82q0 -132 65.5 -195t159.5 -63t186.5 57t149.5 123l27 31q18 18 26 18q23 0 23 -20 q0 -22 -47 -82q-20 -27 -47 -56t-73 -66t-96.5 -65t-118.5 -47.5t-138 -19.5q-164 0 -259.5 103.5t-95.5 275.5zM311 485q95 5 200.5 33.5t178.5 79.5q51 35 86.5 79.5t50 88t20 73.5t5.5 56q0 59 -29.5 88t-79.5 29q-56 0 -118 -32.5t-122.5 -95t-112 -166.5t-79.5 -233z " />
<glyph unicode="&#x436;" horiz-adv-x="2101" d="M-66 102q0 43 30 69t75 26q30 0 51 -11.5t31 -25t22 -37.5q4 -7 11 -21t10 -19.5t9.5 -16t11.5 -14.5t12.5 -9.5t16 -7.5t19.5 -2q78 0 164 116t140.5 279t54.5 297q0 122 -49 168.5t-131 46.5q-92 0 -228 -129q-46 -43 -61 -43q-8 0 -16.5 6.5t-8.5 18.5q0 13 27 45 q115 128 226.5 181.5t203.5 53.5q109 0 183.5 -78.5t74.5 -246.5q0 -114 -53 -256l258 286q18 20 29.5 35t18.5 29.5t10 22.5t7.5 26t8.5 29l22 67q14 45 45 45h127q32 0 17 -49l-216 -643l330 367q95 152 240.5 259t304.5 107q85 0 145 -40.5t60 -102.5q0 -52 -33.5 -74 t-71.5 -22q-69 0 -104 73q-3 6 -10 19.5t-10.5 19.5t-10 16.5t-11.5 15.5t-12.5 11t-16.5 8t-19 2q-45 0 -106.5 -59t-118.5 -151.5t-96.5 -222t-39.5 -253.5q0 -69 15 -117t40 -70.5t49 -31t52 -8.5q117 0 256 135q43 43 59 43q9 0 17 -7t8 -17q0 -16 -27 -47 q-79 -93 -194.5 -163.5t-235.5 -70.5q-86 0 -146.5 49t-87 124.5t-26.5 170.5q0 100 55 238l-258 -287q-18 -20 -29 -34.5t-20 -35.5t-12 -29t-14 -42l-27 -80q-6 -20 -13 -26.5t-28 -6.5h-135q-29 0 -14 37l225 653l-330 -364q-122 -185 -267.5 -276t-277.5 -91 q-82 0 -144.5 37.5t-62.5 105.5z" />
<glyph unicode="&#x437;" horiz-adv-x="974" d="M-80 164q0 46 30.5 90.5t67.5 44.5q60 0 80 -98q5 -23 8.5 -36t11 -35t16 -35t23.5 -29t33 -25t44.5 -15t58.5 -6q141 0 229 88.5t88 217.5q0 198 -262 198h-43q-17 0 -12 15l14 41q3 12 21 12h57q125 0 217 76t92 176q0 65 -40 111t-132 46q-24 0 -46.5 -3t-43 -10.5 t-36.5 -13.5t-33.5 -18.5t-27.5 -19t-25.5 -22t-20.5 -20t-18.5 -20t-14.5 -16.5q-32 -37 -55 -37q-31 0 -31 29q0 43 63 102q42 39 88 65t93 37.5t82 15t77 3.5q95 0 163.5 -18t104 -48.5t51 -63.5t15.5 -71q0 -117 -112.5 -204.5t-278.5 -102.5v-8q81 2 143 -13t96.5 -39 t56.5 -57.5t29 -63t7 -62.5q0 -68 -37.5 -132t-106 -116t-174.5 -83.5t-233 -31.5q-97 0 -174 22t-119 55t-63 66t-21 62z" />
<glyph unicode="&#x438;" horiz-adv-x="1363" d="M51 745q0 19 49 84q89 115 192.5 179.5t184.5 64.5q101 0 101 -121q0 -13 -2 -26.5t-4.5 -24t-9 -31t-10.5 -31t-15.5 -41t-16.5 -44.5l-178 -469q-31 -79 -31 -125q0 -51 49 -51q64 0 205 114q139 112 272 306t191 384l23 74q7 26 21 35.5t42 9.5h139q25 0 27.5 -15 t-4.5 -26l-193 -567q-71 -209 -71 -270q0 -41 26 -41q38 0 89 45.5t87 91.5l46 57q24 33 38 33q23 0 23 -23q0 -20 -31 -59q-230 -299 -436 -299q-40 0 -62 24t-22 68q0 106 102 383l39 107h-6q-156 -265 -360 -423.5t-342 -158.5q-22 0 -42.5 5.5t-42.5 19t-35 43t-13 71.5 q0 99 77 283l148 360q49 116 49 156q0 15 -5.5 23t-10 9t-11.5 1q-65 0 -208 -189q-18 -22 -35 -22q-23 0 -23 26z" />
<glyph unicode="&#x439;" horiz-adv-x="1388" d="M76 745q0 19 49 84q89 115 192.5 179.5t184.5 64.5q100 0 100 -121q0 -9 -1 -19.5t-2.5 -18.5t-5 -21t-6 -21t-8.5 -25.5t-9 -26t-12 -32t-13 -34.5l-178 -469q-31 -79 -31 -125q0 -51 49 -51q64 0 205 114q139 112 272 306t191 384l22 74q7 26 21.5 35.5t42.5 9.5h139 q25 0 27 -15t-5 -26l-192 -567q-72 -212 -72 -270q0 -41 27 -41q38 0 89 45.5t87 91.5l45 57q24 33 39 33q23 0 23 -23q0 -20 -31 -59q-230 -299 -436 -299q-40 0 -62 24t-22 68q0 106 102 383l39 107h-6q-156 -265 -360.5 -423.5t-342.5 -158.5q-22 0 -42.5 5.5t-42.5 19 t-35 43t-13 71.5q0 97 78 283l147 360q50 119 50 156q0 15 -5.5 23t-10 9t-11.5 1q-66 0 -209 -189q-18 -22 -35 -22q-22 0 -22 26zM606 1276q0 35 37.5 81t82 76.5t67.5 30.5q4 0 7.5 -1t5.5 -2.5t3.5 -4t2 -4.5t1 -5t0.5 -4.5v-4.5v-4q0 -12 -4 -32t-4 -30 q0 -137 119 -137q146 0 333 209q19 21 34.5 24.5t22.5 -3.5t7 -15q0 -17 -18 -39q-242 -283 -480 -283q-102 0 -159.5 50t-57.5 98z" />
<glyph unicode="&#x43a;" horiz-adv-x="1273" d="M46.5 725.5q-5.5 10.5 4.5 36.5q56 102 181 206.5t221 104.5q110 0 110 -129q0 -103 -55 -262l-72 -215h8q37 49 77.5 99.5t104.5 125t130 137t137.5 120.5t143.5 91t132 33q59 0 104.5 -33.5t45.5 -91.5q0 -44 -27.5 -73t-70.5 -29q-12 0 -23 2.5t-19.5 5.5t-17.5 9.5 t-14.5 11t-12.5 13t-9.5 12t-9 12.5t-7.5 10q-28 36 -61 36q-65 0 -181.5 -106t-210.5 -221q56 -23 98 -62t66.5 -88t37.5 -87t24 -87q9 -41 12.5 -55.5t12 -48.5t14 -47t15.5 -37t20.5 -33.5t25 -22t32 -16.5t38.5 -4q98 0 98 115q0 42 -24.5 79.5t-24.5 57.5q0 12 10 20.5 t29 8.5q34 0 58 -37.5t24 -91.5q0 -97 -65 -166.5t-193 -69.5q-79 0 -137 23.5t-89 57t-50.5 85t-25 92.5t-6.5 94q-1 30 -2 69t-1.5 58t-1.5 43.5t-3 36.5t-6 26t-10 23t-15 17q-213 -233 -288 -445l-31 -88q-17 -51 -59 -51h-144q-28 0 -28 14q0 9 6 33l198 594 q62 189 62 236q0 49 -31 49q-20 0 -52.5 -25.5t-56 -51.5t-57.5 -66.5t-37 -43.5q-22 -24 -32 -24q-14 0 -19.5 10.5z" />
<glyph unicode="&#x43b;" horiz-adv-x="1191" d="M-229 98q0 46 29 75.5t75 29.5q44 0 63 -22t29 -58q19 -68 53 -68q24 0 62.5 34.5t88.5 104t114 194.5t127 286q71 179 71 233q0 18 -5.5 30t-11 17.5t-20.5 9t-20.5 4t-24.5 1.5l-63 2q-23 1 -31 8t-8 22q0 14 9 21.5t17.5 8.5t24.5 1h594q84 0 115 -23t31 -63 q0 -30 -23 -106l-186 -568q-3 -8 -10.5 -27t-12 -32t-8.5 -31t-4 -32q0 -35 31 -35q30 0 91 56t97 105l31 43q16 23 32 23q21 0 21 -23q0 -20 -29 -61q-216 -299 -397 -299q-54 0 -86.5 33.5t-32.5 91.5q0 25 11.5 65t49.5 153q3 9 5 14.5t5 14t5 15.5l162 483q20 66 20 82 q0 54 -82 54h-45q-38 0 -64.5 -4t-40.5 -8.5t-24 -18t-12.5 -20t-9.5 -27.5q-33 -97 -98.5 -246.5t-112.5 -241.5q-53 -103 -99 -176t-101.5 -136.5t-116.5 -95.5t-128 -32q-66 0 -111.5 36t-45.5 103z" />
<glyph unicode="&#x43c;" horiz-adv-x="1615" d="M-229 98q0 41 27.5 73t76.5 32q25 0 42.5 -7t27.5 -21t14.5 -24t9.5 -28q7 -21 11.5 -31.5t15.5 -22.5t24 -12q57 0 170 175.5t207 441.5q64 173 64 231q0 35 -20 49t-76 17q-8 0 -19 0.5t-16.5 0.5t-13 0.5t-11 2.5t-7 5t-4.5 8.5t-1 12.5q0 14 9 21.5t17.5 8.5t24.5 1 h381q61 0 61 -63l-4 -635l482 684q10 14 24 14h228q38 0 26 -39l-239 -721q-5 -16 -15.5 -44t-15 -45t-4.5 -33q0 -35 30 -35q36 0 110.5 76t107.5 124q1 2 4.5 7t5 6.5t4.5 5t5.5 5t6.5 2.5t8 1q23 0 23 -20t-31 -64q-87 -130 -195.5 -214.5t-191.5 -84.5q-54 0 -91.5 30.5 t-37.5 94.5q0 41 45 174l223 668h-14l-651 -934q-14 -21 -20.5 -27t-18.5 -6q-6 0 -9 1t-6.5 7.5t-3.5 18.5l4 946h-12q-68 -264 -198 -533q-107 -222 -214 -331t-223 -109q-47 0 -80 15t-48.5 38.5t-22 44.5t-6.5 41z" />
<glyph unicode="&#x43d;" horiz-adv-x="1345" d="M43 739q0 14 25 52q73 106 186 194t201 88q36 0 60 -15.5t33.5 -40.5t12 -40.5t2.5 -30.5q0 -90 -55 -264l-27 -84q0 -1 -1 -2q-1 -17 14 -18h395q19 0 26 18l134 401q5 17 13.5 26t27.5 9h157q37 0 25 -39l-240 -721q-33 -97 -33 -122q0 -35 29 -35q30 0 75 42.5 t144 159.5q19 25 33 25q8 0 15.5 -5.5t7.5 -17.5q0 -20 -29 -61q-95 -134 -200 -216.5t-189 -82.5q-127 0 -127 125q0 42 41 164l80 237q8 25 -19 25h-387q-21 0 -29 -21l-147 -438q-17 -51 -59 -51h-146q-10 0 -15 2t-9.5 12.5t4.5 32.5l198 594q62 189 62 238 q0 21 -8.5 34t-22.5 13q-64 0 -195 -181q-21 -30 -43 -30q-20 0 -20 24z" />
<glyph unicode="&#x43e;" horiz-adv-x="1273" d="M57 406q0 130 58.5 253t153.5 213.5t223 145.5t260 55q135 0 242 -62.5t165 -168.5t58 -234q0 -119 -54.5 -236t-147 -208.5t-226 -148t-279.5 -56.5q-105 0 -191.5 36.5t-143 98.5t-87.5 142.5t-31 169.5zM295 299q0 -17 0.5 -32.5t5 -45.5t12 -54.5t23 -53t36.5 -48 t54.5 -32.5t75.5 -13q76 0 145 38t120 100t92 140t67 160.5t39.5 157.5t13.5 134q0 262 -217 262q-99 0 -188.5 -69t-149 -175.5t-94.5 -231t-35 -237.5z" />
<glyph unicode="&#x43f;" horiz-adv-x="1370" d="M43 729q0 20 25 55q229 289 399 289q102 0 102 -117q0 -123 -77 -335l-46 -127h7q60 108 138 209t166 185t184.5 134.5t182.5 50.5q78 0 121 -41.5t43 -107.5q0 -24 -3.5 -47.5t-14 -56t-15.5 -45.5t-23 -56t-20 -49l-161 -404q-37 -90 -37 -125t33 -35q35 0 102.5 66.5 t118.5 130.5q20 25 39 25q20 0 20 -23q0 -21 -27 -57q-38 -52 -103.5 -116t-154 -118.5t-153.5 -54.5q-50 0 -82.5 29t-32.5 90q0 69 70 248l168 426q30 79 30 116t-14 50.5t-43 13.5q-62 0 -128 -45.5t-144 -128.5q-82 -87 -148.5 -179t-111.5 -179t-70.5 -147t-50.5 -132 l-27 -74q-7 -22 -19.5 -33t-20.5 -12.5t-21 -1.5h-146h-6.5t-8.5 1.5t-7 5t-3 10t3 16.5l196 588q64 193 64 249q0 48 -33 48q-32 0 -95 -62.5t-108 -122.5q-19 -28 -34 -28q-23 0 -23 24z" />
<glyph unicode="&#x440;" horiz-adv-x="1329" d="M-328 -516q0 12 4.5 20.5t10.5 13.5t18 8.5t19 5t23.5 3t21.5 2.5q78 10 112 42t62 120l399 1245q-109 -23 -164 -43q-1 0 -6.5 -1.5t-9.5 -2t-10.5 -1.5t-11.5 0.5t-9.5 4t-7 8t-2.5 13.5q0 15 7 25t13 13t19 7l65 18q84 24 142 35l71 215q6 20 9 26t14.5 12t34.5 7 l139 4q26 0 31.5 -8.5t-2.5 -30.5l-64 -194q115 22 242 22q430 0 430 -356q0 -182 -117 -379q-78 -130 -181.5 -217t-207.5 -124.5t-213 -37.5q-178 0 -268 107l-90 -275q-39 -117 -39 -166q0 -21 9 -37t21 -25t34 -15.5t36 -9t39 -5.5l45 -6q29 -4 29 -33q0 -33 -54 -33 q-51 0 -149 8.5t-146 8.5q-50 0 -153 -8.5t-156 -8.5q-39 0 -39 23zM332 168q0 -71 51.5 -107t128.5 -36q56 0 108.5 18.5t92 46.5t75.5 67.5t60 75t45 74.5q40 71 68.5 143.5t42 121.5t21 98t8.5 66t1 32q0 28 -3 52t-18 62t-42 64t-80.5 46t-126.5 20q-85 0 -186 -33 l-213 -668q-33 -101 -33 -143z" />
<glyph unicode="&#x441;" horiz-adv-x="1046" d="M57 348q0 124 48 239.5t127 202t177.5 151.5t202.5 98.5t199 33.5q119 0 184.5 -40.5t65.5 -100.5q0 -40 -29.5 -69t-83.5 -29q-13 0 -24.5 1.5t-20.5 4t-18 7l-15 7.5t-13 9.5t-10.5 10t-9.5 11t-7.5 10t-6.5 10t-6 8.5l-29 41q-12 18 -18.5 26t-21.5 16t-35 8 q-44 0 -99.5 -33.5t-111 -95t-102.5 -139t-76 -175.5t-29 -194q0 -73 22 -133t76.5 -102t134.5 -42q67 0 132.5 26t116 68t78 70t50.5 57q1 1 5.5 6t8 9t8.5 7t9 3q9 0 18 -5t9 -16q0 -12 -19 -43q-93 -138 -237.5 -225.5t-290.5 -87.5q-163 0 -261 108.5t-98 280.5z" />
<glyph unicode="&#x442;" horiz-adv-x="1949" d="M43 743q0 20 49 78q80 97 191 174.5t184 77.5q94 0 94 -100q0 -88 -80 -334l-32 -100l4 -2q67 128 152 237t171 184q128 115 248 115q26 0 50 -8t47.5 -26t38 -54t14.5 -86q0 -107 -66 -303l-25 -76h4q81 143 163.5 249t145.5 162.5t126 90t102.5 42.5t77.5 9 q26 0 51 -7.5t50.5 -24.5t41 -52.5t15.5 -83.5q0 -86 -80 -274l-148 -357q-39 -101 -39 -137q0 -37 29 -37q32 0 97 59.5t120 135.5q26 35 45 35q11 0 17 -5t6 -8v-8q0 -34 -43 -84q-31 -37 -57.5 -66.5t-69.5 -69.5t-83 -66t-91.5 -45t-100.5 -19q-51 0 -81.5 29.5 t-30.5 85.5q0 35 9 75t20 69t34 87l162 412q47 121 47 166q0 65 -57 65q-82 0 -205 -141q-107 -121 -217 -310t-176 -360l-37 -96q-7 -18 -10 -24t-15 -11.5t-35 -5.5h-133h-5.5h-6t-5.5 0.5t-6 1t-4.5 2t-4 3.5t-2.5 5.5t-1 7.5q0 6 11 43l100 293q143 417 143 523 q0 71 -51 71q-68 0 -184 -129q-84 -94 -154 -197t-120.5 -206t-75.5 -162.5t-56 -142.5l-28 -76q-4 -11 -9 -18.5t-8.5 -11t-9.5 -5.5t-9 -2.5t-10 0t-8 0.5h-135q-8 0 -12 0.5t-10.5 3.5t-9 8.5t-2 17t5.5 27.5l139 412q7 22 37 108t43 127t27 99t14 90q0 18 -5 24.5 t-18 6.5q-29 0 -82.5 -48t-115.5 -128q-1 -1 -4.5 -5.5t-5.5 -6.5t-5.5 -6t-6 -6t-6 -4.5t-7 -3.5t-6.5 -1q-9 0 -17 7t-8 21z" />
<glyph unicode="&#x443;" horiz-adv-x="1122" d="M-285 -416q0 38 27 70.5t74 32.5q52 0 112 -64q40 -44 55 -53q23 -14 52 -14q72 0 160 88q52 52 87 111t51 119.5t21.5 103.5t7.5 96q3 87 0 174q0 9 -1 34q-16 644 -123 644q-34 0 -79.5 -49t-84.5 -138q-4 -10 -6 -13.5t-6.5 -10t-10.5 -8.5t-14 -2q-25 0 -25 22 q0 18 27 70q73 132 158.5 204t158.5 72q52 0 92.5 -46t64.5 -118.5t39.5 -172t21.5 -196t6 -200.5q0 -125 -13 -281q51 57 107.5 128.5t123.5 168t109.5 194t42.5 167.5q0 50 -30 127q-27 67 -27 102q0 55 30.5 91t73.5 36q57 0 87 -49t30 -121q0 -137 -102 -325.5 t-379 -534.5q-263 -331 -421 -461.5t-308 -130.5q-84 0 -136.5 42t-52.5 91z" />
<glyph unicode="&#x444;" horiz-adv-x="1851" d="M57 328q0 122 45 239.5t118.5 206.5t163 158t182.5 105t173 36q146 0 211 -127l25 92q22 85 68.5 169t113.5 158t161 119.5t198 45.5q80 0 131 -38t51 -91q0 -37 -26.5 -66.5t-74.5 -29.5q-44 0 -78 25.5t-44 70.5q-3 13 -3.5 15t-4.5 12t-8.5 12.5t-13 6t-20.5 3.5 q-43 0 -79 -33t-68 -108t-45.5 -115.5t-39.5 -132.5q-5 -16 -7 -23l-35 -120q107 87 186 121t154 34q133 0 218 -105t85 -266q0 -123 -58 -256.5t-150 -240.5t-218.5 -176.5t-253.5 -69.5q-153 0 -215 121l-18 -64q-14 -50 -26 -86.5t-37 -99.5t-51.5 -109.5t-69 -100.5 t-89 -88t-111 -57.5t-137.5 -23.5q-96 0 -162.5 47t-66.5 119q0 44 28.5 71t69.5 27q93 0 113 -96q2 -11 4.5 -31t4.5 -27.5t6.5 -19t13 -17.5t22.5 -9q13 -3 29 0q70 11 106 85.5t114 339.5q6 19 9 29l43 144q-113 -87 -186.5 -120.5t-149.5 -33.5t-135.5 33t-94.5 87.5 t-53 118t-18 130.5zM295 348q0 -116 49 -191t139 -75q86 0 166.5 69.5t124.5 217.5l105 350q22 73 22 123q0 16 -2 32.5t-10.5 42.5t-23 45t-43.5 33.5t-68 14.5q-80 0 -163 -57.5t-148 -149t-106.5 -213.5t-41.5 -242zM948 188q0 -14 2 -31t11.5 -42t24.5 -44.5t44 -33.5 t68 -14q107 0 213.5 95.5t175.5 250.5t69 315q0 113 -48 188.5t-142 75.5q-71 0 -131.5 -42.5t-97.5 -103.5t-60 -138l-106 -351q-23 -71 -23 -125z" />
<glyph unicode="&#x445;" horiz-adv-x="1234" d="M-92 98q0 77 46 126.5t101 49.5q43 0 67.5 -27.5t24.5 -62.5q0 -23 -8 -43q-10 -30 -10 -39q0 -22 27 -22q66 0 173.5 118t211.5 281l-74 234q-68 219 -150 219q-28 0 -49 -15.5t-33.5 -44.5t-19.5 -54.5t-12 -61.5q-1 -4 -2 -11.5t-1.5 -11t-1.5 -9t-2 -8t-2.5 -6.5 t-3.5 -5.5t-4.5 -3.5t-6 -2.5t-7.5 -0.5q-29 0 -29 47q0 124 81.5 226t199.5 102q37 0 69.5 -12.5t56.5 -31.5t46 -52.5t37 -63.5t31 -77.5t25.5 -81.5t23.5 -88q77 123 145 207t121 125.5t92.5 58t77.5 16.5q20 0 39.5 -5t40.5 -17.5t34 -40t13 -66.5q0 -69 -42.5 -119.5 t-100.5 -50.5q-34 0 -58 21.5t-24 56.5q0 23 2 33v22q-3 23 -25 23q-28 0 -97.5 -77t-120 -146.5t-77.5 -110.5l84 -272q32 -112 54 -151q32 -56 73 -56q76 0 105 166q6 42 14 50q6 5 14 5q13 0 21 -12.5t8 -41.5t-12 -69q-37 -130 -106 -193t-148 -63q-42 0 -74.5 17.5 t-57.5 47.5t-49.5 89t-44.5 122.5t-49 167.5q-161 -234 -282 -339t-232 -105q-68 0 -105.5 37.5t-37.5 101.5z" />
<glyph unicode="&#x446;" horiz-adv-x="1349" d="M43 735v3v3q0 13 16 41q90 140 206.5 215.5t201.5 75.5q55 0 78.5 -34.5t23.5 -86.5q0 -49 -57 -198l-178 -469q-31 -81 -31 -131q0 -45 49 -45q73 0 203 114q163 144 277.5 310.5t185.5 379.5l24 74q8 24 21 34.5t43 10.5h133q43 0 29 -41l-193 -567q-74 -215 -74 -274 q0 -37 29 -37q42 0 104.5 59t110.5 127q26 35 41 35q12 0 18 -13t-6 -36l-38 -58q-7 -11 -20 -28t-19 -26t-15 -26t-13 -33t-7 -40t-2.5 -55t4.5 -70q4 -62 4 -90q0 -227 -256 -348q-19 -11 -42.5 -10.5t-23.5 20.5q0 15 15 24l24 17q36 24 52 41t26.5 54.5t9.5 100.5 q-2 98 21 164t100 156l-8 6q-132 -125 -258 -125q-24 0 -41 4t-34 26t-17 62q0 41 38.5 177.5t63.5 201.5l41 111h-6q-56 -95 -139 -195.5t-178 -188t-198.5 -143t-186.5 -55.5q-69 0 -101.5 39t-32.5 100q0 93 78 283l148 360q49 119 49 152q0 37 -29 37q-23 0 -51.5 -18 t-59.5 -52t-50 -57.5t-46 -59.5q-16 -24 -37 -24q-4 0 -7.5 1t-5.5 2t-3.5 2.5t-2 3t-1 4t-0.5 3.5z" />
<glyph unicode="&#x447;" horiz-adv-x="1286" d="M0 741q0 14 20 45q66 101 187 194t221 93q9 0 19.5 -1.5t28 -8.5t30.5 -19.5t23 -38t10 -59.5q0 -66 -41 -186l-45 -123q-1 -4 -9 -25.5t-12 -37t-4 -29.5q0 -40 26.5 -55t75.5 -15q30 0 63 5.5t79 24.5t86.5 48.5t79.5 83.5t63 125l80 237q11 33 49 33h158q28 0 18 -28 l-223 -668q-3 -10 -14 -40.5t-17 -49.5t-12 -46t-6 -46q0 -35 31 -35q27 0 66.5 33t121.5 124q5 6 16 19.5t18 22.5t16.5 16.5t15.5 7.5q7 0 15.5 -6t8.5 -19q0 -31 -60 -99.5t-114 -117.5q-148 -141 -268 -141q-59 0 -85 33t-26 84q0 78 78 291l63 176l-6 2 q-84 -89 -222 -149t-263 -60q-168 0 -168 129q0 59 47 174l43 106q39 94 39 136q0 49 -33 49q-54 0 -209 -182q-4 -4 -9 -10l-7.5 -9t-6 -6t-6 -4.5t-5.5 -1.5q-10 0 -17.5 6.5t-7.5 17.5z" />
<glyph unicode="&#x448;" horiz-adv-x="1925" d="M43 735v3v3q0 13 16 41q90 140 206.5 215.5t201.5 75.5q42 0 72 -26.5t30 -94.5q0 -47 -50 -178q-4 -13 -7 -20l-178 -469q-39 -101 -39 -152t45 -51q63 0 186 121t245.5 310t174.5 357l35 113q7 24 20.5 36.5t45.5 12.5h131q16 0 24.5 -5.5t8.5 -17.5t-1 -16.5t-4 -15.5 l-174 -498q-26 -74 -57 -185.5t-31 -154.5q0 -57 45 -57q53 0 138 75t170.5 188t164.5 256.5t121 270.5l37 113q8 22 18 33t18.5 12.5t26.5 1.5h132q13 0 23.5 -5t10.5 -11q0 -13 -6 -37l-196 -573q-70 -207 -70 -265q0 -35 25 -35q30 0 65.5 26.5t95.5 96.5l22 27.5 t23 28.5t19.5 23t19 18t15.5 6t13.5 -7t6.5 -18q0 -15 -29 -55q-72 -104 -198 -198.5t-217 -94.5q-97 0 -97 92q0 22 3.5 45t13.5 59t18.5 63t28.5 88t33 102l28 88l-4 2q-73 -135 -159 -242t-167 -170t-153 -95t-129 -32q-24 0 -44.5 5t-42.5 18.5t-35 43t-13 72.5 q0 47 30.5 161t61.5 194l20 53h-8q-55 -103 -129.5 -200.5t-156.5 -175t-171.5 -124.5t-166.5 -47q-62 0 -100 33t-38 106q0 94 78 283l148 360q14 34 31.5 87t17.5 65q0 17 -6 26t-10.5 10t-12.5 1q-68 0 -207 -187q-16 -24 -37 -24q-4 0 -7.5 1t-5.5 2t-3.5 2.5t-2 3t-1 4 t-0.5 3.5z" />
<glyph unicode="&#x449;" horiz-adv-x="1929" d="M43 741q0 13 16 41q84 128 201.5 209.5t206.5 81.5q42 0 72 -26.5t30 -94.5q0 -47 -50 -178q-4 -13 -7 -20l-178 -469q-2 -6 -8 -22.5l-8 -22t-6.5 -19t-6.5 -21.5t-4 -20t-3 -23.5t-1 -23.5q0 -51 43 -51q76 0 204 136.5t241.5 322t160.5 329.5l37 113q8 26 21 37.5 t43 11.5h131q47 0 28 -55l-174 -498q-26 -74 -57 -185.5t-31 -154.5q0 -57 47 -57q59 0 151.5 87t186.5 218q190 268 256 485l35 113q7 22 17.5 33t19.5 12.5t26 1.5h134q32 0 32 -16q0 -22 -6 -37l-190 -555q-72 -212 -72 -274q0 -37 27 -37q25 0 59 23t53 42 q59 59 105 121q25 35 41 35q7 0 12.5 -4t7.5 -15t-10 -30q-23 -37 -49.5 -76t-35 -55t-19.5 -35.5t-11 -42v-48t4 -79.5q4 -62 4 -90q0 -68 -22.5 -126t-61.5 -100t-80 -71t-89 -51q-19 -11 -42.5 -10.5t-23.5 20.5q0 16 14 24l25 17q36 24 52 41t26.5 54.5t9.5 100.5 q-2 93 22 167t99 153l-8 6q-136 -125 -258 -125q-93 0 -93 92q0 36 15.5 97t30.5 107t59 175l22 66l-4 2q-128 -237 -297.5 -388t-310.5 -151q-133 0 -133 139q0 92 92 355l18 53h-8q-73 -139 -177 -262t-225 -204t-222 -81q-42 0 -71.5 13.5t-42.5 36.5t-18.5 44t-5.5 45 q0 94 78 283l148 360q1 2 10 23t13.5 32.5t11.5 31t10.5 36t3.5 29.5q0 37 -27 37q-40 0 -105 -65.5t-104 -121.5q-16 -24 -34 -24q-11 0 -16.5 4.5t-6 8t-0.5 9.5z" />
<glyph unicode="&#x44a;" horiz-adv-x="1210" d="M31 754q0 132 77.5 225.5t202.5 93.5q13 0 28 -1t27.5 -2.5t31.5 -4.5t30.5 -5t35.5 -7.5t35.5 -8t41.5 -9t43 -9.5q115 -26 209 -31q41 31 89.5 54.5t82.5 23.5q30 0 48.5 -15.5t18.5 -37.5q0 -10 -4 -20.5t-17 -24.5t-35.5 -22.5t-60 -14.5t-90.5 0 q-71 -55 -128.5 -113t-90.5 -106.5t-49 -75.5t-25 -49q182 43 295 43q87 0 150.5 -23.5t94 -53t48 -71t20.5 -64.5t3 -46q0 -122 -75.5 -218.5t-206.5 -149t-292 -52.5q-72 0 -130.5 14t-96 36t-65.5 52.5t-42 57.5t-22 58.5t-10 49t-2 33.5q0 57 12 110.5t46 121.5 t89.5 134.5t149.5 145t219 156.5l-2 8q-40 -15 -68 -27t-53 -22q-79 -31 -137 -31q-22 0 -46.5 2.5t-40.5 5.5l-16 2q-11 2 -36.5 9t-46.5 10.5t-42 3.5q-65 0 -99 -41.5t-34 -116.5q0 -47 -30 -47q-35 0 -35 70zM438 242q0 -58 12 -100t29.5 -65t43.5 -36.5t47.5 -17 t47.5 -3.5q137 0 212 93t75 225q0 102 -51.5 161.5t-146.5 59.5q-57 0 -199 -29q-70 -153 -70 -288z" />
<glyph unicode="&#x44b;" horiz-adv-x="1669" d="M38.5 724.5q-5.5 11.5 6.5 37.5q20 37 65.5 88t105.5 101.5t133 86t136 35.5q46 0 74.5 -26.5t28.5 -67.5q0 -15 -3.5 -33t-7.5 -32.5t-12 -37t-12.5 -33t-15.5 -35t-13 -30.5l-75 -176q182 41 286 41q25 0 47 -2t62 -9t71 -24.5t62 -45t48 -75t17 -108.5 q0 -123 -76.5 -220t-205.5 -148.5t-285 -51.5q-104 0 -179 23t-115 63.5t-57.5 88t-17.5 104.5q0 41 11 88t23 79t34 84l102 238q43 100 53.5 126.5t10.5 39.5q0 29 -29 29q-36 0 -102.5 -58.5t-108.5 -115.5q-25 -35 -39 -35q-17 0 -22.5 11.5zM332 193q0 -25 2.5 -44.5 t12 -44t26.5 -40t49.5 -26.5t77.5 -11q147 0 226 95.5t79 235.5q0 56 -16.5 96.5t-38 61t-53 32t-50.5 13.5t-41 2q-48 0 -184 -22q-90 -207 -90 -348zM1079 84q0 12 2 23.5t8 32.5t12.5 39t20 59t25.5 77l225 682q4 12 7 17t11 11.5t21 6.5h158q38 0 26 -39l-239 -721 l-13.5 -40.5t-11.5 -34t-7 -24.5t-3 -23q0 -19 10 -27t21 -8q27 0 67.5 35t73.5 75l78 92q19 25 33 25q8 0 15 -5.5t7 -17.5q0 -28 -82 -133q-68 -86 -163.5 -156.5t-176.5 -70.5q-37 0 -63 12t-38.5 32t-18 39.5t-5.5 41.5z" />
<glyph unicode="&#x44c;" horiz-adv-x="1110" d="M38.5 724.5q-5.5 11.5 6.5 37.5q20 37 65.5 88t105.5 101.5t133 86t136 35.5q46 0 74.5 -26.5t28.5 -67.5q0 -15 -3.5 -33t-7.5 -32.5t-12 -37t-12.5 -33t-15.5 -35t-13 -30.5l-75 -176q182 41 286 41q25 0 47 -2t62 -9t71 -24.5t62 -45t48 -75t17 -108.5 q0 -123 -76.5 -220t-205.5 -148.5t-285 -51.5q-104 0 -179 23t-115 63.5t-57.5 88t-17.5 104.5q0 41 11 88t23 79t34 84l102 238q43 100 53.5 126.5t10.5 39.5q0 29 -29 29q-36 0 -102.5 -58.5t-108.5 -115.5q-25 -35 -39 -35q-17 0 -22.5 11.5zM332 193q0 -25 2.5 -44.5 t12 -44t26.5 -40t49.5 -26.5t77.5 -11q147 0 226 95.5t79 235.5q0 56 -16.5 96.5t-38 61t-53 32t-50.5 13.5t-41 2q-48 0 -184 -22q-90 -207 -90 -348z" />
<glyph unicode="&#x44d;" horiz-adv-x="1083" d="M-78 164q0 46 30.5 90.5t67.5 44.5q55 0 80 -98q7 -33 12.5 -50.5t19.5 -46.5t33 -44.5t52.5 -27.5t77.5 -12q86 0 164.5 38.5t131.5 95t93 121.5t59 118.5t19 85.5q0 31 -17 31q-6 0 -13 -3t-11.5 -6t-15 -11t-15.5 -11q-62 -43 -115 -43q-24 0 -56.5 10.5t-48 18 t-54.5 27.5q-67 34 -105 34q-33 0 -69 -20q-41 -21 -47 -21q-9 0 -16 7.5t-7 23.5q0 8 5 15.5t8.5 10.5t13.5 9l10 6q6 4 33 21.5t36.5 23t32.5 18t37.5 17.5t35.5 9.5t40 4.5q9 0 17.5 -0.5t17.5 -3t15.5 -4t16 -5.5t14 -6t15 -7.5t13.5 -7t14.5 -8t13.5 -7.5 q93 -51 131 -51q96 0 96 156q0 149 -71 220.5t-182 71.5q-160 0 -287 -143q-29 -35 -53 -35q-16 0 -23.5 9t-7.5 20q0 34 67 92q71 63 155 97t208 34q81 0 155.5 -24t137.5 -71.5t101 -131t38 -191.5q0 -187 -97.5 -347t-265 -254.5t-364.5 -94.5q-167 0 -272 63.5 t-105 141.5z" />
<glyph unicode="&#x44e;" horiz-adv-x="1871" d="M43 739q0 48 131 179q64 62 140 108.5t141 46.5q53 0 80.5 -35t27.5 -96q0 -98 -55 -260l-29 -84q-3 -11 2 -18t15 -7h198q35 118 108.5 215t165 158t190.5 94t192 33q133 0 240 -63t166 -170t59 -236q0 -113 -57 -229t-151.5 -208t-228 -150t-274.5 -58 q-88 0 -161.5 27.5t-123 72.5t-84 104.5t-50 122t-15.5 126.5q0 43 10 98h-211q-20 0 -25 -16l-147 -443q-11 -32 -25.5 -41.5t-35.5 -9.5h-144q-37 0 -20 47l198 594q60 176 60 229q0 42 -15 52q-8 4 -14 4q-23 0 -70 -41t-73 -74l-52 -63q-1 -1 -7.5 -9.5t-10 -12 t-10 -7.5t-12.5 -4q-23 0 -23 24zM899 301q0 -56 10.5 -104t33 -89t64 -64.5t97.5 -23.5q90 0 170 54.5t134 138.5t93.5 185.5t57.5 194t18 165.5q0 72 -18.5 124t-50.5 79t-67 39t-75 12q-80 0 -155 -46t-130.5 -121t-97 -168t-63 -190.5t-21.5 -185.5z" />
<glyph unicode="&#x44f;" horiz-adv-x="1202" d="M-172 29q0 30 33 30q10 0 28 -6q5 0 13 -1t10 -1q17 0 34 8t29.5 18t27.5 28.5t23 31t22 35t20 31.5q41 63 67.5 98.5t62.5 73t72 58t86.5 37.5t116.5 26l-2 10q-53 1 -102 16t-91 43t-67 75.5t-25 107.5q0 22 3.5 44t16.5 56t35 63t64 59.5t98 52.5t141.5 36t190.5 14 q97 0 162 -5t104.5 -13t59.5 -24t26.5 -33t6.5 -44q0 -67 -43 -194l-138 -416q-12 -38 -26 -78.5t-20 -58.5t-10.5 -34.5t-4.5 -27.5q0 -28 27 -28q17 0 37.5 11t69.5 57t120 130q17 23 31 23q8 0 15 -6.5t7 -18.5q0 -22 -24 -51q-219 -303 -408 -303q-17 0 -32.5 3t-37 13 t-34.5 34.5t-13 60.5q0 14 1.5 28t6.5 32t8 27l11 33t10 31l88 268q-31 1 -58.5 0.5t-52 -7t-43.5 -10.5t-40 -18t-33.5 -21t-31.5 -28t-28 -30t-29 -37.5t-27.5 -39t-29.5 -44.5l-12 -18q-87 -132 -115 -165q-74 -89 -167 -106q-29 -6 -64 -6q-53 0 -114.5 18t-61.5 52z M424 733q0 -39 10.5 -70.5t26 -51t38.5 -34t42 -21t43.5 -10.5t36 -4.5t24.5 -0.5h64q22 0 36 9.5t19 19.5t10 28l74 229q20 66 20 109q0 17 -3.5 28t-16.5 23.5t-44 18.5t-81 6q-132 0 -215.5 -76t-83.5 -203z" />
<glyph unicode="&#x451;" horiz-adv-x="1083" d="M47 338q0 137 63.5 272.5t164.5 236.5t233.5 163.5t263.5 62.5q134 0 214.5 -65.5t80.5 -169.5q0 -69 -29.5 -126t-85 -99t-125.5 -74t-160.5 -54t-180 -36t-193.5 -23q-8 -36 -8 -82q0 -132 65.5 -195t159.5 -63t186.5 57t149.5 123l26 31q18 18 27 18q23 0 23 -20 t-48 -82q-20 -27 -47 -56t-73 -66t-96.5 -65t-118.5 -47.5t-138 -19.5q-164 0 -259 103.5t-95 275.5zM301 485q126 7 225 39t157 75t95.5 98t50.5 103t13 95q0 59 -29.5 88t-79.5 29q-56 0 -118 -32.5t-122.5 -95t-112 -166.5t-79.5 -233zM514 1329q0 44 31 82.5t86 38.5 q42 0 77 -27t35 -90q0 -56 -32.5 -91.5t-85.5 -35.5q-32 0 -55 13t-34.5 33.5t-16.5 39.5t-5 37zM946 1329q0 44 31 82.5t86 38.5q42 0 77.5 -27t35.5 -90q0 -56 -32.5 -91.5t-86.5 -35.5q-32 0 -55 13t-34.5 33.5t-16.5 39.5t-5 37z" />
<glyph unicode="&#x452;" horiz-adv-x="1243" d="M-18 20q0 13 12 54l350 1110h-215l18 63h215l11 29q6 18 6 65q0 9 -5 18t-25 18t-54 9h-33q-33 0 -33 31q0 19 15 29t37 10l73 2q59 2 124 15.5t112 35.5q13 6 27 13.5t22 11.5t14 4q23 0 23 -27q0 -14 -5.5 -30.5t-16.5 -45t-19 -53.5l-41 -135h342l-18 -63h-345 l-221 -682q38 63 85.5 130t116 149t136.5 144.5t146.5 105t146.5 42.5q94 0 148.5 -72t54.5 -194q0 -189 -64 -423.5t-186 -460t-270 -349.5q-145 -123 -299 -123q-92 0 -135.5 39.5t-43.5 81.5q0 11 3.5 24t12 29t28.5 26.5t49 10.5q41 0 59 -17.5t31 -52.5q8 -22 14 -34 t20.5 -23.5t34.5 -11.5q10 0 22.5 5.5t34 22.5t50 58t59.5 102q120 239 231 568t111 516q0 129 -80 129q-34 0 -78.5 -21.5t-110.5 -82.5t-136.5 -153.5t-159.5 -251.5t-176 -360q-17 -39 -27 -46q-13 -9 -39 -9h-131q-10 0 -19 5t-9 15z" />
<glyph unicode="&#x453;" horiz-adv-x="1019" d="M-90 29q0 8 2 14.5t6 10.5t7.5 7t10 4.5t9 2t9.5 1.5l7 1q70 5 112.5 39.5t65.5 109.5l174 590q19 63 19 86q0 12 -2 21.5t-8.5 16t-11 10.5t-16 7.5t-17 5t-22 4t-22.5 3.5q-22 3 -30 9t-8 23t12.5 26t25.5 10t39 1h539h43q98 0 128.5 4.5t47.5 26.5q3 4 9.5 13.5t10 14 t12 9t19.5 4.5q19 0 27 -8t8 -27q0 -10 -2.5 -21.5t-8.5 -34t-11 -46.5l-37 -176q-9 -49 -23 -63q-14 -11 -33 -11q-24 0 -31 16.5t-12 67.5q-4 54 -13.5 87t-28.5 49.5t-41.5 22t-59.5 5.5h-197q-30 0 -36 -25l-207 -692q-19 -59 -19 -88q0 -17 3 -29.5t14 -22t16.5 -14 t27 -10t27 -6.5t33.5 -6l35 -6q29 -6 29 -33q0 -33 -49 -33q-45 0 -136 8t-135 8q-41 0 -128.5 -8t-139.5 -8q-14 0 -21 1t-14.5 8t-7.5 20zM561 1182q0 7 4.5 13.5t13.5 12.5t17 10.5t21.5 11t21.5 11.5l432 250q35 22 70 22q29 0 45 -19.5t16 -41.5q0 -56 -88 -88 l-452 -178q-69 -23 -78 -23q-23 0 -23 19z" />
<glyph unicode="&#x454;" horiz-adv-x="1046" d="M57 344q0 105 34.5 204.5t92 178t134 144.5t160 110t169.5 68t164 24q119 0 184.5 -40.5t65.5 -100.5q0 -40 -29.5 -69t-83.5 -29q-17 0 -32.5 3.5t-27 8t-24 14.5t-19.5 16t-17.5 19.5t-14.5 19.5t-13.5 21t-11.5 18q-10 17 -16.5 25.5t-21 16.5t-33.5 8 q-93 0 -214 -128t-175 -311q42 31 97 57.5t93 26.5q14 0 28 -2.5t29 -9t23.5 -10.5t25 -12.5t19.5 -10.5q64 -31 92 -31q31 0 74 17q43 16 51 16q10 0 17.5 -7t7.5 -15q0 -33 -109 -85.5t-162 -52.5q-49 0 -118 43q-75 46 -111 46q-35 0 -62.5 -36t-27.5 -130 q0 -130 62.5 -204.5t170.5 -74.5q52 0 105 18t89.5 39t77.5 57t57.5 53.5t41.5 46.5q6 6 8 9q17 23 33 23q8 0 15.5 -6.5t7.5 -16.5q0 -16 -19 -41q-101 -149 -247 -231t-287 -82q-158 0 -255.5 108t-97.5 277z" />
<glyph unicode="&#x455;" horiz-adv-x="892" d="M-37 150q0 56 18 104.5t54 48.5q16 0 29.5 -6.5t27.5 -22t22.5 -27t25 -37.5t24.5 -38q23 -33 41 -55t45 -47t60.5 -37.5t72.5 -12.5q82 0 132 48.5t50 121.5q0 17 -2 32.5t-9.5 31.5t-11.5 26.5t-18.5 27.5t-19.5 24t-25.5 26t-25.5 23.5t-30 26.5t-30 26 q-115 100 -151 142q-78 92 -78 190q0 122 113.5 214.5t304.5 92.5q52 0 106.5 -8t104.5 -23t82 -42t32 -60q0 -23 -4 -51.5t-20 -59t-41 -30.5q-35 0 -74 45l-45 47q-118 121 -207 121q-56 0 -99.5 -37t-43.5 -101q0 -15 2.5 -30t9.5 -29.5t12.5 -26t18.5 -27t20 -24 t24 -24.5t23.5 -22t26.5 -23.5t25 -22.5q9 -9 39 -35.5t40.5 -37t36 -35t36.5 -37.5t29.5 -36t27 -40t18.5 -39t14 -43.5t4 -44.5q0 -133 -124.5 -235.5t-311.5 -102.5q-60 0 -124 12t-123 34t-96.5 60t-37.5 85z" />
<glyph unicode="&#x456;" horiz-adv-x="667" d="M68 748q0 14 26 51q17 25 41.5 54.5t66 70t85.5 72.5t100 54.5t109 22.5q104 0 104 -104q0 -41 -18 -103t-68 -186l-129 -328q-57 -146 -57 -188q0 -26 14 -35q4 -2 16 -2q61 0 181 160q47 63 67 63q9 0 15 -7t6 -17q0 -14 -19 -43q-91 -133 -210 -228.5t-210 -95.5 q-17 0 -34 5t-35 16.5t-29.5 36t-11.5 59.5q0 96 110 366l134 328q43 107 43 133q0 33 -29 33q-31 0 -87.5 -54t-94.5 -102q-3 -4 -9 -11.5t-8.5 -10.5l-7.5 -9t-8 -8.5t-7.5 -6t-7.5 -5t-7.5 -3t-8.5 -1.5q-22 0 -22 23zM471 1323q0 63 39 114.5t108 51.5q49 0 79 -33.5 t30 -85.5q0 -58 -37.5 -111t-111.5 -53q-57 0 -82 33.5t-25 83.5z" />
<glyph unicode="&#x457;" horiz-adv-x="659" d="M68 748q0 14 26 51q17 25 41.5 54.5t66 70t85.5 72.5t100 54.5t109 22.5q104 0 104 -104q0 -41 -18 -103t-68 -186l-129 -328q-57 -146 -57 -188q0 -17 6.5 -26.5t11.5 -10t11 -0.5h1q61 0 181 160q47 63 67 63q9 0 15 -7t6 -17q0 -14 -19 -43q-91 -133 -210 -228.5 t-210 -95.5q-17 0 -34 5t-35 16.5t-29.5 36t-11.5 59.5q0 96 110 366l134 328q43 107 43 133q0 33 -29 33q-31 0 -87.5 -54t-94.5 -102q-3 -4 -9 -11.5t-8.5 -10.5l-7.5 -9t-8 -8.5t-7.5 -6t-7.5 -5t-7.5 -3t-8.5 -1.5q-22 0 -22 23zM246 1325q0 60 35.5 104t93.5 44 q44 0 71 -26.5t27 -74.5q0 -65 -37.5 -109t-95.5 -44q-44 0 -69 28t-25 78zM649 1325q0 60 35.5 104t93.5 44q44 0 71.5 -26.5t27.5 -74.5q0 -65 -38 -109t-96 -44q-44 0 -69 28t-25 78z" />
<glyph unicode="&#x458;" horiz-adv-x="610" d="M-428 -395q0 53 31.5 76.5t66.5 23.5q18 0 34 -6.5t26 -13.5t22 -22.5t16.5 -24t14.5 -26.5t12 -22q20 -37 35.5 -50t38.5 -13q56 0 92 78q8 17 16 39.5t15 45t26 85.5t37 123l252 804q53 167 53 197q0 33 -26 33q-28 0 -95 -63t-104 -109q-22 -33 -43 -33q-6 0 -15 6 t-9 19q0 18 26 51q62 79 126 136t116 84t90 38.5t68 11.5q51 0 75.5 -28.5t24.5 -71.5q0 -54 -45 -199l-240 -776q-14 -45 -22 -70t-26.5 -75t-33.5 -81t-41 -77t-52 -75.5t-63 -63t-77 -52.5t-91 -32t-108 -13q-89 0 -156 40.5t-67 105.5zM469 1319q0 60 41.5 114t107.5 54 q38 0 72.5 -25.5t34.5 -85.5t-44 -114t-106 -54q-41 0 -73.5 28t-32.5 83z" />
<glyph unicode="&#x459;" horiz-adv-x="1624" d="M-229 92q0 39 24 67.5t72 28.5q62 0 86 -65q20 -55 35 -64q12 -4 18 -4q66 0 173.5 171t209.5 448q62 176 62 231q0 38 -24.5 52t-96.5 14h-6h-6t-6.5 0.5t-7 1.5t-5.5 2t-6 3.5t-4 5.5t-3 7.5t-1 9.5q0 14 9 21.5t17.5 8.5t24.5 1h749q17 0 24.5 -10t2.5 -27l-133 -409 q153 57 301 57q67 0 119.5 -16t84.5 -41t52.5 -60t28.5 -69t8 -72q0 -122 -80 -221t-206 -152t-267 -53q-89 0 -155.5 19t-104 47t-61 67.5t-30.5 73.5t-7 72q0 80 59 251l139 420q19 56 -26 56h-127q-48 0 -77 -4t-44.5 -17.5t-20 -22.5t-12.5 -34q-89 -262 -197 -488 q-53 -109 -105.5 -190t-96 -128t-87.5 -75.5t-77 -37.5t-68 -9q-64 0 -107.5 36.5t-43.5 96.5zM877 203q0 -31 6.5 -58t23 -55.5t51.5 -45.5t86 -17q68 0 125 32.5t92 83t54.5 109t19.5 113.5q0 95 -49.5 146.5t-140.5 51.5q-64 0 -184 -35q-84 -226 -84 -325z" />
<glyph unicode="&#x45a;" horiz-adv-x="1783" d="M43 739q0 16 23 52q69 104 185 193t204 89q50 0 79 -33.5t29 -93.5q0 -85 -57 -264l-27 -84q-4 -9 -1.5 -14.5t16.5 -5.5h395q19 0 26 18l134 401q0 1 1 3q10 27 26 31q5 1 11 1h158q38 0 27 -39l-135 -407q148 57 303 57q76 0 132.5 -20t86 -48t47.5 -66.5t22.5 -66.5 t4.5 -57q0 -75 -39 -150t-108 -137t-176 -100.5t-232 -38.5q-99 0 -170 22t-111 62t-58 89t-18 110q0 27 4.5 54t9 44t13.5 45.5t12 40.5l17 55q10 29 -17 29h-389q-14 0 -19 -4.5t-8 -16.5l-147 -438q-15 -51 -61 -51h-144q-23 0 -26 15t6 32l198 594q60 176 60 229 q0 14 -0.5 21t-3 16.5t-9 14t-16.5 4.5q-33 0 -98 -66t-99 -112q-24 -33 -41 -33q-20 0 -20 24zM1036 203q0 -41 9.5 -72.5t26.5 -49.5t34 -30t38.5 -16.5t33 -6t24.5 -1.5q123 0 208 102t85 236q0 26 -3.5 49.5t-16 52t-32.5 48.5t-56 34t-84 14q-65 0 -185 -35 q-82 -207 -82 -325z" />
<glyph unicode="&#x45b;" horiz-adv-x="1271" d="M-18 20q0 13 12 54l350 1110h-215l18 63h215l11 29q21 60 1 84t-79 26h-33q-14 0 -22 7.5t-9.5 13t-1.5 10.5q0 17 15.5 28t36.5 11l73 2q59 2 124 15.5t112 35.5q13 6 27 13.5t22 11.5t14 4q23 0 23 -27q0 -13 -4.5 -28.5t-16.5 -45.5t-20 -57l-41 -133h342l-18 -63 h-345l-221 -678l10 -2q37 66 88.5 139t121.5 150.5t142.5 139t155.5 101t156 39.5q78 0 121 -41.5t43 -107.5q0 -20 -3.5 -42.5t-7.5 -39t-13.5 -44.5t-14 -40t-18.5 -46t-17 -42l-164 -404q-37 -88 -37 -125q0 -7 3 -16q10 -19 30 -19q61 0 223 197q1 1 6 7t8.5 9t9 6 t11.5 3q23 0 23 -23q0 -21 -27 -57q-38 -52 -103.5 -116t-154 -118.5t-153.5 -54.5q-48 0 -80.5 27t-32.5 92q0 74 67 248l168 426q31 74 31 135q0 45 -61 45q-40 0 -77.5 -16.5t-60.5 -35.5t-57 -53q-295 -286 -452 -694l-27 -70q-17 -44 -26 -52q-13 -11 -42 -11h-131 q-10 0 -19 5t-9 15z" />
<glyph unicode="&#x45c;" horiz-adv-x="1273" d="M46.5 725.5q-5.5 10.5 4.5 36.5q56 102 181 206.5t221 104.5q110 0 110 -129q0 -103 -55 -262l-72 -215h8q37 49 77.5 99.5t104.5 125t130 137t137.5 120.5t143.5 91t132 33q59 0 104.5 -33.5t45.5 -91.5q0 -44 -27.5 -73t-70.5 -29q-12 0 -23 2.5t-19.5 5.5t-17.5 9.5 t-14.5 11t-12.5 13t-9.5 12t-9 12.5t-7.5 10q-28 36 -61 36q-65 0 -181.5 -106t-210.5 -221q56 -23 98 -62t66.5 -88t37.5 -87t24 -87q9 -41 12.5 -55.5t12 -48.5t14 -47t15.5 -37t20.5 -33.5t25 -22t32 -16.5t38.5 -4q98 0 98 115q0 42 -24.5 79.5t-24.5 57.5q0 12 10 20.5 t29 8.5q34 0 58 -37.5t24 -91.5q0 -97 -65 -166.5t-193 -69.5q-79 0 -137 23.5t-89 57t-50.5 85t-25 92.5t-6.5 94q-1 30 -2 69t-1.5 58t-1.5 43.5t-3 36.5t-6 26t-10 23t-15 17q-213 -233 -288 -445l-31 -88q-17 -51 -59 -51h-144q-28 0 -28 14q0 9 6 33l198 594 q62 189 62 236q0 49 -31 49q-20 0 -52.5 -25.5t-56 -51.5t-57.5 -66.5t-37 -43.5q-22 -24 -32 -24q-14 0 -19.5 10.5zM647 1182q0 7 4.5 13.5t13.5 12.5t17 10.5t21.5 11t21.5 11.5l432 250q35 22 70 22q29 0 45 -19.5t16 -41.5q0 -56 -88 -88l-452 -178q-69 -23 -78 -23 q-23 0 -23 19z" />
<glyph unicode="&#x45e;" horiz-adv-x="1122" d="M-285 -416q0 38 27 70.5t74 32.5q52 0 112 -64q40 -44 55 -53q23 -14 52 -14q72 0 160 88q52 52 87 111t51 119.5t21.5 103.5t7.5 96q3 87 0 174q0 9 -1 34q-16 644 -123 644q-34 0 -79.5 -49t-84.5 -138q-4 -10 -6 -13.5t-6.5 -10t-10.5 -8.5t-14 -2q-25 0 -25 22 q0 18 27 70q73 132 158.5 204t158.5 72q52 0 92.5 -46t64.5 -118.5t39.5 -172t21.5 -196t6 -200.5q0 -125 -13 -281q51 57 107.5 128.5t123.5 168t109.5 194t42.5 167.5q0 50 -30 127q-27 67 -27 102q0 55 30.5 91t73.5 36q57 0 87 -49t30 -121q0 -137 -102 -325.5 t-379 -534.5q-263 -331 -421 -461.5t-308 -130.5q-84 0 -136.5 42t-52.5 91zM451 1276q0 41 68 114.5t116 73.5q11 0 16 -5.5t5.5 -10t0.5 -14.5q0 -18 -5 -50.5t-5 -48.5q0 -51 34.5 -75.5t86.5 -24.5q134 0 287 162l45 47q27 30 49 26q14 -6 14 -20q0 -24 -51 -80 q-92 -99 -207.5 -170.5t-238.5 -71.5q-96 0 -155.5 48.5t-59.5 99.5z" />
<glyph unicode="&#x45f;" horiz-adv-x="1361" d="M51 735q-3 9 0 17q5 20 47 75q87 115 192.5 180.5t184.5 65.5q100 0 100 -121q0 -9 -1 -19.5t-2.5 -18.5t-5 -21t-6 -21t-8.5 -25.5t-9 -26t-12 -32t-13 -34.5l-178 -469q-31 -79 -31 -125q0 -51 49 -51q64 0 205 114q139 112 272 306t191 384l23 74q7 26 21 35.5t42 9.5 h139q25 0 27.5 -15t-4.5 -26l-193 -567q-71 -209 -71 -270q0 -41 26 -41q69 0 221 194q26 33 39 33q23 0 23 -23q0 -20 -31 -59q-25 -32 -35 -44t-43.5 -50.5t-56 -59.5t-62 -53t-73.5 -48.5t-77 -30t-85 -13.5t-65 24.5t-23 67.5q0 114 102 383l41 107h-8 q-79 -135 -178 -249t-193.5 -184.5t-180.5 -109.5t-150 -39q-58 0 -95.5 33t-37.5 106q0 99 77 283l148 360q49 116 49 156q0 15 -5.5 23t-10 9t-11.5 1q-42 0 -103.5 -62t-105.5 -125q-16 -24 -34 -24t-21 16zM334 -590.5q4 11.5 14 23.5q3 4 14 15.5t14.5 16t11.5 15 t11 18t7.5 19t6 24t1.5 27.5q0 18 -4 55t-4 55q0 26 5.5 53t12.5 48.5t22.5 49.5t25.5 45t32 45.5t31.5 40.5t34 41.5t30.5 37.5q26 33 39 33q7 0 15 -6t8 -19t-27 -53q-40 -60 -47 -111q-4 -24 0 -73q4 -62 4 -91q0 -88 -43 -157q-21 -36 -39.5 -57.5t-49 -47t-42.5 -37.5 l-8 -8l-9 -9t-9 -7.5t-11.5 -7.5t-12 -4t-14.5 -2q-15 0 -19.5 8t-0.5 19.5z" />
<glyph unicode="&#x490;" horiz-adv-x="1163" d="M-137 35q0 33 49 37l72 6q24 2 43.5 14t31 25t23 39t16 39.5t13.5 42.5l276 929q27 88 27 119q0 24 -8.5 40t-23.5 23t-26.5 9.5t-27.5 3.5t-23.5 2t-19.5 5t-17.5 12t-5.5 20q0 33 55 33q53 -1 205 -4.5t289 -2.5q60 0 92.5 1t79 4t72.5 8.5t61.5 15.5t58 25t50 37 t50.5 51t46 67q20 31 30 40.5t27 9.5q25 0 25 -35q0 -6 -31 -125l-24 -96q-7 -30 -14 -46t-13.5 -25.5t-20 -11.5t-25 -1.5t-38 3.5t-49.5 3l-135 2q-81 2 -199.5 -5.5t-165.5 -21.5l-321 -1069q-27 -81 -27 -111q0 -65 80 -69l67 -4q17 0 32.5 -8t15.5 -27q0 -39 -50 -39 q-49 0 -146 6t-146 6q-46 0 -138.5 -6t-138.5 -6q-53 0 -53 35z" />
<glyph unicode="&#x491;" horiz-adv-x="878" d="M-119 31q0 36 53 41q74 8 110 36.5t62 114.5l179 600q18 63 17 80q-4 43 -76 56q-7 1 -15 2q-29 3 -40 9t-11 25q0 37 67 37h555q62 0 114.5 34.5t123.5 139.5q25 41 55 41q20 0 26.5 -13.5t0.5 -35.5l-45 -141q-23 -70 -35 -85.5t-51 -15.5q-60 0 -127.5 4.5t-116.5 4.5 h-141q-12 0 -24 -7t-15 -18l-215 -731q-7 -24 -8 -42.5t0.5 -31t13 -23t18 -15.5t27.5 -10.5t30.5 -7.5t37.5 -7q16 -3 24 -5t16.5 -11t8.5 -23q0 -12 -5 -19.5t-17.5 -10t-17.5 -3t-20 -0.5q-47 0 -133 6t-127 6q-40 0 -125 -6t-133 -6q-13 0 -20 1t-14 8.5t-7 21.5z" />
<glyph unicode="&#x2000;" horiz-adv-x="919" />
<glyph unicode="&#x2001;" horiz-adv-x="1839" />
<glyph unicode="&#x2002;" horiz-adv-x="919" />
<glyph unicode="&#x2003;" horiz-adv-x="1839" />
<glyph unicode="&#x2004;" horiz-adv-x="613" />
<glyph unicode="&#x2005;" horiz-adv-x="459" />
<glyph unicode="&#x2006;" horiz-adv-x="306" />
<glyph unicode="&#x2007;" horiz-adv-x="306" />
<glyph unicode="&#x2008;" horiz-adv-x="229" />
<glyph unicode="&#x2009;" horiz-adv-x="367" />
<glyph unicode="&#x200a;" horiz-adv-x="102" />
<glyph unicode="&#x2010;" horiz-adv-x="776" d="M98 420l52 149h528l-49 -149h-531z" />
<glyph unicode="&#x2011;" horiz-adv-x="776" d="M98 420l52 149h528l-49 -149h-531z" />
<glyph unicode="&#x2012;" horiz-adv-x="776" d="M98 420l52 149h528l-49 -149h-531z" />
<glyph unicode="&#x2013;" horiz-adv-x="1644" d="M225 471l45 96h1149l-45 -96h-1149z" />
<glyph unicode="&#x2014;" horiz-adv-x="2263" d="M225 471l45 96h1768l-37 -96h-1776z" />
<glyph unicode="&#x2018;" d="M184 1202q0 107 91.5 225t244.5 189q64 29 76 29t21.5 -8t9.5 -25q0 -13 -10 -22.5t-48 -28.5q-87 -44 -149 -107t-62 -113q0 -13 5 -21t10.5 -10.5t17.5 -6.5q6 -2 17.5 -6.5t17.5 -6.5q68 -23 68 -96q0 -68 -50.5 -107.5t-107.5 -39.5q-59 0 -105.5 41.5t-46.5 113.5z " />
<glyph unicode="&#x2019;" d="M102 907q0 13 10 22.5t48 28.5q87 44 149 107t62 113q0 13 -5 21t-11 11t-17 7q-6 2 -17.5 6t-17.5 6q-67 23 -67 96q0 68 50 108t107 40q59 0 105.5 -42t46.5 -114q0 -107 -91.5 -225t-244.5 -189q-64 -29 -76 -29t-21.5 8t-9.5 25z" />
<glyph unicode="&#x201a;" d="M-137 -295q0 13 10 22.5t47 28.5q87 44 149 106.5t62 112.5q0 13 -5 21t-11 11t-17 7q-6 2 -17.5 6.5t-17.5 6.5q-67 23 -67 96q0 68 50.5 107.5t107.5 39.5q59 0 105 -41.5t46 -113.5q0 -107 -91.5 -225t-244.5 -189q-64 -29 -75 -29q-12 0 -21.5 8t-9.5 25z" />
<glyph unicode="&#x201c;" d="M184 1202q0 107 91.5 225t244.5 189q64 29 76 29t21.5 -8t9.5 -25q0 -13 -10 -22.5t-48 -28.5q-89 -44 -150 -106.5t-61 -113.5q0 -30 31 -41q6 -2 18.5 -5t18.5 -5q27 -7 47.5 -31t20.5 -65q0 -68 -50.5 -107.5t-107.5 -39.5q-59 0 -105.5 41.5t-46.5 113.5zM627 1202 q0 107 91.5 225t244.5 189q64 29 75 29q12 0 21.5 -8t9.5 -25q0 -13 -10 -22.5t-47 -28.5q-87 -44 -149 -107t-62 -113q0 -29 30 -38q6 -2 18.5 -6.5t18.5 -6.5q68 -23 68 -96q0 -68 -50.5 -107.5t-107.5 -39.5q-59 0 -105 41.5t-46 113.5z" />
<glyph unicode="&#x201d;" d="M102 907q0 13 10 22.5t48 28.5q88 44 149.5 106.5t61.5 113.5q0 31 -33 41q-6 2 -17.5 5t-17.5 5q-67 23 -67 96q0 68 50 108t107 40q59 0 105.5 -42t46.5 -114q0 -107 -91.5 -225t-244.5 -189q-64 -29 -76 -29t-21.5 8t-9.5 25zM545 907q0 13 10 22.5t47 28.5 q88 44 149.5 106.5t61.5 113.5q0 6 -1 11.5t-4 9.5t-4.5 6.5t-6.5 5t-6.5 3t-8.5 2.5l-6 3q-22 6 -33.5 11t-29.5 16.5t-26.5 31t-8.5 47.5q0 68 50.5 108t107.5 40q59 0 105 -42t46 -114q0 -107 -91.5 -225t-244.5 -189q-64 -29 -76 -29q-30 0 -30 33z" />
<glyph unicode="&#x201e;" d="M-137 -295q0 13 10 22.5t47 28.5q88 44 149.5 106t61.5 113q0 6 -1 11.5t-4 9.5t-4.5 6.5t-6.5 5t-6.5 3t-8.5 3.5l-6 2q-5 2 -15.5 5.5t-15.5 5.5q-67 23 -67 96q0 68 50.5 107.5t107.5 39.5q59 0 105 -41.5t46 -113.5q0 -107 -91.5 -225t-244.5 -189q-64 -29 -75 -29 q-12 0 -21.5 8t-9.5 25zM305 -295q0 13 10 22.5t47 28.5q88 44 149.5 106t61.5 113q0 32 -32 41q-6 2 -17.5 5.5t-17.5 5.5q-68 23 -68 96q0 68 50.5 107.5t107.5 39.5q59 0 105.5 -41.5t46.5 -113.5q0 -107 -91.5 -225t-244.5 -189q-64 -29 -76 -29t-21.5 8t-9.5 25z" />
<glyph unicode="&#x2026;" horiz-adv-x="1714" d="M10 84q0 59 41.5 108.5t106.5 49.5q53 0 83.5 -37t30.5 -88q0 -59 -41 -108.5t-106 -49.5q-53 0 -84 37.5t-31 87.5zM537 84q0 59 41 108.5t106 49.5q53 0 84 -37.5t31 -87.5q0 -59 -41.5 -108.5t-106.5 -49.5q-53 0 -83.5 37t-30.5 88zM1063 84q0 59 41 108.5t106 49.5 q53 0 84 -37.5t31 -87.5q0 -59 -41 -108.5t-106 -49.5q-53 0 -84 37.5t-31 87.5z" />
<glyph unicode="&#x202f;" horiz-adv-x="367" />
<glyph unicode="&#x2039;" horiz-adv-x="739" d="M88 522q0 7 21 21l577 391q9 6 16 6q17 0 17 -14q0 -11 -12 -23l-392 -381l164 -379q7 -19 0.5 -29t-18.5 -10q-11 0 -21 13l-344 385q-8 11 -8 20z" />
<glyph unicode="&#x203a;" horiz-adv-x="739" d="M55 119q0 9 13 22l391 381l-164 379q-7 19 -0.5 29t18.5 10t21 -12l344 -385q8 -11 8 -21q0 -7 -20 -20l-578 -391q-10 -7 -16 -7q-8 0 -12.5 5t-4.5 10z" />
<glyph unicode="&#x205f;" horiz-adv-x="459" />
<glyph unicode="&#x20ac;" d="M0 563l63 84h109q6 27 21 72q5 18 22 63h-145l63 84h117q64 144 138 251t170 190t220 125.5t273 42.5q279 0 354 -127l-45 -193h-45q21 120 -48.5 177t-203.5 57q-107 0 -197.5 -37.5t-162 -110t-127.5 -163.5t-107 -212h670l-64 -84h-639q-19 -57 -22 -67 q-2 -6 -10.5 -32.5t-10.5 -35.5h576l-64 -84h-532q-59 -248 10 -383t258 -135q125 0 232.5 57.5t166.5 180.5h45l-73 -185q-159 -137 -441 -137q-272 0 -373.5 154t-39.5 448h-158z" />
<glyph unicode="&#x2122;" horiz-adv-x="1722" d="M258 1294q0 7 6 18t20 34t25 45q31 68 47 78q6 4 11 4q6 0 9.5 -2.5t4.5 -5t1.5 -9t0.5 -8.5q2 -16 27 -16h424q12 0 19 2t9.5 4t6 8.5t5.5 9.5q3 6 11 11.5t14 5.5t11 -5.5t5 -11.5q0 -4 -2.5 -10.5t-8.5 -23.5t-13 -38l-27 -77q0 -1 -2 -4.5t-3 -6t-3.5 -6t-4.5 -5.5 t-5.5 -3.5t-7.5 -1.5q-7 0 -11.5 3t-6.5 10.5t-3 12t-1.5 17.5t-0.5 18q-2 54 -55 54h-74q-19 0 -24 -17l-121 -405q-13 -42 -7 -60.5t41 -25.5q4 -1 11 -2t10 -1.5t7 -2.5t5.5 -5.5t1.5 -9.5q0 -16 -20 -18h-23q-21 2 -127 2q-86 0 -127 -2h-18q-10 0 -12 8v10q2 10 8.5 14 t27.5 7q5 1 14.5 2t12.5 2t10.5 2.5t10.5 3t8.5 5t8 7.5t7 10t7.5 13.5t6.5 17.5t7.5 23l118 403q3 8 1 13.5t-15 5.5h-31q-29 0 -47.5 -2.5t-53.5 -22t-67 -57.5q-26 -33 -43 -33q-16 0 -16 14zM784 864q0 9 9.5 15t17.5 6l41 4q7 1 14 4t12 7t10 11.5t8.5 12t7.5 14 t5.5 12.5t4.5 12l4 9l124 336q0 1 3 9t4 10t3 10t2 11t0.5 10t-2 10.5t-6 8.5t-9 7.5t-14 4.5t-19.5 3q-29 0 -29 22q0 19 31 19h198q14 0 17 -15l43 -352q0 -10 2 -10t10 10l268 356q1 2 2.5 5.5t3 4t5.5 1t14 0.5h184h10.5h9t6 -1t5.5 -3t2.5 -5.5t1.5 -9.5q0 -18 -51 -22 q-17 -1 -28 -4.5t-28 -23.5t-26 -56l-86 -334q-12 -50 -7 -63q8 -19 50 -23q26 0 26 -21q0 -20 -32 -20q-24 0 -69.5 2t-66.5 2q-22 0 -67 -2t-70 -2q-22 0 -22 18q0 17 26 21q6 1 21 2.5t19 2.5t14.5 4.5t14 8.5t10.5 14.5t12 23t10 32.5l90 344l6 18q4 13 0 13 q-2 0 -10 -11l-295 -395q-28 -38 -40 -51.5t-20 -13.5q-13 0 -20 65l-49 387q0 8 -6 8q-1 0 -4 -10l-109 -305q-23 -78 -23 -107q0 -12 5 -18t10 -7.5t16 -2.5l31 -4q14 0 14 -17q0 -15 -16 -18h-21q-33 4 -100 4q-53 0 -82 -4q-10 -3 -20 0q-11 4 -11 16z" />
<glyph unicode="&#xe000;" horiz-adv-x="1075" d="M0 0v1075h1075v-1075h-1075z" />
</font>
</defs>
</svg>
